SplineFontDB: 3.0
FontName: Orbitron-Black
FullName: Orbitron Black
FamilyName: Orbitron
Weight: Black
Copyright: Copyright (c) 2009, Matt McInerney <matt@pixelspread.com>\n
Version: 1.000
ItalicAngle: 0
UnderlinePosition: -51.2
UnderlineWidth: 51.2
Ascent: 768
Descent: 256
sfntRevision: 0x00010000
LayerCount: 2
Layer: 0 1 "Back"  1
Layer: 1 1 "Fore"  0
XUID: [1021 496 529952750 14515051]
FSType: 4
OS2Version: 3
OS2_WeightWidthSlopeOnly: 0
OS2_UseTypoMetrics: 1
CreationTime: 1248674940
ModificationTime: 1291111981
PfmFamily: 17
TTFWeight: 900
TTFWidth: 5
LineGap: 0
VLineGap: 0
Panose: 2 0 0 0 0 0 0 0 0 0
OS2TypoAscent: 0
OS2TypoAOffset: 1
OS2TypoDescent: 0
OS2TypoDOffset: 1
OS2TypoLinegap: 0
OS2WinAscent: 0
OS2WinAOffset: 1
OS2WinDescent: 0
OS2WinDOffset: 1
HheadAscent: -228
HheadAOffset: 1
HheadDescent: -20
HheadDOffset: 1
OS2SubXSize: 717
OS2SubYSize: 666
OS2SubXOff: 0
OS2SubYOff: 143
OS2SupXSize: 717
OS2SupYSize: 666
OS2SupXOff: 0
OS2SupYOff: 488
OS2StrikeYSize: 51
OS2StrikeYPos: 256
OS2Vendor: 'pyrs'
OS2CodePages: 00000001.00000000
OS2UnicodeRanges: 80000027.18000042.14000000.00000000
Lookup: 1 0 0 "'aalt' Access All Alternates in Latin lookup 0"  {"'aalt' Access All Alternates in Latin lookup 0 subtable"  } ['aalt' ('latn' <'dflt' > ) ]
Lookup: 3 0 0 "'aalt' Access All Alternates in Latin lookup 1"  {"'aalt' Access All Alternates in Latin lookup 1 subtable"  } ['aalt' ('latn' <'dflt' > ) ]
Lookup: 1 0 0 "'salt' Stylistic Alternatives in Latin lookup 2"  {"'salt' Stylistic Alternatives in Latin lookup 2 subtable"  } ['salt' ('latn' <'dflt' > ) ]
Lookup: 1 0 0 "'smcp' Lowercase to Small Capitals in Latin lookup 3"  {"'smcp' Lowercase to Small Capitals in Latin lookup 3 subtable"  } ['smcp' ('latn' <'dflt' > ) ]
Lookup: 1 0 0 "'ss01' Style Set 1 in Latin lookup 4"  {"'ss01' Style Set 1 in Latin lookup 4 subtable"  } ['ss01' ('latn' <'dflt' > ) ]

StartChar: A.alt3
Encoding: 65539 -1 4
Width: 846
Flags: W
HStem: 0 21G<-29 165.636 703.606 897> 165 160<338 531> 717 20G<356.254 513.692>
LayerCount: 2
Fore
SplineSet
715 0 m 1,0,-1
 621 165 l 1,1,-1
 250 165 l 1,2,-1
 154 0 l 1,3,-1
 -29 0 l 1,4,-1
 367 737 l 1,5,-1
 503 737 l 1,6,-1
 897 0 l 1,7,-1
 715 0 l 1,0,-1
338 325 m 1,8,-1
 531 325 l 1,9,10
 518 352 518 352 506.5 375 c 128,-1,11
 495 398 495 398 483 422 c 128,-1,12
 471 446 471 446 459 471 c 128,-1,13
 447 496 447 496 434 524 c 1,14,-1
 338 325 l 1,8,-1
EndSplineSet
EndChar

StartChar: AE
Encoding: 198 198 5
Width: 1408
Flags: W
HStem: 0 160<793 1314> 238 159<216 634> 289 160<793 1211> 578 159<216 634 793 1314>
VStem: 55 161<0 238 397 578> 634 159<160 238 449 578>
LayerCount: 2
Fore
SplineSet
793 449 m 1,0,-1
 1211 449 l 1,1,-1
 1211 289 l 1,2,-1
 793 289 l 1,3,-1
 793 160 l 1,4,-1
 1314 160 l 1,5,-1
 1314 0 l 1,6,-1
 634 0 l 1,7,-1
 634 238 l 1,8,-1
 216 238 l 1,9,-1
 216 0 l 1,10,-1
 55 0 l 1,11,-1
 55 586 l 2,12,13
 55 618 55 618 67 645.5 c 128,-1,14
 79 673 79 673 100 693.5 c 128,-1,15
 121 714 121 714 148.5 725.5 c 128,-1,16
 176 737 176 737 207 737 c 2,17,-1
 1314 737 l 1,18,-1
 1314 578 l 1,19,-1
 793 578 l 1,20,-1
 793 449 l 1,0,-1
634 578 m 1,21,-1
 216 578 l 1,22,-1
 216 397 l 1,23,-1
 634 397 l 1,24,-1
 634 578 l 1,21,-1
EndSplineSet
EndChar

StartChar: B
Encoding: 66 66 12
Width: 851
Flags: W
HStem: 0 160<219 637> 295 160<219 608> 578 159<219 608>
VStem: 60 159<160 295 455 578> 608 161<455 578> 637 161<160 295>
LayerCount: 2
Fore
SplineSet
769 447 m 2,0,1
 769 418 769 418 762 400 c 1,2,3
 777 381 777 381 787.5 356 c 128,-1,4
 798 331 798 331 798 304 c 2,5,-1
 798 152 l 2,6,7
 798 120 798 120 785.5 92.5 c 128,-1,8
 773 65 773 65 752.5 44.5 c 128,-1,9
 732 24 732 24 704.5 12 c 128,-1,10
 677 0 677 0 645 0 c 2,11,-1
 60 0 l 1,12,-1
 60 737 l 1,13,-1
 617 737 l 2,14,15
 648 737 648 737 675.5 725.5 c 128,-1,16
 703 714 703 714 724 693.5 c 128,-1,17
 745 673 745 673 757 645 c 128,-1,18
 769 617 769 617 769 586 c 2,19,-1
 769 447 l 2,0,1
219 160 m 1,20,-1
 637 160 l 1,21,-1
 637 295 l 1,22,-1
 219 295 l 1,23,-1
 219 160 l 1,20,-1
219 455 m 1,24,-1
 608 455 l 1,25,-1
 608 578 l 1,26,-1
 219 578 l 1,27,-1
 219 455 l 1,24,-1
EndSplineSet
EndChar

StartChar: C
Encoding: 67 67 13
Width: 841
Flags: W
HStem: 0 160<216 793> 578 159<216 793>
VStem: 57 159<160 578>
LayerCount: 2
Fore
SplineSet
216 578 m 1,0,-1
 216 160 l 1,1,-1
 793 160 l 1,2,-1
 793 0 l 1,3,-1
 209 0 l 2,4,5
 177 0 177 0 149.5 12 c 128,-1,6
 122 24 122 24 101.5 44.5 c 128,-1,7
 81 65 81 65 69 92.5 c 128,-1,8
 57 120 57 120 57 152 c 2,9,-1
 57 586 l 2,10,11
 57 618 57 618 69 645.5 c 128,-1,12
 81 673 81 673 101.5 693.5 c 128,-1,13
 122 714 122 714 149.5 725.5 c 128,-1,14
 177 737 177 737 209 737 c 2,15,-1
 793 737 l 1,16,-1
 793 578 l 1,17,-1
 216 578 l 1,0,-1
EndSplineSet
Substitution2: "'salt' Stylistic Alternatives in Latin lookup 2 subtable" C.alt
Substitution2: "'aalt' Access All Alternates in Latin lookup 0 subtable" C.alt
EndChar

StartChar: C.alt
Encoding: 65540 -1 14
Width: 841
Flags: W
HStem: 0 160<212 631> 578 159<212 631>
VStem: 53 159<160 578> 631 161<160 261 476 578>
LayerCount: 2
Fore
SplineSet
792 476 m 1,0,-1
 631 476 l 1,1,-1
 631 578 l 1,2,-1
 212 578 l 1,3,-1
 212 160 l 1,4,-1
 631 160 l 1,5,-1
 631 261 l 1,6,-1
 788 261 l 1,7,-1
 788 125 l 1,8,9
 783 98 783 98 770 75.5 c 128,-1,10
 757 53 757 53 737 36 c 128,-1,11
 717 19 717 19 692 9.5 c 128,-1,12
 667 0 667 0 639 0 c 2,13,-1
 205 0 l 2,14,15
 173 0 173 0 145.5 12 c 128,-1,16
 118 24 118 24 97.5 44.5 c 128,-1,17
 77 65 77 65 65 92.5 c 128,-1,18
 53 120 53 120 53 152 c 2,19,-1
 53 586 l 2,20,21
 53 618 53 618 65 645.5 c 128,-1,22
 77 673 77 673 97.5 693.5 c 128,-1,23
 118 714 118 714 145.5 725.5 c 128,-1,24
 173 737 173 737 205 737 c 2,25,-1
 639 737 l 2,26,27
 667 737 667 737 692 727.5 c 128,-1,28
 717 718 717 718 737 701.5 c 128,-1,29
 757 685 757 685 771 662 c 128,-1,30
 785 639 785 639 792 613 c 1,31,-1
 792 476 l 1,0,-1
EndSplineSet
EndChar

StartChar: A.alt
Encoding: 57355 57355 15
Width: 792
Flags: W
HStem: 0 21G<0 176.742 565 723> 178 157<440 565> 717 20G<545.615 723>
VStem: 565 158<0 178 335 482>
LayerCount: 2
Fore
SplineSet
0 51 m 1,0,-1
 562 737 l 1,1,-1
 723 737 l 1,2,-1
 723 0 l 1,3,-1
 565 0 l 1,4,-1
 565 178 l 1,5,-1
 309 178 l 1,6,-1
 160 0 l 1,7,-1
 0 0 l 1,8,-1
 0 51 l 1,0,-1
440 335 m 1,9,-1
 565 335 l 1,10,-1
 565 482 l 1,11,-1
 440 335 l 1,9,-1
EndSplineSet
EndChar

StartChar: Ccedilla
Encoding: 199 199 16
Width: 841
Flags: W
HStem: 0 160<216 383 544 793> 578 159<216 793>
VStem: 57 159<160 578>
LayerCount: 2
Fore
SplineSet
216 578 m 1,0,-1
 216 160 l 1,1,-1
 793 160 l 1,2,-1
 793 0 l 1,3,-1
 544 0 l 1,4,-1
 496 -160 l 1,5,-1
 335 -160 l 1,6,-1
 383 0 l 1,7,-1
 209 0 l 2,8,9
 177 0 177 0 149.5 12 c 128,-1,10
 122 24 122 24 101.5 44.5 c 128,-1,11
 81 65 81 65 69 92.5 c 128,-1,12
 57 120 57 120 57 152 c 2,13,-1
 57 586 l 2,14,15
 57 618 57 618 69 645.5 c 128,-1,16
 81 673 81 673 101.5 693.5 c 128,-1,17
 122 714 122 714 149.5 725.5 c 128,-1,18
 177 737 177 737 209 737 c 2,19,-1
 793 737 l 1,20,-1
 793 578 l 1,21,-1
 216 578 l 1,0,-1
EndSplineSet
EndChar

StartChar: D
Encoding: 68 68 17
Width: 854
Flags: W
HStem: 0 160<218 636> 578 159<218 636>
VStem: 59 159<160 578> 636 161<160 578>
LayerCount: 2
Fore
SplineSet
644 737 m 2,0,1
 676 737 676 737 703.5 725.5 c 128,-1,2
 731 714 731 714 751.5 693.5 c 128,-1,3
 772 673 772 673 784.5 645 c 128,-1,4
 797 617 797 617 797 586 c 2,5,-1
 797 152 l 2,6,7
 797 120 797 120 784.5 92.5 c 128,-1,8
 772 65 772 65 751.5 44.5 c 128,-1,9
 731 24 731 24 703.5 12 c 128,-1,10
 676 0 676 0 644 0 c 2,11,-1
 59 0 l 1,12,-1
 59 737 l 1,13,-1
 644 737 l 2,0,1
218 160 m 1,14,-1
 636 160 l 1,15,-1
 636 578 l 1,16,-1
 218 578 l 1,17,-1
 218 160 l 1,14,-1
EndSplineSet
EndChar

StartChar: E
Encoding: 69 69 18
Width: 784
Flags: W
HStem: 0 160<220 740> 289 160<220 639> 578 159<220 740>
VStem: 59 161<160 289 449 578>
LayerCount: 2
Fore
SplineSet
740 578 m 1,0,-1
 220 578 l 1,1,-1
 220 449 l 1,2,-1
 639 449 l 1,3,-1
 639 289 l 1,4,-1
 220 289 l 1,5,-1
 220 160 l 1,6,-1
 740 160 l 1,7,-1
 740 0 l 1,8,-1
 59 0 l 1,9,-1
 59 737 l 1,10,-1
 740 737 l 1,11,-1
 740 578 l 1,0,-1
EndSplineSet
EndChar

StartChar: Euro
Encoding: 8364 8364 23
Width: 818
Flags: W
HStem: 0 157<285 757> 191 157<36 128 285 656> 384 157<36 128 285 656> 581 156<285 757>
VStem: 128 157<157 191 348 384 541 581>
LayerCount: 2
Fore
SplineSet
285 157 m 1,0,-1
 757 157 l 1,1,-1
 757 0 l 1,2,-1
 276 0 l 2,3,4
 245 0 245 0 218 12 c 128,-1,5
 191 24 191 24 171.5 44.5 c 128,-1,6
 152 65 152 65 140 91.5 c 128,-1,7
 128 118 128 118 128 148 c 2,8,-1
 128 191 l 1,9,-1
 36 191 l 1,10,-1
 36 348 l 1,11,-1
 128 348 l 1,12,-1
 128 384 l 1,13,-1
 36 384 l 1,14,-1
 36 541 l 1,15,-1
 128 541 l 1,16,-1
 128 589 l 2,17,18
 128 620 128 620 140 647 c 128,-1,19
 152 674 152 674 171.5 694 c 128,-1,20
 191 714 191 714 218.5 725.5 c 128,-1,21
 246 737 246 737 276 737 c 2,22,-1
 757 737 l 1,23,-1
 757 581 l 1,24,-1
 285 581 l 1,25,-1
 285 541 l 1,26,-1
 656 541 l 1,27,-1
 656 384 l 1,28,-1
 285 384 l 1,29,-1
 285 348 l 1,30,-1
 656 348 l 1,31,-1
 656 191 l 1,32,-1
 285 191 l 1,33,-1
 285 157 l 1,0,-1
EndSplineSet
EndChar

StartChar: F
Encoding: 70 70 24
Width: 740
Flags: W
HStem: 0 21G<59 220> 289 160<220 639> 578 159<220 740>
VStem: 59 161<0 289 449 578>
LayerCount: 2
Fore
SplineSet
740 737 m 1,0,-1
 740 578 l 1,1,-1
 220 578 l 1,2,-1
 220 449 l 1,3,-1
 639 449 l 1,4,-1
 639 289 l 1,5,-1
 220 289 l 1,6,-1
 220 0 l 1,7,-1
 59 0 l 1,8,-1
 59 737 l 1,9,-1
 740 737 l 1,0,-1
EndSplineSet
EndChar

StartChar: G
Encoding: 71 71 25
Width: 849
Flags: W
HStem: 0 160<216 634> 270 160<474 634> 578 159<216 634>
VStem: 57 159<160 578> 634 161<160 270 516 578>
LayerCount: 2
Fore
SplineSet
795 516 m 1,0,-1
 634 516 l 1,1,-1
 634 578 l 1,2,-1
 216 578 l 1,3,-1
 216 160 l 1,4,-1
 634 160 l 1,5,-1
 634 270 l 1,6,-1
 474 270 l 1,7,-1
 474 430 l 1,8,-1
 795 430 l 1,9,-1
 795 152 l 2,10,11
 795 120 795 120 782.5 92.5 c 128,-1,12
 770 65 770 65 749.5 44.5 c 128,-1,13
 729 24 729 24 701.5 12 c 128,-1,14
 674 0 674 0 642 0 c 2,15,-1
 209 0 l 2,16,17
 177 0 177 0 149.5 12 c 128,-1,18
 122 24 122 24 101.5 44.5 c 128,-1,19
 81 65 81 65 69 92.5 c 128,-1,20
 57 120 57 120 57 152 c 2,21,-1
 57 586 l 2,22,23
 57 618 57 618 69 645.5 c 128,-1,24
 81 673 81 673 101.5 693.5 c 128,-1,25
 122 714 122 714 149.5 725.5 c 128,-1,26
 177 737 177 737 209 737 c 2,27,-1
 642 737 l 2,28,29
 674 737 674 737 701.5 725.5 c 128,-1,30
 729 714 729 714 749.5 693.5 c 128,-1,31
 770 673 770 673 782.5 645 c 128,-1,32
 795 617 795 617 795 586 c 2,33,-1
 795 516 l 1,0,-1
EndSplineSet
EndChar

StartChar: H
Encoding: 72 72 26
Width: 871
Flags: W
HStem: 0 21G<58 217 652 811> 289 160<217 652> 717 20G<58 217 652 811>
VStem: 58 159<0 289 449 737> 652 159<0 289 449 737>
LayerCount: 2
Fore
SplineSet
811 737 m 1,0,-1
 811 0 l 1,1,-1
 652 0 l 1,2,-1
 652 289 l 1,3,-1
 217 289 l 1,4,-1
 217 0 l 1,5,-1
 58 0 l 1,6,-1
 58 737 l 1,7,-1
 217 737 l 1,8,-1
 217 449 l 1,9,-1
 652 449 l 1,10,-1
 652 737 l 1,11,-1
 811 737 l 1,0,-1
EndSplineSet
EndChar

StartChar: I
Encoding: 73 73 27
Width: 225
Flags: W
HStem: 0 21G<58 218> 717 20G<58 218>
VStem: 58 160<0 737>
LayerCount: 2
Fore
SplineSet
58 737 m 1,0,-1
 218 737 l 1,1,-1
 218 0 l 1,2,-1
 58 0 l 1,3,-1
 58 737 l 1,0,-1
EndSplineSet
Substitution2: "'salt' Stylistic Alternatives in Latin lookup 2 subtable" I.alt
Substitution2: "'aalt' Access All Alternates in Latin lookup 0 subtable" I.alt
EndChar

StartChar: I.alt
Encoding: 65541 -1 28
Width: 837
Flags: W
HStem: 0 160<50 339 499 787> 578 159<50 339 499 787>
VStem: 339 160<160 578>
LayerCount: 2
Fore
SplineSet
787 578 m 1,0,-1
 499 578 l 1,1,-1
 499 160 l 1,2,-1
 787 160 l 1,3,-1
 787 0 l 1,4,-1
 50 0 l 1,5,-1
 50 160 l 1,6,-1
 339 160 l 1,7,-1
 339 578 l 1,8,-1
 50 578 l 1,9,-1
 50 737 l 1,10,-1
 787 737 l 1,11,-1
 787 578 l 1,0,-1
EndSplineSet
EndChar

StartChar: J
Encoding: 74 74 33
Width: 798
Flags: W
HStem: 0 160<163 581> 717 20G<581 741>
VStem: 4 159<160 247> 581 160<160 737>
LayerCount: 2
Fore
SplineSet
163 160 m 1,0,-1
 581 160 l 1,1,-1
 581 737 l 1,2,-1
 741 737 l 1,3,-1
 741 152 l 2,4,5
 741 120 741 120 729.5 92.5 c 128,-1,6
 718 65 718 65 697 44.5 c 128,-1,7
 676 24 676 24 648.5 12 c 128,-1,8
 621 0 621 0 590 0 c 2,9,-1
 156 0 l 2,10,11
 124 0 124 0 96.5 12 c 128,-1,12
 69 24 69 24 48.5 44.5 c 128,-1,13
 28 65 28 65 16 92.5 c 128,-1,14
 4 120 4 120 4 152 c 2,15,-1
 4 247 l 1,16,-1
 163 247 l 1,17,-1
 163 160 l 1,0,-1
EndSplineSet
Substitution2: "'salt' Stylistic Alternatives in Latin lookup 2 subtable" J.alt
Substitution2: "'aalt' Access All Alternates in Latin lookup 0 subtable" J.alt
EndChar

StartChar: J.alt
Encoding: 65542 -1 34
Width: 660
Flags: W
HStem: 0 160<3 458> 717 20G<458 618>
VStem: 458 160<160 737>
LayerCount: 2
Fore
SplineSet
3 160 m 1,0,-1
 458 160 l 1,1,-1
 458 737 l 1,2,-1
 618 737 l 1,3,-1
 618 152 l 2,4,5
 618 120 618 120 606 92.5 c 128,-1,6
 594 65 594 65 573.5 44.5 c 128,-1,7
 553 24 553 24 525 12 c 128,-1,8
 497 0 497 0 466 0 c 2,9,-1
 3 0 l 1,10,-1
 3 160 l 1,0,-1
EndSplineSet
EndChar

StartChar: K
Encoding: 75 75 35
Width: 816
Flags: W
HStem: 0 21G<58 218 587.253 770> 289 160<218 362> 717 20G<58 218 587.352 770>
VStem: 58 160<0 289 449 737>
LayerCount: 2
Fore
SplineSet
770 737 m 1,0,-1
 770 682 l 1,1,-1
 507 369 l 1,2,3
 572 291 572 291 639 211.5 c 128,-1,4
 706 132 706 132 770 55 c 1,5,-1
 770 0 l 1,6,-1
 604 0 l 1,7,-1
 362 289 l 1,8,-1
 218 289 l 1,9,-1
 218 0 l 1,10,-1
 58 0 l 1,11,-1
 58 737 l 1,12,-1
 218 737 l 1,13,-1
 218 449 l 1,14,-1
 362 449 l 1,15,16
 386 476 386 476 408.5 503 c 128,-1,17
 431 530 431 530 455 558 c 2,18,-1
 604 737 l 1,19,-1
 770 737 l 1,0,-1
EndSplineSet
Substitution2: "'salt' Stylistic Alternatives in Latin lookup 2 subtable" K.alt
Substitution2: "'aalt' Access All Alternates in Latin lookup 0 subtable" K.alt
EndChar

StartChar: K.alt
Encoding: 65543 -1 36
Width: 848
Flags: W
HStem: 0 21G<55 214 632 793> 286 159<214 632> 717 20G<55 214 633 794>
VStem: 55 159<0 286 445 737> 633 161<0 285.48 445.11 737>
LayerCount: 2
Fore
SplineSet
214 445 m 1,0,-1
 633 445 l 1,1,-1
 633 737 l 1,2,-1
 794 737 l 1,3,-1
 794 456 l 2,4,5
 794 431 794 431 778 407 c 128,-1,6
 762 383 762 383 734 366 c 1,7,8
 763 349 763 349 778 325 c 128,-1,9
 793 301 793 301 793 275 c 2,10,-1
 793 0 l 1,11,-1
 632 0 l 1,12,-1
 632 286 l 1,13,-1
 214 286 l 1,14,-1
 214 0 l 1,15,-1
 55 0 l 1,16,-1
 55 737 l 1,17,-1
 214 737 l 1,18,-1
 214 445 l 1,0,-1
EndSplineSet
EndChar

StartChar: L
Encoding: 76 76 37
Width: 797
Flags: W
HStem: 0 160<217 796> 718 20G<58 217>
VStem: 58 159<160 738>
LayerCount: 2
Fore
SplineSet
58 738 m 1,0,-1
 217 738 l 1,1,-1
 217 160 l 1,2,-1
 796 160 l 1,3,-1
 796 0 l 1,4,-1
 58 0 l 1,5,-1
 58 738 l 1,0,-1
EndSplineSet
EndChar

StartChar: M
Encoding: 77 77 38
Width: 950
Flags: W
HStem: 0 21G<57 216 725 885> 717 20G<57 237.779 703.289 885>
VStem: 57 159<0 494> 725 160<0 495>
LayerCount: 2
Fore
SplineSet
720 737 m 1,0,-1
 885 737 l 1,1,-1
 885 0 l 1,2,-1
 725 0 l 1,3,-1
 725 495 l 1,4,5
 663 421 663 421 597.5 342.5 c 128,-1,6
 532 264 532 264 471 191 c 1,7,-1
 216 494 l 1,8,-1
 216 0 l 1,9,-1
 57 0 l 1,10,-1
 57 737 l 1,11,-1
 221 737 l 1,12,-1
 471 439 l 1,13,-1
 720 737 l 1,0,-1
EndSplineSet
Substitution2: "'salt' Stylistic Alternatives in Latin lookup 2 subtable" M.alt
Substitution2: "'aalt' Access All Alternates in Latin lookup 0 subtable" M.alt
EndChar

StartChar: M.alt
Encoding: 65544 -1 39
Width: 1182
Flags: W
HStem: 0 21G<55 214 487 647 942 1102> 578 159<214 487 647 942>
VStem: 55 159<0 578> 487 160<0 578> 942 160<0 578>
LayerCount: 2
Fore
SplineSet
951 737 m 2,0,1
 982 737 982 737 1009 725.5 c 128,-1,2
 1036 714 1036 714 1057 693.5 c 128,-1,3
 1078 673 1078 673 1090 645 c 128,-1,4
 1102 617 1102 617 1102 586 c 2,5,-1
 1102 0 l 1,6,-1
 942 0 l 1,7,-1
 942 578 l 1,8,-1
 647 578 l 1,9,-1
 647 0 l 1,10,-1
 487 0 l 1,11,-1
 487 578 l 1,12,-1
 214 578 l 1,13,-1
 214 0 l 1,14,-1
 55 0 l 1,15,-1
 55 737 l 1,16,-1
 951 737 l 2,0,1
EndSplineSet
EndChar

StartChar: N
Encoding: 78 78 40
Width: 851
Flags: W
HStem: 0 21G<57 216 614.198 795> 717 20G<57 237.823 634 795>
VStem: 57 159<0 494> 634 161<246 737>
LayerCount: 2
Fore
SplineSet
634 737 m 1,0,-1
 795 737 l 1,1,-1
 795 0 l 1,2,-1
 631 0 l 1,3,-1
 216 494 l 1,4,-1
 216 0 l 1,5,-1
 57 0 l 1,6,-1
 57 737 l 1,7,-1
 221 737 l 1,8,-1
 634 246 l 1,9,-1
 634 737 l 1,0,-1
EndSplineSet
Substitution2: "'salt' Stylistic Alternatives in Latin lookup 2 subtable" N.alt
Substitution2: "'aalt' Access All Alternates in Latin lookup 0 subtable" N.alt
EndChar

StartChar: N.alt
Encoding: 65545 -1 41
Width: 846
Flags: W
HStem: 0 21G<55 214 632 793> 578 159<214 632>
VStem: 55 159<0 578> 632 161<0 578>
LayerCount: 2
Fore
SplineSet
55 0 m 1,0,-1
 55 737 l 1,1,-1
 641 737 l 2,2,3
 672 737 672 737 699.5 725.5 c 128,-1,4
 727 714 727 714 748 693.5 c 128,-1,5
 769 673 769 673 781 645 c 128,-1,6
 793 617 793 617 793 586 c 2,7,-1
 793 0 l 1,8,-1
 632 0 l 1,9,-1
 632 578 l 1,10,-1
 214 578 l 1,11,-1
 214 0 l 1,12,-1
 55 0 l 1,0,-1
EndSplineSet
EndChar

StartChar: O
Encoding: 79 79 43
Width: 847
Flags: W
HStem: 0 160<214 632> 578 159<214 632>
VStem: 55 159<160 578> 632 161<160 578>
LayerCount: 2
Fore
SplineSet
641 737 m 2,0,1
 672 737 672 737 699.5 725.5 c 128,-1,2
 727 714 727 714 748 693.5 c 128,-1,3
 769 673 769 673 781 645 c 128,-1,4
 793 617 793 617 793 586 c 2,5,-1
 793 152 l 2,6,7
 793 120 793 120 781 92.5 c 128,-1,8
 769 65 769 65 748 44.5 c 128,-1,9
 727 24 727 24 699.5 12 c 128,-1,10
 672 0 672 0 641 0 c 2,11,-1
 207 0 l 2,12,13
 175 0 175 0 147.5 12 c 128,-1,14
 120 24 120 24 99.5 44.5 c 128,-1,15
 79 65 79 65 67 92.5 c 128,-1,16
 55 120 55 120 55 152 c 2,17,-1
 55 586 l 2,18,19
 55 618 55 618 67 645.5 c 128,-1,20
 79 673 79 673 99.5 693.5 c 128,-1,21
 120 714 120 714 147.5 725.5 c 128,-1,22
 175 737 175 737 207 737 c 2,23,-1
 641 737 l 2,0,1
214 160 m 1,24,-1
 632 160 l 1,25,-1
 632 578 l 1,26,-1
 214 578 l 1,27,-1
 214 160 l 1,24,-1
EndSplineSet
Substitution2: "'salt' Stylistic Alternatives in Latin lookup 2 subtable" O.alt
Substitution2: "'aalt' Access All Alternates in Latin lookup 0 subtable" O.alt
EndChar

StartChar: O.alt
Encoding: 65546 -1 44
Width: 843
Flags: W
HStem: 0 160<212 630> 289 160<342 502> 578 159<212 630>
VStem: 53 159<160 578> 342 160<289 449> 630 161<160 578>
LayerCount: 2
Fore
SplineSet
639 737 m 2,0,1
 670 737 670 737 697.5 725.5 c 128,-1,2
 725 714 725 714 746 693.5 c 128,-1,3
 767 673 767 673 779 645 c 128,-1,4
 791 617 791 617 791 586 c 2,5,-1
 791 152 l 2,6,7
 791 120 791 120 779 92.5 c 128,-1,8
 767 65 767 65 746 44.5 c 128,-1,9
 725 24 725 24 697.5 12 c 128,-1,10
 670 0 670 0 639 0 c 2,11,-1
 205 0 l 2,12,13
 173 0 173 0 145.5 12 c 128,-1,14
 118 24 118 24 97.5 44.5 c 128,-1,15
 77 65 77 65 65 92.5 c 128,-1,16
 53 120 53 120 53 152 c 2,17,-1
 53 586 l 2,18,19
 53 618 53 618 65 645.5 c 128,-1,20
 77 673 77 673 97.5 693.5 c 128,-1,21
 118 714 118 714 145.5 725.5 c 128,-1,22
 173 737 173 737 205 737 c 2,23,-1
 639 737 l 2,0,1
212 160 m 1,24,-1
 630 160 l 1,25,-1
 630 578 l 1,26,-1
 212 578 l 1,27,-1
 212 160 l 1,24,-1
342 289 m 1,28,-1
 342 449 l 1,29,-1
 502 449 l 1,30,-1
 502 289 l 1,31,-1
 342 289 l 1,28,-1
EndSplineSet
EndChar

StartChar: OE
Encoding: 338 338 45
Width: 1406
Flags: W
HStem: 0 160<215 633 792 1313> 289 160<792 1210> 578 159<215 633 792 1313>
VStem: 54 161<160 578> 633 159<160 289 449 578>
LayerCount: 2
Fore
SplineSet
792 449 m 1,0,-1
 1210 449 l 1,1,-1
 1210 289 l 1,2,-1
 792 289 l 1,3,-1
 792 160 l 1,4,-1
 1313 160 l 1,5,-1
 1313 0 l 1,6,-1
 206 0 l 2,7,8
 175 0 175 0 147.5 12 c 128,-1,9
 120 24 120 24 99 44.5 c 128,-1,10
 78 65 78 65 66 92.5 c 128,-1,11
 54 120 54 120 54 152 c 2,12,-1
 54 586 l 2,13,14
 54 618 54 618 66 645.5 c 128,-1,15
 78 673 78 673 99 693.5 c 128,-1,16
 120 714 120 714 147.5 725.5 c 128,-1,17
 175 737 175 737 206 737 c 2,18,-1
 1313 737 l 1,19,-1
 1313 578 l 1,20,-1
 792 578 l 1,21,-1
 792 449 l 1,0,-1
215 160 m 1,22,-1
 633 160 l 1,23,-1
 633 578 l 1,24,-1
 215 578 l 1,25,-1
 215 160 l 1,22,-1
EndSplineSet
EndChar

StartChar: P
Encoding: 80 80 51
Width: 809
Flags: W
HStem: 0 21G<57 216> 236 6<216 219> 242 160<216 634> 578 158<216 634>
VStem: 57 159<0 241.999 402 578> 216 3<236 236.901> 634 161<402 578>
LayerCount: 2
Fore
SplineSet
642 736 m 2,0,1
 674 736 674 736 701.5 724.5 c 128,-1,2
 729 713 729 713 749.5 692 c 128,-1,3
 770 671 770 671 782.5 643 c 128,-1,4
 795 615 795 615 795 585 c 2,5,-1
 795 394 l 2,6,7
 795 363 795 363 782.5 335.5 c 128,-1,8
 770 308 770 308 749.5 287 c 128,-1,9
 729 266 729 266 701.5 254.5 c 128,-1,10
 674 243 674 243 642 243 c 2,11,-1
 216 242 l 2,12,13
 219 242 219 242 219 236 c 1,14,-1
 218 236 l 2,15,16
 216 236 216 236 216 237 c 2,17,-1
 216 0 l 1,18,-1
 57 0 l 1,19,-1
 57 736 l 1,20,-1
 642 736 l 2,0,1
216 402 m 1,21,-1
 634 402 l 1,22,-1
 634 578 l 1,23,-1
 216 578 l 1,24,-1
 216 402 l 1,21,-1
EndSplineSet
EndChar

StartChar: Q
Encoding: 81 81 52
Width: 905
Flags: W
HStem: 0 160<214 632 793 877> 578 159<214 632>
VStem: 55 159<160 578> 632 161<160 578>
LayerCount: 2
Fore
SplineSet
793 160 m 1,0,-1
 877 160 l 1,1,-1
 877 0 l 1,2,-1
 207 0 l 2,3,4
 175 0 175 0 147.5 12 c 128,-1,5
 120 24 120 24 99.5 44.5 c 128,-1,6
 79 65 79 65 67 92.5 c 128,-1,7
 55 120 55 120 55 152 c 2,8,-1
 55 586 l 2,9,10
 55 618 55 618 67 645.5 c 128,-1,11
 79 673 79 673 99.5 693.5 c 128,-1,12
 120 714 120 714 147.5 725.5 c 128,-1,13
 175 737 175 737 207 737 c 2,14,-1
 640 737 l 2,15,16
 672 737 672 737 699.5 725.5 c 128,-1,17
 727 714 727 714 747.5 693.5 c 128,-1,18
 768 673 768 673 780.5 645 c 128,-1,19
 793 617 793 617 793 586 c 2,20,-1
 793 160 l 1,0,-1
214 160 m 1,21,-1
 632 160 l 1,22,-1
 632 578 l 1,23,-1
 214 578 l 1,24,-1
 214 160 l 1,21,-1
EndSplineSet
Substitution2: "'salt' Stylistic Alternatives in Latin lookup 2 subtable" Q.alt
Substitution2: "'aalt' Access All Alternates in Latin lookup 0 subtable" Q.alt
EndChar

StartChar: Q.alt
Encoding: 65547 -1 53
Width: 888
Flags: W
HStem: 0 160<214 343 504 632> 578 159<214 632>
VStem: 55 159<160 578> 343 161<-123 0> 632 161<160 578>
LayerCount: 2
Fore
SplineSet
641 737 m 2,0,1
 672 737 672 737 699.5 725.5 c 128,-1,2
 727 714 727 714 748 693.5 c 128,-1,3
 769 673 769 673 781 645 c 128,-1,4
 793 617 793 617 793 586 c 2,5,-1
 793 152 l 2,6,7
 793 120 793 120 781 92.5 c 128,-1,8
 769 65 769 65 748 44.5 c 128,-1,9
 727 24 727 24 699.5 12 c 128,-1,10
 672 0 672 0 641 0 c 2,11,-1
 504 0 l 1,12,-1
 504 -123 l 1,13,-1
 343 -123 l 1,14,-1
 343 0 l 1,15,-1
 207 0 l 2,16,17
 175 0 175 0 147.5 12 c 128,-1,18
 120 24 120 24 99.5 44.5 c 128,-1,19
 79 65 79 65 67 92.5 c 128,-1,20
 55 120 55 120 55 152 c 2,21,-1
 55 586 l 2,22,23
 55 618 55 618 67 645.5 c 128,-1,24
 79 673 79 673 99.5 693.5 c 128,-1,25
 120 714 120 714 147.5 725.5 c 128,-1,26
 175 737 175 737 207 737 c 2,27,-1
 641 737 l 2,0,1
214 160 m 1,28,-1
 632 160 l 1,29,-1
 632 578 l 1,30,-1
 214 578 l 1,31,-1
 214 160 l 1,28,-1
EndSplineSet
EndChar

StartChar: R
Encoding: 82 82 54
Width: 844
Flags: W
HStem: 0 21G<56 215 613.21 794> 236 6<215 218> 243 159<215 426> 578 158<215 633>
VStem: 56 159<0 241.999 402 578> 215 3<236 236.901> 633 161<402 578>
LayerCount: 2
Fore
SplineSet
794 394 m 2,0,1
 794 363 794 363 781.5 335.5 c 128,-1,2
 769 308 769 308 748.5 287 c 128,-1,3
 728 266 728 266 700.5 254.5 c 128,-1,4
 673 243 673 243 641 243 c 2,5,-1
 634 243 l 1,6,7
 673 197 673 197 714 148.5 c 128,-1,8
 755 100 755 100 794 54 c 1,9,-1
 794 0 l 1,10,-1
 630 0 l 1,11,-1
 426 243 l 1,12,-1
 215 242 l 2,13,14
 218 242 218 242 218 236 c 1,15,-1
 217 236 l 2,16,17
 215 236 215 236 215 237 c 2,18,-1
 215 0 l 1,19,-1
 56 0 l 1,20,-1
 56 736 l 1,21,-1
 641 736 l 2,22,23
 673 736 673 736 700.5 724.5 c 128,-1,24
 728 713 728 713 748.5 692 c 128,-1,25
 769 671 769 671 781.5 643 c 128,-1,26
 794 615 794 615 794 585 c 2,27,-1
 794 394 l 2,0,1
215 402 m 1,28,-1
 633 402 l 1,29,-1
 633 578 l 1,30,-1
 215 578 l 1,31,-1
 215 402 l 1,28,-1
EndSplineSet
Substitution2: "'salt' Stylistic Alternatives in Latin lookup 2 subtable" R.alt
Substitution2: "'aalt' Access All Alternates in Latin lookup 0 subtable" R.alt
EndChar

StartChar: R.alt
Encoding: 65548 -1 55
Width: 845
Flags: W
HStem: 0 21G<55 214 632 793> 243 159<214 632> 578 160<214 632>
VStem: 55 159<0 243 402 578> 632 161<0 243 402 578>
LayerCount: 2
Fore
SplineSet
793 394 m 2,0,1
 793 369 793 369 783 351.5 c 128,-1,2
 773 334 773 334 758 323 c 1,3,4
 774 312 774 312 783.5 294 c 128,-1,5
 793 276 793 276 793 251 c 2,6,-1
 793 0 l 1,7,-1
 632 0 l 1,8,-1
 632 243 l 1,9,-1
 214 243 l 1,10,-1
 214 0 l 1,11,-1
 55 0 l 1,12,-1
 55 738 l 1,13,-1
 641 737 l 2,14,15
 672 737 672 737 699.5 725 c 128,-1,16
 727 713 727 713 748 692.5 c 128,-1,17
 769 672 769 672 781 643.5 c 128,-1,18
 793 615 793 615 793 585 c 2,19,-1
 793 394 l 2,0,1
214 402 m 1,20,-1
 632 402 l 1,21,-1
 632 578 l 1,22,-1
 214 578 l 1,23,-1
 214 402 l 1,20,-1
EndSplineSet
EndChar

StartChar: S
Encoding: 83 83 56
Width: 841
Flags: W
HStem: 0 160<211 629> 289 160<211 629> 578 159<211 629>
VStem: 52 159<160 220 449 578> 629 161<160 289 517 578>
LayerCount: 2
Fore
SplineSet
790 517 m 1,0,-1
 629 517 l 1,1,-1
 629 578 l 1,2,-1
 211 578 l 1,3,-1
 211 449 l 1,4,-1
 638 449 l 2,5,6
 669 449 669 449 696.5 437 c 128,-1,7
 724 425 724 425 745 404.5 c 128,-1,8
 766 384 766 384 778 356.5 c 128,-1,9
 790 329 790 329 790 297 c 2,10,-1
 790 152 l 2,11,12
 790 120 790 120 778 92.5 c 128,-1,13
 766 65 766 65 745 44.5 c 128,-1,14
 724 24 724 24 696.5 12 c 128,-1,15
 669 0 669 0 638 0 c 2,16,-1
 204 0 l 2,17,18
 172 0 172 0 144.5 12 c 128,-1,19
 117 24 117 24 96.5 44.5 c 128,-1,20
 76 65 76 65 64 92.5 c 128,-1,21
 52 120 52 120 52 152 c 2,22,-1
 52 220 l 1,23,-1
 211 220 l 1,24,-1
 211 160 l 1,25,-1
 629 160 l 1,26,-1
 629 289 l 1,27,-1
 204 289 l 2,28,29
 172 289 172 289 144.5 300.5 c 128,-1,30
 117 312 117 312 96.5 332.5 c 128,-1,31
 76 353 76 353 64 381 c 128,-1,32
 52 409 52 409 52 440 c 2,33,-1
 52 586 l 2,34,35
 52 618 52 618 64 645.5 c 128,-1,36
 76 673 76 673 96.5 693.5 c 128,-1,37
 117 714 117 714 144.5 725.5 c 128,-1,38
 172 737 172 737 204 737 c 2,39,-1
 638 737 l 2,40,41
 669 737 669 737 696.5 725.5 c 128,-1,42
 724 714 724 714 745 693.5 c 128,-1,43
 766 673 766 673 778 645 c 128,-1,44
 790 617 790 617 790 586 c 2,45,-1
 790 517 l 1,0,-1
EndSplineSet
Substitution2: "'salt' Stylistic Alternatives in Latin lookup 2 subtable" S.alt
Substitution2: "'aalt' Access All Alternates in Latin lookup 0 subtable" S.alt
EndChar

StartChar: S.alt
Encoding: 65549 -1 57
Width: 831
Flags: W
HStem: 0 160<47 625> 289 160<207 625> 578 159<207 784>
VStem: 47 160<449 578> 625 159<160 289>
LayerCount: 2
Fore
SplineSet
207 578 m 1,0,-1
 207 449 l 1,1,-1
 633 449 l 2,2,3
 664 449 664 449 691.5 437 c 128,-1,4
 719 425 719 425 740 404.5 c 128,-1,5
 761 384 761 384 772.5 356.5 c 128,-1,6
 784 329 784 329 784 297 c 2,7,-1
 784 152 l 2,8,9
 784 120 784 120 772.5 92.5 c 128,-1,10
 761 65 761 65 740 44.5 c 128,-1,11
 719 24 719 24 691.5 12 c 128,-1,12
 664 0 664 0 633 0 c 2,13,-1
 47 0 l 1,14,-1
 47 160 l 1,15,-1
 625 160 l 1,16,-1
 625 289 l 1,17,-1
 199 289 l 2,18,19
 167 289 167 289 139.5 300.5 c 128,-1,20
 112 312 112 312 91.5 332.5 c 128,-1,21
 71 353 71 353 59 381 c 128,-1,22
 47 409 47 409 47 440 c 2,23,-1
 47 586 l 2,24,25
 47 618 47 618 59 645.5 c 128,-1,26
 71 673 71 673 91.5 693.5 c 128,-1,27
 112 714 112 714 139.5 725.5 c 128,-1,28
 167 737 167 737 199 737 c 2,29,-1
 784 737 l 1,30,-1
 784 578 l 1,31,-1
 207 578 l 1,0,-1
EndSplineSet
EndChar

StartChar: T
Encoding: 84 84 59
Width: 777
Flags: W
HStem: 0 21G<309 469> 578 159<20 309 469 758>
VStem: 309 160<0 578>
LayerCount: 2
Fore
SplineSet
758 737 m 1,0,-1
 758 578 l 1,1,-1
 469 578 l 1,2,-1
 469 0 l 1,3,-1
 309 0 l 1,4,-1
 309 578 l 1,5,-1
 20 578 l 1,6,-1
 20 737 l 1,7,-1
 758 737 l 1,0,-1
EndSplineSet
EndChar

StartChar: U
Encoding: 85 85 60
Width: 847
Flags: W
HStem: 0 160<214 632> 717 20G<55 214 632 793>
VStem: 55 159<160 737> 632 161<160 737>
LayerCount: 2
Fore
SplineSet
214 160 m 1,0,-1
 632 160 l 1,1,-1
 632 737 l 1,2,-1
 793 737 l 1,3,-1
 793 152 l 2,4,5
 793 120 793 120 781 92.5 c 128,-1,6
 769 65 769 65 748 44.5 c 128,-1,7
 727 24 727 24 699.5 12 c 128,-1,8
 672 0 672 0 641 0 c 2,9,-1
 207 0 l 2,10,11
 175 0 175 0 147.5 12 c 128,-1,12
 120 24 120 24 99.5 44.5 c 128,-1,13
 79 65 79 65 67 92.5 c 128,-1,14
 55 120 55 120 55 152 c 2,15,-1
 55 737 l 1,16,-1
 214 737 l 1,17,-1
 214 160 l 1,0,-1
EndSplineSet
EndChar

StartChar: V
Encoding: 86 86 65
Width: 1027
Flags: W
HStem: 0 21G<451.412 606.588> 717 20G<36 231.551 827.411 1022>
LayerCount: 2
Fore
SplineSet
839 737 m 1,0,-1
 1022 737 l 1,1,-1
 595 0 l 1,2,-1
 463 0 l 1,3,-1
 36 737 l 1,4,-1
 220 737 l 1,5,-1
 529 202 l 1,6,-1
 839 737 l 1,0,-1
EndSplineSet
Substitution2: "'ss02' Style Set 2 in Latin lookup 5 subtable" V.alt2
Substitution2: "'ss01' Style Set 1 in Latin lookup 4 subtable" V.alt
Substitution2: "'salt' Stylistic Alternatives in Latin lookup 2 subtable" V.alt3
AlternateSubs2: "'aalt' Access All Alternates in Latin lookup 1 subtable" V.alt3 V.alt V.alt2
EndChar

StartChar: V.alt
Encoding: 57354 57354 66
Width: 792
Flags: W
HStem: 0 21G<55 232.756> 717 20G<55 212 603.581 779>
VStem: 55 157<240 737>
LayerCount: 2
Fore
SplineSet
212 737 m 1,0,-1
 212 240 l 1,1,-1
 620 737 l 1,2,-1
 779 737 l 1,3,-1
 779 672 l 1,4,-1
 216 0 l 1,5,-1
 55 0 l 1,6,-1
 55 737 l 1,7,-1
 212 737 l 1,0,-1
EndSplineSet
EndChar

StartChar: V.alt2
Encoding: 65550 -1 67
Width: 792
Flags: W
HStem: 0 21G<557.216 737> 717 20G<0 180.823 577 737>
VStem: 577 160<246 737>
LayerCount: 2
Fore
SplineSet
577 737 m 1,0,-1
 737 737 l 1,1,-1
 737 0 l 1,2,-1
 574 0 l 1,3,-1
 0 684 l 1,4,-1
 0 737 l 1,5,-1
 164 737 l 1,6,-1
 577 246 l 1,7,-1
 577 737 l 1,0,-1
EndSplineSet
EndChar

StartChar: V.alt3
Encoding: 65551 -1 68
Width: 846
Flags: W
HStem: 0 160<213 631> 717 20G<54 213 631 792>
VStem: 54 159<160 737> 631 161<160 737>
LayerCount: 2
Fore
SplineSet
792 737 m 1,0,-1
 792 0 l 1,1,-1
 206 0 l 2,2,3
 174 0 174 0 146.5 12 c 128,-1,4
 119 24 119 24 98.5 44.5 c 128,-1,5
 78 65 78 65 66 92.5 c 128,-1,6
 54 120 54 120 54 152 c 2,7,-1
 54 737 l 1,8,-1
 213 737 l 1,9,-1
 213 160 l 1,10,-1
 631 160 l 1,11,-1
 631 737 l 1,12,-1
 792 737 l 1,0,-1
EndSplineSet
EndChar

StartChar: W
Encoding: 87 87 69
Width: 1207
Flags: W
HStem: 0 21G<296.727 438.5 765.658 902.273> 717 20G<36 212.335 510 680.38 979 1163>
LayerCount: 2
Fore
SplineSet
1163 737 m 1,0,-1
 895 0 l 1,1,-1
 773 0 l 1,2,-1
 599 474 l 1,3,-1
 534 294 l 2,4,5
 507 222 507 222 479 146.5 c 128,-1,6
 451 71 451 71 426 0 c 1,7,-1
 304 0 l 1,8,-1
 36 737 l 1,9,-1
 205 737 l 1,10,-1
 366 298 l 1,11,-1
 391 367 l 2,12,13
 424 457 424 457 459 552 c 128,-1,14
 494 647 494 647 526 737 c 1,15,-1
 673 737 l 1,16,-1
 835 298 l 1,17,-1
 860 367 l 2,18,19
 893 457 893 457 928 552 c 128,-1,20
 963 647 963 647 995 737 c 1,21,-1
 1163 737 l 1,0,-1
EndSplineSet
Substitution2: "'ss02' Style Set 2 in Latin lookup 5 subtable" W.alt2
Substitution2: "'ss01' Style Set 1 in Latin lookup 4 subtable" W.alt
Substitution2: "'salt' Stylistic Alternatives in Latin lookup 2 subtable" W.alt4
AlternateSubs2: "'aalt' Access All Alternates in Latin lookup 1 subtable" W.alt4 W.alt W.alt2
EndChar

StartChar: W.alt
Encoding: 65552 -1 70
Width: 1176
Flags: W
HStem: 0 21G<82 262.783 439 618.813> 717 20G<82 242 638.212 819 995.252 1177>
VStem: 82 160<243 737>
LayerCount: 2
Fore
SplineSet
1177 737 m 1,0,-1
 1177 684 l 1,1,-1
 602 0 l 1,2,-1
 439 0 l 1,3,-1
 439 230 l 1,4,-1
 246 0 l 1,5,-1
 82 0 l 1,6,-1
 82 737 l 1,7,-1
 242 737 l 1,8,-1
 242 243 l 1,9,10
 277 284 277 284 311 325.5 c 128,-1,11
 345 367 345 367 379 407 c 1,12,-1
 378 407 l 1,13,-1
 655 737 l 1,14,-1
 819 737 l 1,15,-1
 819 683 l 1,16,-1
 599 423 l 1,17,-1
 599 243 l 1,18,19
 625 274 625 274 651.5 305.5 c 128,-1,20
 678 337 678 337 703 368 c 2,21,-1
 1012 737 l 1,22,-1
 1177 737 l 1,0,-1
EndSplineSet
EndChar

StartChar: W.alt2
Encoding: 65553 -1 71
Width: 1158
Flags: W
HStem: 0 21G<556.216 736 914.043 1094> 717 20G<-1 179.864 356 535.836 934 1094>
VStem: 934 160<244 737>
LayerCount: 2
Fore
SplineSet
577 246 m 1,0,-1
 577 423 l 1,1,-1
 356 683 l 1,2,-1
 356 737 l 1,3,-1
 519 737 l 1,4,-1
 934 244 l 1,5,-1
 934 737 l 1,6,-1
 1094 737 l 1,7,-1
 1094 0 l 1,8,-1
 931 0 l 1,9,-1
 736 230 l 1,10,-1
 736 0 l 1,11,-1
 573 0 l 1,12,-1
 -1 684 l 1,13,-1
 -1 737 l 1,14,-1
 163 737 l 1,15,-1
 577 246 l 1,0,-1
EndSplineSet
EndChar

StartChar: W.alt3
Encoding: 65554 -1 72
Width: 1052
Flags: W
HStem: 0 21G<55 234.807 801.193 981> 717 20G<55 214 821 981>
VStem: 55 159<245 737> 821 160<246 737>
LayerCount: 2
Fore
SplineSet
218 0 m 1,0,-1
 55 0 l 1,1,-1
 55 737 l 1,2,-1
 214 737 l 1,3,-1
 214 245 l 1,4,-1
 519 605 l 1,5,-1
 821 246 l 1,6,-1
 821 737 l 1,7,-1
 981 737 l 1,8,-1
 981 0 l 1,9,-1
 818 0 l 1,10,-1
 518 357 l 1,11,-1
 218 0 l 1,0,-1
EndSplineSet
EndChar

StartChar: W.alt4
Encoding: 65555 -1 73
Width: 1182
Flags: W
HStem: 0 160<213 509 669 941> 717 20G<54 213 509 669 941 1101>
VStem: 54 159<160 737> 509 160<160 737> 941 160<160 737>
LayerCount: 2
Fore
SplineSet
206 0 m 2,0,1
 174 0 174 0 146.5 12 c 128,-1,2
 119 24 119 24 98.5 44.5 c 128,-1,3
 78 65 78 65 66 92.5 c 128,-1,4
 54 120 54 120 54 152 c 2,5,-1
 54 737 l 1,6,-1
 213 737 l 1,7,-1
 213 160 l 1,8,-1
 509 160 l 1,9,-1
 509 737 l 1,10,-1
 669 737 l 1,11,-1
 669 160 l 1,12,-1
 941 160 l 1,13,-1
 941 737 l 1,14,-1
 1101 737 l 1,15,-1
 1101 0 l 1,16,-1
 206 0 l 2,0,1
EndSplineSet
EndChar

StartChar: X
Encoding: 88 88 74
Width: 831
Flags: W
HStem: 0 21G<47 224 603.058 784> 717 20G<47 228.942 608 784>
LayerCount: 2
Fore
SplineSet
784 737 m 1,0,-1
 784 683 l 1,1,-1
 520 369 l 1,2,-1
 784 55 l 1,3,-1
 784 0 l 1,4,-1
 620 0 l 1,5,-1
 415 242 l 1,6,7
 393 216 393 216 367.5 186 c 128,-1,8
 342 156 342 156 315.5 124 c 128,-1,9
 289 92 289 92 262.5 60.5 c 128,-1,10
 236 29 236 29 212 0 c 1,11,-1
 47 0 l 1,12,-1
 47 54 l 1,13,-1
 310 369 l 1,14,15
 245 447 245 447 179 526.5 c 128,-1,16
 113 606 113 606 47 683 c 1,17,-1
 47 737 l 1,18,-1
 212 737 l 1,19,-1
 417 495 l 1,20,21
 437 521 437 521 462.5 551.5 c 128,-1,22
 488 582 488 582 515 613 c 128,-1,23
 542 644 542 644 569 676 c 128,-1,24
 596 708 596 708 620 737 c 1,25,-1
 784 737 l 1,0,-1
EndSplineSet
Substitution2: "'salt' Stylistic Alternatives in Latin lookup 2 subtable" X.alt
Substitution2: "'aalt' Access All Alternates in Latin lookup 0 subtable" X.alt
EndChar

StartChar: X.alt
Encoding: 65556 -1 75
Width: 848
Flags: W
HStem: 0 21G<56 215 632 793> 286 159<215 632> 717 20G<55 214 633 794>
VStem: 55 159<0 285.342 445.155 737> 633 161<0 285.825 445.336 737>
LayerCount: 2
Fore
SplineSet
794 737 m 1,0,-1
 794 456 l 2,1,2
 794 427 794 427 778.5 404 c 128,-1,3
 763 381 763 381 736 366 c 1,4,5
 792 334 792 334 793 275 c 2,6,-1
 793 0 l 1,7,-1
 632 0 l 1,8,-1
 632 286 l 1,9,-1
 215 286 l 1,10,-1
 215 0 l 1,11,-1
 56 0 l 1,12,-1
 56 275 l 2,13,14
 56 303 56 303 71.5 326.5 c 128,-1,15
 87 350 87 350 112 366 c 1,16,17
 89 381 89 381 72 405 c 128,-1,18
 55 429 55 429 55 456 c 2,19,-1
 55 737 l 1,20,-1
 214 737 l 1,21,-1
 214 445 l 1,22,-1
 633 445 l 1,23,-1
 633 737 l 1,24,-1
 794 737 l 1,0,-1
EndSplineSet
EndChar

StartChar: Y
Encoding: 89 89 76
Width: 825
Flags: W
HStem: 0 21G<358 518> 717 20G<17 222.876 641 860>
VStem: 358 160<0 274>
LayerCount: 2
Fore
SplineSet
860 737 m 1,0,-1
 518 274 l 1,1,-1
 518 0 l 1,2,-1
 358 0 l 1,3,-1
 358 275 l 1,4,-1
 224 456 l 2,5,6
 199 488 199 488 172 525 c 128,-1,7
 145 562 145 562 118 599.5 c 128,-1,8
 91 637 91 637 65 672.5 c 128,-1,9
 39 708 39 708 17 737 c 1,10,-1
 207 737 l 1,11,-1
 438 446 l 1,12,13
 494 517 494 517 553.5 592 c 128,-1,14
 613 667 613 667 669 737 c 1,15,-1
 860 737 l 1,0,-1
EndSplineSet
Substitution2: "'salt' Stylistic Alternatives in Latin lookup 2 subtable" Y.alt
Substitution2: "'aalt' Access All Alternates in Latin lookup 0 subtable" Y.alt
EndChar

StartChar: Y.alt
Encoding: 65557 -1 77
Width: 843
Flags: W
HStem: 0 160<52 629> 289 160<211 629> 717 20G<52 211 629 790>
VStem: 52 159<449 737> 629 161<160 289 449 737>
LayerCount: 2
Fore
SplineSet
790 737 m 1,0,-1
 790 152 l 2,1,2
 790 120 790 120 778 92.5 c 128,-1,3
 766 65 766 65 745 44.5 c 128,-1,4
 724 24 724 24 696.5 12 c 128,-1,5
 669 0 669 0 638 0 c 2,6,-1
 52 0 l 1,7,-1
 52 160 l 1,8,-1
 629 160 l 1,9,-1
 629 289 l 1,10,-1
 204 289 l 2,11,12
 172 289 172 289 144.5 300.5 c 128,-1,13
 117 312 117 312 96.5 332.5 c 128,-1,14
 76 353 76 353 64 381 c 128,-1,15
 52 409 52 409 52 440 c 2,16,-1
 52 737 l 1,17,-1
 211 737 l 1,18,-1
 211 449 l 1,19,-1
 629 449 l 1,20,-1
 629 737 l 1,21,-1
 790 737 l 1,0,-1
EndSplineSet
EndChar

StartChar: Z
Encoding: 90 90 80
Width: 840
Flags: W
HStem: 0 160<296 790> 578 159<52 546>
LayerCount: 2
Fore
SplineSet
52 737 m 1,0,-1
 790 737 l 1,1,-1
 790 574 l 1,2,-1
 296 160 l 1,3,-1
 790 160 l 1,4,-1
 790 0 l 1,5,-1
 52 0 l 1,6,-1
 52 163 l 1,7,-1
 546 578 l 1,8,-1
 52 578 l 1,9,-1
 52 737 l 1,0,-1
EndSplineSet
Substitution2: "'salt' Stylistic Alternatives in Latin lookup 2 subtable" Z.alt
Substitution2: "'aalt' Access All Alternates in Latin lookup 0 subtable" Z.alt
EndChar

StartChar: Z.alt
Encoding: 65558 -1 81
Width: 837
Flags: W
HStem: 0 160<209 787> 289 160<209 627> 578 159<50 627>
VStem: 50 159<160 289> 627 160<449 578>
LayerCount: 2
Fore
SplineSet
627 449 m 1,0,-1
 627 578 l 1,1,-1
 50 578 l 1,2,-1
 50 737 l 1,3,-1
 636 737 l 2,4,5
 667 737 667 737 694.5 725.5 c 128,-1,6
 722 714 722 714 743 693.5 c 128,-1,7
 764 673 764 673 775.5 645 c 128,-1,8
 787 617 787 617 787 586 c 2,9,-1
 787 440 l 2,10,11
 787 408 787 408 775.5 380.5 c 128,-1,12
 764 353 764 353 743 332.5 c 128,-1,13
 722 312 722 312 694.5 300.5 c 128,-1,14
 667 289 667 289 636 289 c 2,15,-1
 209 289 l 1,16,-1
 209 160 l 1,17,-1
 787 160 l 1,18,-1
 787 0 l 1,19,-1
 202 0 l 2,20,21
 170 0 170 0 142.5 12 c 128,-1,22
 115 24 115 24 94.5 44.5 c 128,-1,23
 74 65 74 65 62 92.5 c 128,-1,24
 50 120 50 120 50 152 c 2,25,-1
 50 297 l 2,26,27
 50 329 50 329 62 356.5 c 128,-1,28
 74 384 74 384 94.5 404.5 c 128,-1,29
 115 425 115 425 142.5 437 c 128,-1,30
 170 449 170 449 202 449 c 2,31,-1
 627 449 l 1,0,-1
EndSplineSet
EndChar

StartChar: a
Encoding: 97 97 83
Width: 710
Flags: W
HStem: 0 157<210 499> 239 137<210 499> 437 157<53 499>
VStem: 53 157<157 239> 499 156<157 239 376 437>
LayerCount: 2
Fore
SplineSet
507 594 m 2,0,1
 538 594 538 594 565 582 c 128,-1,2
 592 570 592 570 612 549.5 c 128,-1,3
 632 529 632 529 643.5 502.5 c 128,-1,4
 655 476 655 476 655 445 c 2,5,-1
 655 0 l 1,6,-1
 202 0 l 2,7,8
 171 0 171 0 144 12 c 128,-1,9
 117 24 117 24 97 44.5 c 128,-1,10
 77 65 77 65 65 91.5 c 128,-1,11
 53 118 53 118 53 148 c 2,12,-1
 53 376 l 1,13,-1
 499 376 l 1,14,-1
 499 437 l 1,15,-1
 53 437 l 1,16,-1
 53 594 l 1,17,-1
 507 594 l 2,0,1
499 239 m 1,18,-1
 210 239 l 1,19,-1
 210 157 l 1,20,-1
 499 157 l 1,21,-1
 499 239 l 1,18,-1
EndSplineSet
Substitution2: "'smcp' Lowercase to Small Capitals in Latin lookup 3 subtable" a.sc
Substitution2: "'salt' Stylistic Alternatives in Latin lookup 2 subtable" a.alt
AlternateSubs2: "'aalt' Access All Alternates in Latin lookup 1 subtable" a.sc a.alt
EndChar

StartChar: a.alt
Encoding: 65559 -1 84
Width: 709
Flags: W
HStem: 0 157<209 498> 437 157<209 498>
VStem: 52 157<157 437> 498 156<157 437>
LayerCount: 2
Fore
SplineSet
506 594 m 2,0,1
 537 594 537 594 564 582 c 128,-1,2
 591 570 591 570 611 549.5 c 128,-1,3
 631 529 631 529 642.5 502.5 c 128,-1,4
 654 476 654 476 654 445 c 2,5,-1
 654 0 l 1,6,-1
 201 0 l 2,7,8
 170 0 170 0 143.5 12 c 128,-1,9
 117 24 117 24 96.5 44.5 c 128,-1,10
 76 65 76 65 64 91.5 c 128,-1,11
 52 118 52 118 52 148 c 2,12,-1
 52 445 l 2,13,14
 52 476 52 476 64 502.5 c 128,-1,15
 76 529 76 529 96.5 549.5 c 128,-1,16
 117 570 117 570 143.5 582 c 128,-1,17
 170 594 170 594 201 594 c 2,18,-1
 506 594 l 2,0,1
498 157 m 1,19,-1
 498 437 l 1,20,-1
 209 437 l 1,21,-1
 209 157 l 1,22,-1
 498 157 l 1,19,-1
EndSplineSet
EndChar

StartChar: a.sc
Encoding: 65560 -1 85
Width: 742
Flags: W
HStem: 0 21G<54 211 528 685> 141 157<211 528> 437 157<211 528>
VStem: 54 157<0 141 298 437> 528 157<0 141 298 437>
LayerCount: 2
Fore
SplineSet
537 594 m 2,0,1
 568 594 568 594 595 582 c 128,-1,2
 622 570 622 570 642 549.5 c 128,-1,3
 662 529 662 529 673.5 502.5 c 128,-1,4
 685 476 685 476 685 445 c 2,5,-1
 685 0 l 1,6,-1
 528 0 l 1,7,-1
 528 141 l 1,8,-1
 211 141 l 1,9,-1
 211 0 l 1,10,-1
 54 0 l 1,11,-1
 54 445 l 2,12,13
 54 476 54 476 66 502.5 c 128,-1,14
 78 529 78 529 98.5 549.5 c 128,-1,15
 119 570 119 570 146 582 c 128,-1,16
 173 594 173 594 204 594 c 2,17,-1
 537 594 l 2,0,1
528 298 m 1,18,-1
 528 437 l 1,19,-1
 211 437 l 1,20,-1
 211 298 l 1,21,-1
 528 298 l 1,18,-1
EndSplineSet
EndChar

StartChar: acute
Encoding: 180 180 88
Width: 218
Flags: W
HStem: 765 208<86 195>
VStem: 34 213
LayerCount: 2
Fore
SplineSet
86 973 m 1,0,-1
 247 973 l 1,1,-1
 195 765 l 1,2,-1
 34 765 l 1,3,-1
 86 973 l 1,0,-1
EndSplineSet
EndChar

StartChar: ae
Encoding: 230 230 90
Width: 1206
Flags: W
HStem: 0 157<211 501 657 1103> 218 137<657 946> 239 137<211 501> 437 157<54 501 657 946>
VStem: 54 157<157 239> 501 156<157 218 376 437> 946 157<355 437>
LayerCount: 2
Fore
SplineSet
955 594 m 2,0,1
 986 594 986 594 1012.5 582 c 128,-1,2
 1039 570 1039 570 1059 549.5 c 128,-1,3
 1079 529 1079 529 1091 502.5 c 128,-1,4
 1103 476 1103 476 1103 445 c 2,5,-1
 1103 218 l 1,6,-1
 657 218 l 1,7,-1
 657 157 l 1,8,-1
 1103 157 l 1,9,-1
 1103 0 l 1,10,-1
 203 0 l 2,11,12
 172 0 172 0 145 12 c 128,-1,13
 118 24 118 24 98 44.5 c 128,-1,14
 78 65 78 65 66 91.5 c 128,-1,15
 54 118 54 118 54 148 c 2,16,-1
 54 376 l 1,17,-1
 501 376 l 1,18,-1
 501 437 l 1,19,-1
 54 437 l 1,20,-1
 54 594 l 1,21,-1
 955 594 l 2,0,1
501 239 m 1,22,-1
 211 239 l 1,23,-1
 211 157 l 1,24,-1
 501 157 l 1,25,-1
 501 239 l 1,22,-1
946 355 m 1,26,-1
 946 437 l 1,27,-1
 657 437 l 1,28,-1
 657 355 l 1,29,-1
 946 355 l 1,26,-1
EndSplineSet
EndChar

StartChar: ampersand
Encoding: 38 38 92
Width: 960
Flags: W
HStem: 0 157<211 549> 579 157<248 593>
VStem: 54 157<157 327> 91 157<468 579> 621 156<281 378>
LayerCount: 2
Fore
SplineSet
895 143 m 1,0,-1
 895 -18 l 1,1,-1
 752 63 l 1,2,3
 732 34 732 34 699 17 c 128,-1,4
 666 0 666 0 629 0 c 2,5,-1
 203 0 l 2,6,7
 172 0 172 0 145 12 c 128,-1,8
 118 24 118 24 98 44.5 c 128,-1,9
 78 65 78 65 66 91.5 c 128,-1,10
 54 118 54 118 54 148 c 2,11,-1
 54 338 l 2,12,13
 54 358 54 358 64.5 383.5 c 128,-1,14
 75 409 75 409 98 424 c 1,15,16
 93 437 93 437 92 450.5 c 128,-1,17
 91 464 91 464 91 478 c 2,18,-1
 91 588 l 2,19,20
 91 619 91 619 103 646 c 128,-1,21
 115 673 115 673 135.5 693 c 128,-1,22
 156 713 156 713 182.5 724.5 c 128,-1,23
 209 736 209 736 240 736 c 2,24,-1
 601 736 l 2,25,26
 629 736 629 736 653.5 727 c 128,-1,27
 678 718 678 718 698 701.5 c 128,-1,28
 718 685 718 685 731 662.5 c 128,-1,29
 744 640 744 640 750 614 c 1,30,-1
 750 524 l 1,31,-1
 593 524 l 1,32,-1
 593 579 l 1,33,-1
 248 579 l 1,34,-1
 248 468 l 1,35,-1
 621 281 l 1,36,-1
 621 378 l 1,37,-1
 777 378 l 1,38,-1
 777 213 l 1,39,-1
 895 143 l 1,0,-1
442 210 m 0,40,41
 387 238 387 238 327 268.5 c 128,-1,42
 267 299 267 299 211 327 c 1,43,-1
 211 157 l 1,44,-1
 549 157 l 1,45,46
 522 171 522 171 495.5 183.5 c 128,-1,47
 469 196 469 196 442 210 c 0,40,41
EndSplineSet
EndChar

StartChar: asciitilde
Encoding: 126 126 94
Width: 413
Flags: W
HStem: 215 118<245.387 384.496> 278 118<50.3601 190.427>
LayerCount: 2
Fore
SplineSet
310 333 m 1,0,1
 327 333 327 333 350.5 340 c 128,-1,2
 374 347 374 347 409 370 c 1,3,-1
 409 241 l 1,4,5
 385 231 385 231 359.5 223 c 128,-1,6
 334 215 334 215 307 215 c 0,7,8
 279 215 279 215 255.5 224.5 c 128,-1,9
 232 234 232 234 209.5 246 c 128,-1,10
 187 258 187 258 164 268 c 128,-1,11
 141 278 141 278 116 278 c 0,12,13
 104 278 104 278 82 271.5 c 128,-1,14
 60 265 60 265 25 238 c 1,15,-1
 25 373 l 1,16,17
 49 383 49 383 73.5 389.5 c 128,-1,18
 98 396 98 396 122 396 c 0,19,20
 149 396 149 396 172 388 c 128,-1,21
 195 380 195 380 217 369 c 128,-1,22
 239 358 239 358 261.5 347.5 c 128,-1,23
 284 337 284 337 310 333 c 1,0,1
EndSplineSet
EndChar

StartChar: asterisk
Encoding: 42 42 95
Width: 528
Flags: W
VStem: 185 158<604 723>
LayerCount: 2
Fore
SplineSet
504 490 m 1,0,-1
 391 455 l 1,1,-1
 462 359 l 1,2,-1
 336 267 l 1,3,-1
 263 362 l 1,4,-1
 196 267 l 1,5,-1
 68 359 l 1,6,-1
 138 455 l 1,7,-1
 26 490 l 1,8,-1
 74 642 l 1,9,-1
 185 604 l 1,10,-1
 185 723 l 1,11,-1
 343 723 l 1,12,-1
 343 604 l 1,13,14
 348 605 348 605 354.5 607.5 c 128,-1,15
 361 610 361 610 373 613.5 c 128,-1,16
 385 617 385 617 404.5 624 c 128,-1,17
 424 631 424 631 456 642 c 1,18,-1
 504 490 l 1,0,-1
EndSplineSet
EndChar

StartChar: at
Encoding: 64 64 96
Width: 850
Flags: W
HStem: 0 157<215 782> 221 118<370.597 472 581 626> 423 108<370.597 471.391> 581 156<215 626>
VStem: 58 157<157 581> 260 109<339.49 421.391> 472 109<339 421.667> 626 156<339 581>
LayerCount: 2
Fore
SplineSet
453 531 m 2,0,1
 514 531 514 531 547.5 498 c 128,-1,2
 581 465 581 465 581 403 c 2,3,-1
 581 339 l 1,4,-1
 626 339 l 1,5,-1
 626 581 l 1,6,-1
 215 581 l 1,7,-1
 215 157 l 1,8,-1
 782 157 l 1,9,-1
 782 0 l 1,10,-1
 208 0 l 2,11,12
 177 0 177 0 150 12 c 128,-1,13
 123 24 123 24 102.5 44.5 c 128,-1,14
 82 65 82 65 70 91.5 c 128,-1,15
 58 118 58 118 58 148 c 2,16,-1
 58 589 l 2,17,18
 58 620 58 620 70 647 c 128,-1,19
 82 674 82 674 102.5 694 c 128,-1,20
 123 714 123 714 150 725.5 c 128,-1,21
 177 737 177 737 208 737 c 2,22,-1
 633 737 l 2,23,24
 664 737 664 737 691 725.5 c 128,-1,25
 718 714 718 714 738.5 694 c 128,-1,26
 759 674 759 674 770.5 647 c 128,-1,27
 782 620 782 620 782 589 c 2,28,-1
 782 221 l 1,29,-1
 389 221 l 2,30,31
 328 221 328 221 294 254 c 128,-1,32
 260 287 260 287 260 349 c 2,33,-1
 260 403 l 2,34,35
 260 464 260 464 294 497.5 c 128,-1,36
 328 531 328 531 389 531 c 2,37,-1
 453 531 l 2,0,1
472 339 m 1,38,-1
 472 423 l 1,39,-1
 369 423 l 1,40,-1
 369 339 l 1,41,-1
 472 339 l 1,38,-1
EndSplineSet
EndChar

StartChar: b
Encoding: 98 98 98
Width: 683
Flags: W
HStem: 0 157<212 501> 437 157<212 501>
VStem: 55 157<157 437 594 788> 501 156<157 437>
LayerCount: 2
Fore
SplineSet
509 594 m 2,0,1
 540 594 540 594 567 582 c 128,-1,2
 594 570 594 570 614 549.5 c 128,-1,3
 634 529 634 529 645.5 502.5 c 128,-1,4
 657 476 657 476 657 445 c 2,5,-1
 657 148 l 2,6,7
 657 117 657 117 645.5 91 c 128,-1,8
 634 65 634 65 614 44.5 c 128,-1,9
 594 24 594 24 567 12 c 128,-1,10
 540 0 540 0 509 0 c 2,11,-1
 55 0 l 1,12,-1
 55 788 l 1,13,-1
 212 788 l 1,14,-1
 212 594 l 1,15,-1
 509 594 l 2,0,1
212 157 m 1,16,-1
 501 157 l 1,17,-1
 501 437 l 1,18,-1
 212 437 l 1,19,-1
 212 157 l 1,16,-1
EndSplineSet
Substitution2: "'smcp' Lowercase to Small Capitals in Latin lookup 3 subtable" b.sc
Substitution2: "'aalt' Access All Alternates in Latin lookup 0 subtable" b.sc
EndChar

StartChar: b.sc
Encoding: 65561 -1 99
Width: 716
Flags: W
HStem: 0 157<212 511> 226 147<212 482> 449 146<212 482>
VStem: 55 157<157 226 373 449> 482 157<373 448.859>
LayerCount: 2
Fore
SplineSet
639 365 m 2,0,1
 639 352 639 352 638 341 c 128,-1,2
 637 330 637 330 634 318 c 1,3,4
 668 278 668 278 668 224 c 2,5,-1
 668 148 l 2,6,7
 668 117 668 117 656 91 c 128,-1,8
 644 65 644 65 623.5 44.5 c 128,-1,9
 603 24 603 24 576.5 12 c 128,-1,10
 550 0 550 0 519 0 c 2,11,-1
 55 0 l 1,12,-1
 55 595 l 1,13,-1
 490 595 l 2,14,15
 521 595 521 595 548 583 c 128,-1,16
 575 571 575 571 595 550.5 c 128,-1,17
 615 530 615 530 627 503 c 128,-1,18
 639 476 639 476 639 445 c 2,19,-1
 639 365 l 2,0,1
212 157 m 1,20,-1
 511 157 l 1,21,-1
 511 226 l 1,22,-1
 212 226 l 1,23,-1
 212 157 l 1,20,-1
212 373 m 1,24,-1
 482 373 l 1,25,-1
 482 449 l 1,26,-1
 212 449 l 1,27,-1
 212 373 l 1,24,-1
EndSplineSet
EndChar

StartChar: backslash
Encoding: 92 92 100
Width: 532
Flags: W
HStem: 0 21G<460.724 534> 717 20G<5 77.3385>
LayerCount: 2
Fore
SplineSet
61 737 m 1,0,-1
 534 158 l 1,1,-1
 534 0 l 1,2,-1
 477 0 l 1,3,-1
 5 580 l 1,4,-1
 5 737 l 1,5,-1
 61 737 l 1,0,-1
EndSplineSet
EndChar

StartChar: bar
Encoding: 124 124 101
Width: 219
Flags: W
VStem: 55 157<-101 823>
LayerCount: 2
Fore
SplineSet
55 823 m 1,0,-1
 212 823 l 1,1,-1
 212 -101 l 1,2,-1
 55 -101 l 1,3,-1
 55 823 l 1,0,-1
EndSplineSet
EndChar

StartChar: braceleft
Encoding: 123 123 102
Width: 295
Flags: W
HStem: 0 21G<198.5 281> 717 20G<198.5 281>
VStem: 65 216<70.959 157 581 667.782> 65 156<157 287 467 581>
LayerCount: 2
Fore
SplineSet
221 157 m 1,0,-1
 281 157 l 1,1,-1
 281 0 l 1,2,-1
 214 0 l 2,3,4
 183 0 183 0 155.5 12 c 128,-1,5
 128 24 128 24 108 44.5 c 128,-1,6
 88 65 88 65 76.5 91.5 c 128,-1,7
 65 118 65 118 65 148 c 2,8,-1
 65 287 l 1,9,-1
 48 297 l 1,10,-1
 49 297 l 1,11,12
 44 299 44 299 36.5 303.5 c 128,-1,13
 29 308 29 308 24 310 c 1,14,-1
 24 444 l 1,15,-1
 65 467 l 1,16,-1
 65 589 l 2,17,18
 65 620 65 620 76.5 647 c 128,-1,19
 88 674 88 674 108 694 c 128,-1,20
 128 714 128 714 155.5 725.5 c 128,-1,21
 183 737 183 737 214 737 c 2,22,-1
 281 737 l 1,23,-1
 281 581 l 1,24,-1
 221 581 l 1,25,-1
 221 416 l 1,26,-1
 175 377 l 1,27,-1
 199 356 l 1,28,-1
 199 357 l 1,29,-1
 221 339 l 1,30,-1
 221 157 l 1,0,-1
EndSplineSet
EndChar

StartChar: braceright
Encoding: 125 125 103
Width: 295
Flags: W
HStem: 0 21G<52 134.5> 717 20G<52 134.5>
VStem: 52 216<70.7827 157 581 667.782> 112 156<157 287 468 581>
LayerCount: 2
Fore
SplineSet
52 157 m 1,0,-1
 112 157 l 1,1,-1
 112 338 l 1,2,-1
 158 377 l 1,3,-1
 112 416 l 1,4,-1
 112 581 l 1,5,-1
 52 581 l 1,6,-1
 52 737 l 1,7,-1
 119 737 l 2,8,9
 150 737 150 737 177 725.5 c 128,-1,10
 204 714 204 714 224.5 694 c 128,-1,11
 245 674 245 674 256.5 647 c 128,-1,12
 268 620 268 620 268 589 c 2,13,-1
 268 468 l 1,14,-1
 309 443 l 1,15,-1
 309 312 l 1,16,-1
 268 287 l 1,17,-1
 268 148 l 2,18,19
 268 117 268 117 256.5 91 c 128,-1,20
 245 65 245 65 224.5 44.5 c 128,-1,21
 204 24 204 24 177 12 c 128,-1,22
 150 0 150 0 119 0 c 2,23,-1
 52 0 l 1,24,-1
 52 157 l 1,0,-1
EndSplineSet
EndChar

StartChar: bracketleft
Encoding: 91 91 104
Width: 281
Flags: W
HStem: 0 21G<55 271> 717 20G<55 271>
VStem: 55 216<0 157 581 737> 55 157<157 581>
LayerCount: 2
Fore
SplineSet
55 737 m 1,0,-1
 271 737 l 1,1,-1
 271 581 l 1,2,-1
 212 581 l 1,3,-1
 212 157 l 1,4,-1
 271 157 l 1,5,-1
 271 0 l 1,6,-1
 55 0 l 1,7,-1
 55 737 l 1,0,-1
EndSplineSet
EndChar

StartChar: bracketright
Encoding: 93 93 105
Width: 282
Flags: W
HStem: 0 21G<52 268> 717 20G<52 268>
VStem: 52 216<0 157 581 737> 111 157<157 581>
LayerCount: 2
Fore
SplineSet
52 737 m 1,0,-1
 268 737 l 1,1,-1
 268 0 l 1,2,-1
 52 0 l 1,3,-1
 52 157 l 1,4,-1
 111 157 l 1,5,-1
 111 581 l 1,6,-1
 52 581 l 1,7,-1
 52 737 l 1,0,-1
EndSplineSet
EndChar

StartChar: breve
Encoding: 728 728 106
Width: 293
Flags: W
HStem: 765 136<77.1914 145 185 252.178>
VStem: 41 248<802.055 870>
LayerCount: 2
Fore
SplineSet
289 901 m 1,0,-1
 289 865 l 2,1,2
 289 824 289 824 260.5 794.5 c 128,-1,3
 232 765 232 765 188 765 c 2,4,-1
 141 765 l 2,5,6
 97 765 97 765 69 794.5 c 128,-1,7
 41 824 41 824 41 865 c 2,8,-1
 41 901 l 1,9,-1
 145 901 l 1,10,-1
 145 870 l 1,11,-1
 185 870 l 1,12,-1
 185 901 l 1,13,-1
 289 901 l 1,0,-1
EndSplineSet
EndChar

StartChar: bullet
Encoding: 8226 8226 107
Width: 379
Flags: W
HStem: 286 152<123.332 255.897>
VStem: 111 157<298.141 425.668>
LayerCount: 2
Fore
SplineSet
200 438 m 2,0,1
 269 438 269 438 268 371 c 2,2,-1
 268 352 l 2,3,4
 268 285 268 285 200 286 c 2,5,-1
 178 286 l 2,6,7
 110 286 110 286 111 352 c 2,8,-1
 111 371 l 2,9,10
 111 439 111 439 178 438 c 2,11,-1
 200 438 l 2,0,1
EndSplineSet
EndChar

StartChar: c
Encoding: 99 99 108
Width: 711
Flags: W
HStem: 0 157<209 654> 437 157<209 653>
VStem: 52 157<157 437>
LayerCount: 2
Fore
SplineSet
209 437 m 1,0,-1
 209 157 l 1,1,-1
 654 157 l 1,2,-1
 654 0 l 1,3,-1
 201 0 l 2,4,5
 170 0 170 0 143.5 12 c 128,-1,6
 117 24 117 24 96.5 44.5 c 128,-1,7
 76 65 76 65 64 91.5 c 128,-1,8
 52 118 52 118 52 148 c 2,9,-1
 52 445 l 2,10,11
 52 476 52 476 64 502.5 c 128,-1,12
 76 529 76 529 96.5 549.5 c 128,-1,13
 117 570 117 570 143.5 582 c 128,-1,14
 170 594 170 594 201 594 c 2,15,-1
 653 594 l 1,16,-1
 653 437 l 1,17,-1
 209 437 l 1,0,-1
EndSplineSet
Substitution2: "'smcp' Lowercase to Small Capitals in Latin lookup 3 subtable" c.sc
Substitution2: "'aalt' Access All Alternates in Latin lookup 0 subtable" c.sc
EndChar

StartChar: c.sc
Encoding: 65562 -1 109
Width: 709
Flags: W
HStem: 0 157<209 653> 438 157<209 653>
VStem: 52 157<157 438>
LayerCount: 2
Fore
SplineSet
209 438 m 1,0,-1
 209 157 l 1,1,-1
 653 157 l 1,2,-1
 653 0 l 1,3,-1
 201 0 l 2,4,5
 170 0 170 0 143 12 c 128,-1,6
 116 24 116 24 96 44.5 c 128,-1,7
 76 65 76 65 64 91.5 c 128,-1,8
 52 118 52 118 52 148 c 2,9,-1
 52 445 l 2,10,11
 52 476 52 476 64 503 c 128,-1,12
 76 530 76 530 96 550.5 c 128,-1,13
 116 571 116 571 143 583 c 128,-1,14
 170 595 170 595 201 595 c 2,15,-1
 653 595 l 1,16,-1
 653 438 l 1,17,-1
 209 438 l 1,0,-1
EndSplineSet
EndChar

StartChar: caron
Encoding: 711 711 110
Width: 304
Flags: W
HStem: 764 188<140 162 217 243>
VStem: 28 327
LayerCount: 2
Fore
SplineSet
162 952 m 1,0,-1
 189 907 l 1,1,-1
 217 952 l 1,2,-1
 355 952 l 1,3,-1
 243 764 l 1,4,-1
 140 764 l 1,5,-1
 28 952 l 1,6,-1
 162 952 l 1,0,-1
EndSplineSet
EndChar

StartChar: ccedilla
Encoding: 231 231 111
Width: 709
Flags: W
HStem: 0 157<209 321 414.609 654> 437 157<209 653>
VStem: 52 157<157 437>
LayerCount: 2
Fore
SplineSet
654 157 m 1,0,-1
 654 0 l 1,1,-1
 420 0 l 1,2,3
 412 -35 412 -35 400 -66.5 c 128,-1,4
 388 -98 388 -98 380 -131 c 1,5,-1
 281 -131 l 1,6,7
 289 -96 289 -96 300.5 -64.5 c 128,-1,8
 312 -33 312 -33 321 0 c 1,9,-1
 201 0 l 2,10,11
 170 0 170 0 143.5 12 c 128,-1,12
 117 24 117 24 96.5 44.5 c 128,-1,13
 76 65 76 65 64 91.5 c 128,-1,14
 52 118 52 118 52 148 c 2,15,-1
 52 445 l 2,16,17
 52 476 52 476 64 502.5 c 128,-1,18
 76 529 76 529 96.5 549.5 c 128,-1,19
 117 570 117 570 143.5 582 c 128,-1,20
 170 594 170 594 201 594 c 2,21,-1
 653 594 l 1,22,-1
 653 437 l 1,23,-1
 209 437 l 1,24,-1
 209 157 l 1,25,-1
 654 157 l 1,0,-1
EndSplineSet
EndChar

StartChar: cedilla
Encoding: 184 184 112
Width: 218
Flags: W
HStem: -150 207<86 195>
VStem: 34 213
LayerCount: 2
Fore
SplineSet
86 57 m 1,0,-1
 247 57 l 1,1,-1
 195 -150 l 1,2,-1
 34 -150 l 1,3,-1
 86 57 l 1,0,-1
EndSplineSet
EndChar

StartChar: cent
Encoding: 162 162 113
Width: 651
Flags: W
HStem: 0 157<190 298 456 636> 445 159<190 298 456 636>
VStem: 34 156<157 445> 298 158<-101 0 157 445 604 722>
LayerCount: 2
Fore
SplineSet
456 445 m 1,0,-1
 456 157 l 1,1,-1
 636 157 l 1,2,-1
 636 0 l 1,3,-1
 456 0 l 1,4,-1
 456 -101 l 1,5,-1
 298 -101 l 1,6,-1
 298 0 l 1,7,-1
 183 0 l 2,8,9
 152 0 152 0 125 12 c 128,-1,10
 98 24 98 24 77.5 44.5 c 128,-1,11
 57 65 57 65 45.5 91.5 c 128,-1,12
 34 118 34 118 34 148 c 2,13,-1
 34 455 l 2,14,15
 34 486 34 486 45.5 513 c 128,-1,16
 57 540 57 540 77.5 560.5 c 128,-1,17
 98 581 98 581 125.5 592.5 c 128,-1,18
 153 604 153 604 183 604 c 2,19,-1
 298 604 l 1,20,-1
 298 722 l 1,21,-1
 456 722 l 1,22,-1
 456 604 l 1,23,-1
 636 604 l 1,24,-1
 636 445 l 1,25,-1
 456 445 l 1,0,-1
298 445 m 1,26,-1
 190 445 l 1,27,-1
 190 157 l 1,28,-1
 298 157 l 1,29,-1
 298 445 l 1,26,-1
EndSplineSet
EndChar

StartChar: circumflex
Encoding: 710 710 114
Width: 307
Flags: W
HStem: 764 188<141 165 219 244>
VStem: 29 327
LayerCount: 2
Fore
SplineSet
29 764 m 1,0,-1
 141 952 l 1,1,-1
 244 952 l 1,2,-1
 356 764 l 1,3,-1
 219 764 l 1,4,-1
 190 809 l 1,5,-1
 165 764 l 1,6,-1
 29 764 l 1,0,-1
EndSplineSet
EndChar

StartChar: colon
Encoding: 58 58 115
Width: 252
Flags: W
HStem: 0 157<55 212> 436 158<55 212>
VStem: 55 157<0 157 436 594>
LayerCount: 2
Fore
SplineSet
212 157 m 1,0,-1
 212 0 l 1,1,-1
 55 0 l 1,2,-1
 55 157 l 1,3,-1
 212 157 l 1,0,-1
212 436 m 1,4,-1
 55 436 l 1,5,-1
 55 594 l 1,6,-1
 212 594 l 1,7,-1
 212 436 l 1,4,-1
EndSplineSet
EndChar

StartChar: comma
Encoding: 44 44 116
Width: 248
Flags: W
HStem: -136 281<55 121.907>
VStem: 55 157<-55.0469 145>
LayerCount: 2
Fore
SplineSet
212 145 m 1,0,-1
 212 16 l 2,1,2
 212 -12 212 -12 200 -37 c 128,-1,3
 188 -62 188 -62 167 -82 c 128,-1,4
 146 -102 146 -102 117.5 -116 c 128,-1,5
 89 -130 89 -130 55 -136 c 1,6,-1
 55 145 l 1,7,-1
 212 145 l 1,0,-1
EndSplineSet
EndChar

StartChar: d
Encoding: 100 100 117
Width: 683
Flags: W
HStem: 0 157<181 470> 437 157<181 470>
VStem: 24 157<157 437> 470 157<157 437 594 788>
LayerCount: 2
Fore
SplineSet
627 788 m 1,0,-1
 627 0 l 1,1,-1
 172 0 l 2,2,3
 141 0 141 0 114 12 c 128,-1,4
 87 24 87 24 67 44.5 c 128,-1,5
 47 65 47 65 35.5 91.5 c 128,-1,6
 24 118 24 118 24 148 c 2,7,-1
 24 445 l 2,8,9
 24 476 24 476 35.5 502.5 c 128,-1,10
 47 529 47 529 67 549.5 c 128,-1,11
 87 570 87 570 114 582 c 128,-1,12
 141 594 141 594 172 594 c 2,13,-1
 470 594 l 1,14,-1
 470 788 l 1,15,-1
 627 788 l 1,0,-1
181 157 m 1,16,-1
 470 157 l 1,17,-1
 470 437 l 1,18,-1
 181 437 l 1,19,-1
 181 157 l 1,16,-1
EndSplineSet
Substitution2: "'smcp' Lowercase to Small Capitals in Latin lookup 3 subtable" d.sc
Substitution2: "'aalt' Access All Alternates in Latin lookup 0 subtable" d.sc
EndChar

StartChar: d.sc
Encoding: 65563 -1 118
Width: 721
Flags: W
HStem: 0 157<212 511> 438 157<212 511>
VStem: 55 157<157 438> 511 157<157 438>
LayerCount: 2
Fore
SplineSet
519 595 m 2,0,1
 550 595 550 595 576.5 583 c 128,-1,2
 603 571 603 571 623.5 550.5 c 128,-1,3
 644 530 644 530 656 503 c 128,-1,4
 668 476 668 476 668 445 c 2,5,-1
 668 148 l 2,6,7
 668 117 668 117 656 91 c 128,-1,8
 644 65 644 65 623.5 44.5 c 128,-1,9
 603 24 603 24 576.5 12 c 128,-1,10
 550 0 550 0 519 0 c 2,11,-1
 55 0 l 1,12,-1
 55 595 l 1,13,-1
 519 595 l 2,0,1
212 157 m 1,14,-1
 511 157 l 1,15,-1
 511 438 l 1,16,-1
 212 438 l 1,17,-1
 212 157 l 1,14,-1
EndSplineSet
EndChar

StartChar: degree
Encoding: 176 176 119
Width: 449
Flags: W
HStem: 351 139<184.516 288.29> 585 138<184.516 288.565>
VStem: 46 138<490.462 584.538> 289 138<490.462 584.538>
LayerCount: 2
Fore
SplineSet
279 723 m 2,0,1
 310 723 310 723 336 711 c 128,-1,2
 362 699 362 699 382.5 679 c 128,-1,3
 403 659 403 659 415 632 c 128,-1,4
 427 605 427 605 427 574 c 2,5,-1
 427 501 l 2,6,7
 427 470 427 470 415 443 c 128,-1,8
 403 416 403 416 382.5 395.5 c 128,-1,9
 362 375 362 375 335.5 363 c 128,-1,10
 309 351 309 351 279 351 c 2,11,-1
 196 351 l 2,12,13
 165 351 165 351 138 363 c 128,-1,14
 111 375 111 375 90.5 395.5 c 128,-1,15
 70 416 70 416 58 443 c 128,-1,16
 46 470 46 470 46 501 c 2,17,-1
 46 574 l 2,18,19
 46 605 46 605 58 632 c 128,-1,20
 70 659 70 659 90.5 679 c 128,-1,21
 111 699 111 699 138 711 c 128,-1,22
 165 723 165 723 196 723 c 2,23,-1
 279 723 l 2,0,1
184 490 m 1,24,-1
 289 490 l 1,25,-1
 289 585 l 1,26,-1
 184 585 l 1,27,-1
 184 490 l 1,24,-1
EndSplineSet
EndChar

StartChar: dieresis
Encoding: 168 168 120
Width: 394
Flags: W
HStem: 765 158<55 212 273 431>
VStem: 55 157<765 923> 273 158<765 923>
LayerCount: 2
Fore
SplineSet
431 765 m 1,0,-1
 273 765 l 1,1,-1
 273 923 l 1,2,-1
 431 923 l 1,3,-1
 431 765 l 1,0,-1
212 765 m 1,4,-1
 55 765 l 1,5,-1
 55 923 l 1,6,-1
 212 923 l 1,7,-1
 212 765 l 1,4,-1
EndSplineSet
EndChar

StartChar: divide
Encoding: 247 247 121
Width: 531
Flags: W
HStem: 0 157<187 344> 246 156<7 509> 473 158<187 344>
VStem: 187 157<0 157 473 631>
LayerCount: 2
Fore
SplineSet
509 246 m 1,0,-1
 7 246 l 1,1,-1
 7 402 l 1,2,-1
 509 402 l 1,3,-1
 509 246 l 1,0,-1
344 157 m 1,4,-1
 344 0 l 1,5,-1
 187 0 l 1,6,-1
 187 157 l 1,7,-1
 344 157 l 1,4,-1
344 473 m 1,8,-1
 187 473 l 1,9,-1
 187 631 l 1,10,-1
 344 631 l 1,11,-1
 344 473 l 1,8,-1
EndSplineSet
EndChar

StartChar: dollar
Encoding: 36 36 122
Width: 806
Flags: W
HStem: 0 157<191 317 475 601> 287 156<191 317 475 601> 581 156<191 317 475 601>
VStem: 35 156<157 216 443 581> 317 158<-100 0 157 287 443 581 737 838> 601 157<157 287 521 581>
LayerCount: 2
Fore
SplineSet
758 521 m 1,0,-1
 601 521 l 1,1,-1
 601 581 l 1,2,-1
 475 581 l 1,3,-1
 475 443 l 1,4,-1
 609 443 l 2,5,6
 640 443 640 443 667 431.5 c 128,-1,7
 694 420 694 420 714 399.5 c 128,-1,8
 734 379 734 379 746 352 c 128,-1,9
 758 325 758 325 758 294 c 2,10,-1
 758 148 l 2,11,12
 758 117 758 117 746 91 c 128,-1,13
 734 65 734 65 714 44.5 c 128,-1,14
 694 24 694 24 667 12 c 128,-1,15
 640 0 640 0 609 0 c 2,16,-1
 475 0 l 1,17,-1
 475 -100 l 1,18,-1
 317 -100 l 1,19,-1
 317 0 l 1,20,-1
 183 0 l 2,21,22
 152 0 152 0 125 12 c 128,-1,23
 98 24 98 24 78 44.5 c 128,-1,24
 58 65 58 65 46.5 91.5 c 128,-1,25
 35 118 35 118 35 148 c 2,26,-1
 35 216 l 1,27,-1
 191 216 l 1,28,-1
 191 157 l 1,29,-1
 317 157 l 1,30,-1
 317 287 l 1,31,-1
 183 287 l 2,32,33
 152 287 152 287 125 298.5 c 128,-1,34
 98 310 98 310 78 330 c 128,-1,35
 58 350 58 350 46.5 377 c 128,-1,36
 35 404 35 404 35 435 c 2,37,-1
 35 589 l 2,38,39
 35 620 35 620 46.5 647 c 128,-1,40
 58 674 58 674 78 694 c 128,-1,41
 98 714 98 714 125.5 725.5 c 128,-1,42
 153 737 153 737 183 737 c 2,43,-1
 317 737 l 1,44,-1
 317 838 l 1,45,-1
 475 838 l 1,46,-1
 475 737 l 1,47,-1
 609 737 l 2,48,49
 640 737 640 737 667 725.5 c 128,-1,50
 694 714 694 714 714 694 c 128,-1,51
 734 674 734 674 746 647 c 128,-1,52
 758 620 758 620 758 589 c 2,53,-1
 758 521 l 1,0,-1
317 581 m 1,54,-1
 191 581 l 1,55,-1
 191 443 l 1,56,-1
 317 443 l 1,57,-1
 317 581 l 1,54,-1
475 157 m 1,58,-1
 601 157 l 1,59,-1
 601 287 l 1,60,-1
 475 287 l 1,61,-1
 475 157 l 1,58,-1
EndSplineSet
EndChar

StartChar: dotaccent
Encoding: 729 729 123
Width: 238
Flags: W
HStem: 766 187<69.7212 212.553>
VStem: 46 191<790.446 929.084>
LayerCount: 2
Fore
SplineSet
158 953 m 2,0,1
 191 953 191 953 214 930 c 128,-1,2
 237 907 237 907 237 876 c 2,3,-1
 237 844 l 2,4,5
 237 812 237 812 213.5 789 c 128,-1,6
 190 766 190 766 158 766 c 2,7,-1
 125 766 l 2,8,9
 92 766 92 766 69 789 c 128,-1,10
 46 812 46 812 46 844 c 2,11,-1
 46 876 l 2,12,13
 46 908 46 908 69 930.5 c 128,-1,14
 92 953 92 953 125 953 c 2,15,-1
 158 953 l 2,0,1
EndSplineSet
EndChar

StartChar: dotlessi
Encoding: 305 305 124
Width: 219
Flags: W
HStem: 0 21G<53 210> 574 20G<53 210>
VStem: 53 157<0 594>
LayerCount: 2
Fore
SplineSet
53 594 m 1,0,-1
 210 594 l 1,1,-1
 210 0 l 1,2,-1
 53 0 l 1,3,-1
 53 594 l 1,0,-1
EndSplineSet
EndChar

StartChar: e
Encoding: 101 101 125
Width: 708
Flags: W
HStem: 0 157<209 654> 218 137<209 498> 437 157<209 498>
VStem: 52 157<157 218 355 437> 498 156<355 437>
LayerCount: 2
Fore
SplineSet
506 594 m 2,0,1
 537 594 537 594 564 582 c 128,-1,2
 591 570 591 570 611 549.5 c 128,-1,3
 631 529 631 529 642.5 502.5 c 128,-1,4
 654 476 654 476 654 445 c 2,5,-1
 654 218 l 1,6,-1
 209 218 l 1,7,-1
 209 157 l 1,8,-1
 654 157 l 1,9,-1
 654 0 l 1,10,-1
 201 0 l 2,11,12
 170 0 170 0 143.5 12 c 128,-1,13
 117 24 117 24 96.5 44.5 c 128,-1,14
 76 65 76 65 64 91.5 c 128,-1,15
 52 118 52 118 52 148 c 2,16,-1
 52 445 l 2,17,18
 52 476 52 476 64 502.5 c 128,-1,19
 76 529 76 529 96.5 549.5 c 128,-1,20
 117 570 117 570 143.5 582 c 128,-1,21
 170 594 170 594 201 594 c 2,22,-1
 506 594 l 2,0,1
498 355 m 1,23,-1
 498 437 l 1,24,-1
 209 437 l 1,25,-1
 209 355 l 1,26,-1
 498 355 l 1,23,-1
EndSplineSet
Substitution2: "'smcp' Lowercase to Small Capitals in Latin lookup 3 subtable" e.sc
Substitution2: "'aalt' Access All Alternates in Latin lookup 0 subtable" e.sc
EndChar

StartChar: e.sc
Encoding: 65564 -1 126
Width: 653
Flags: W
HStem: 0 157<212 603> 218 158<212 504> 438 157<212 603>
VStem: 55 157<157 218 376 438>
LayerCount: 2
Fore
SplineSet
603 438 m 1,0,-1
 212 438 l 1,1,-1
 212 376 l 1,2,-1
 504 376 l 1,3,-1
 504 218 l 1,4,-1
 212 218 l 1,5,-1
 212 157 l 1,6,-1
 603 157 l 1,7,-1
 603 0 l 1,8,-1
 55 0 l 1,9,-1
 55 595 l 1,10,-1
 603 595 l 1,11,-1
 603 438 l 1,0,-1
EndSplineSet
EndChar

StartChar: eight
Encoding: 56 56 131
Width: 854
Flags: W
HStem: 0 157<215 626> 295 147<215 626> 580 157<215 626>
VStem: 58 157<157 295 442.312 580> 626 156<157 295 442.403 580>
CounterMasks: 1 e0
LayerCount: 2
Fore
SplineSet
782 444 m 2,0,1
 782 427 782 427 777.5 408.5 c 128,-1,2
 773 390 773 390 765 374 c 1,3,4
 782 342 782 342 782 304 c 2,5,-1
 782 148 l 2,6,7
 782 117 782 117 770.5 91 c 128,-1,8
 759 65 759 65 738.5 44.5 c 128,-1,9
 718 24 718 24 691 12 c 128,-1,10
 664 0 664 0 633 0 c 2,11,-1
 208 0 l 2,12,13
 177 0 177 0 150 12 c 128,-1,14
 123 24 123 24 102.5 44.5 c 128,-1,15
 82 65 82 65 70 91.5 c 128,-1,16
 58 118 58 118 58 148 c 2,17,-1
 58 304 l 2,18,19
 58 321 58 321 63 339 c 128,-1,20
 68 357 68 357 76 374 c 1,21,22
 68 390 68 390 63 408 c 128,-1,23
 58 426 58 426 58 444 c 2,24,-1
 58 589 l 2,25,26
 58 620 58 620 70 647 c 128,-1,27
 82 674 82 674 102.5 694 c 128,-1,28
 123 714 123 714 150 725.5 c 128,-1,29
 177 737 177 737 208 737 c 2,30,-1
 633 737 l 2,31,32
 661 737 661 737 686 728 c 128,-1,33
 711 719 711 719 731 702.5 c 128,-1,34
 751 686 751 686 764 663.5 c 128,-1,35
 777 641 777 641 782 615 c 1,36,-1
 782 444 l 2,0,1
215 157 m 1,37,-1
 626 157 l 1,38,-1
 626 295 l 1,39,-1
 215 295 l 1,40,-1
 215 157 l 1,37,-1
215 442 m 1,41,-1
 626 442 l 1,42,-1
 626 580 l 1,43,-1
 215 580 l 1,44,-1
 215 442 l 1,41,-1
EndSplineSet
EndChar

StartChar: ellipsis
Encoding: 8230 8230 132
Width: 587
Flags: W
HStem: 0 157<55 213 252 410 449 605>
VStem: 55 158<0 157> 252 158<0 157> 449 156<0 157>
LayerCount: 2
Fore
SplineSet
410 0 m 1,0,-1
 252 0 l 1,1,-1
 252 157 l 1,2,-1
 410 157 l 1,3,-1
 410 0 l 1,0,-1
605 0 m 1,4,-1
 449 0 l 1,5,-1
 449 157 l 1,6,-1
 605 157 l 1,7,-1
 605 0 l 1,4,-1
213 0 m 1,8,-1
 55 0 l 1,9,-1
 55 157 l 1,10,-1
 213 157 l 1,11,-1
 213 0 l 1,8,-1
EndSplineSet
EndChar

StartChar: emdash
Encoding: 8212 8212 133
Width: 841
Flags: W
HStem: 223 157<55 774>
LayerCount: 2
Fore
SplineSet
774 223 m 1,0,-1
 55 223 l 1,1,-1
 55 380 l 1,2,-1
 774 380 l 1,3,-1
 774 223 l 1,0,-1
EndSplineSet
EndChar

StartChar: endash
Encoding: 8211 8211 134
Width: 724
Flags: W
HStem: 223 157<55 668>
LayerCount: 2
Fore
SplineSet
668 223 m 1,0,-1
 55 223 l 1,1,-1
 55 380 l 1,2,-1
 668 380 l 1,3,-1
 668 223 l 1,0,-1
EndSplineSet
EndChar

StartChar: equal
Encoding: 61 61 135
Width: 653
Flags: W
HStem: 132 157<60 599> 339 157<60 599>
LayerCount: 2
Fore
SplineSet
599 132 m 1,0,-1
 60 132 l 1,1,-1
 60 289 l 1,2,-1
 599 289 l 1,3,-1
 599 132 l 1,0,-1
599 339 m 1,4,-1
 60 339 l 1,5,-1
 60 496 l 1,6,-1
 599 496 l 1,7,-1
 599 339 l 1,4,-1
EndSplineSet
EndChar

StartChar: exclam
Encoding: 33 33 136
Width: 225
Flags: W
HStem: 0 157<59 216> 717 20G<59 216>
VStem: 59 157<0 157 206 737>
LayerCount: 2
Fore
SplineSet
59 0 m 1,0,-1
 59 157 l 1,1,-1
 216 157 l 1,2,-1
 216 0 l 1,3,-1
 59 0 l 1,0,-1
59 737 m 1,4,-1
 216 737 l 1,5,-1
 216 206 l 1,6,-1
 59 206 l 1,7,-1
 59 737 l 1,4,-1
EndSplineSet
EndChar

StartChar: exclamdown
Encoding: 161 161 137
Width: 215
Flags: W
HStem: 0 21G<54 211> 566 157<54 211>
VStem: 54 157<0 539 566 723>
LayerCount: 2
Fore
SplineSet
211 566 m 1,0,-1
 54 566 l 1,1,-1
 54 723 l 1,2,-1
 211 723 l 1,3,-1
 211 566 l 1,0,-1
54 0 m 1,4,-1
 54 539 l 1,5,-1
 211 539 l 1,6,-1
 211 0 l 1,7,-1
 54 0 l 1,4,-1
EndSplineSet
EndChar

StartChar: f
Encoding: 102 102 138
Width: 450
Flags: W
HStem: 0 21G<54 211> 437 157<211 431> 631 157<211 431>
VStem: 54 157<0 437 594 631>
LayerCount: 2
Fore
SplineSet
211 631 m 1,0,-1
 211 594 l 1,1,-1
 431 594 l 1,2,-1
 431 437 l 1,3,-1
 211 437 l 1,4,-1
 211 0 l 1,5,-1
 54 0 l 1,6,-1
 54 640 l 2,7,8
 54 671 54 671 66 697.5 c 128,-1,9
 78 724 78 724 98 744.5 c 128,-1,10
 118 765 118 765 145.5 776.5 c 128,-1,11
 173 788 173 788 204 788 c 2,12,-1
 431 788 l 1,13,-1
 431 631 l 1,14,-1
 211 631 l 1,0,-1
EndSplineSet
Substitution2: "'smcp' Lowercase to Small Capitals in Latin lookup 3 subtable" f.sc
Substitution2: "'aalt' Access All Alternates in Latin lookup 0 subtable" f.sc
EndChar

StartChar: f.sc
Encoding: 65565 -1 139
Width: 605
Flags: W
HStem: 0 21G<55 212> 218 158<212 504> 438 157<212 603>
VStem: 55 157<0 218 376 438>
LayerCount: 2
Fore
SplineSet
603 595 m 1,0,-1
 603 438 l 1,1,-1
 212 438 l 1,2,-1
 212 376 l 1,3,-1
 504 376 l 1,4,-1
 504 218 l 1,5,-1
 212 218 l 1,6,-1
 212 0 l 1,7,-1
 55 0 l 1,8,-1
 55 595 l 1,9,-1
 603 595 l 1,0,-1
EndSplineSet
EndChar

StartChar: five
Encoding: 53 53 140
Width: 849
Flags: W
HStem: 0 157<215 626> 295 158<215 626> 581 156<215 782>
VStem: 58 157<157 206 453 581> 626 156<157 295>
LayerCount: 2
Fore
SplineSet
215 581 m 1,0,-1
 215 453 l 1,1,-1
 633 453 l 2,2,3
 664 453 664 453 691 441 c 128,-1,4
 718 429 718 429 738.5 409 c 128,-1,5
 759 389 759 389 770.5 362 c 128,-1,6
 782 335 782 335 782 304 c 2,7,-1
 782 148 l 2,8,9
 782 117 782 117 770.5 91 c 128,-1,10
 759 65 759 65 738.5 44.5 c 128,-1,11
 718 24 718 24 691 12 c 128,-1,12
 664 0 664 0 633 0 c 2,13,-1
 208 0 l 2,14,15
 177 0 177 0 150 12 c 128,-1,16
 123 24 123 24 102.5 44.5 c 128,-1,17
 82 65 82 65 70 91.5 c 128,-1,18
 58 118 58 118 58 148 c 2,19,-1
 58 206 l 1,20,-1
 215 206 l 1,21,-1
 215 157 l 1,22,-1
 626 157 l 1,23,-1
 626 295 l 1,24,-1
 58 295 l 1,25,-1
 58 737 l 1,26,-1
 782 737 l 1,27,-1
 782 581 l 1,28,-1
 215 581 l 1,0,-1
EndSplineSet
EndChar

StartChar: four
Encoding: 52 52 141
Width: 747
Flags: W
HStem: 0 21G<447 604> 183 158<261 447 604 702> 717 20G<441.821 604>
VStem: 447 157<0 183 341 493>
LayerCount: 2
Fore
SplineSet
702 341 m 1,0,-1
 702 183 l 1,1,-1
 604 183 l 1,2,-1
 604 0 l 1,3,-1
 447 0 l 1,4,-1
 447 183 l 1,5,-1
 6 183 l 1,6,-1
 6 324 l 1,7,-1
 464 737 l 1,8,-1
 604 737 l 1,9,-1
 604 341 l 1,10,-1
 702 341 l 1,0,-1
261 341 m 1,11,-1
 447 341 l 1,12,-1
 447 493 l 1,13,-1
 261 341 l 1,11,-1
EndSplineSet
Substitution2: "'ss03' Style Set 3 in Latin lookup 6 subtable" four.alt
Substitution2: "'aalt' Access All Alternates in Latin lookup 0 subtable" four.alt
EndChar

StartChar: four.alt
Encoding: 57351 57351 142
Width: 740
Flags: W
HStem: 0 21G<451 607> 181 158<222 451 607 706>
VStem: 451 156<0 181 339 477>
LayerCount: 2
Fore
SplineSet
706 339 m 1,0,-1
 706 181 l 1,1,-1
 607 181 l 1,2,-1
 607 0 l 1,3,-1
 451 0 l 1,4,-1
 451 181 l 1,5,-1
 9 181 l 1,6,-1
 9 319 l 1,7,-1
 364 735 l 1,8,-1
 505 735 l 1,9,-1
 505 650 l 1,10,-1
 222 339 l 1,11,-1
 451 339 l 1,12,-1
 451 477 l 1,13,-1
 607 477 l 1,14,-1
 607 339 l 1,15,-1
 706 339 l 1,0,-1
EndSplineSet
EndChar

StartChar: g
Encoding: 103 103 143
Width: 699
Flags: W
HStem: -234 157<136 488> 0 157<199 488> 437 157<199 488>
VStem: 42 157<157 437> 488 157<-77 0 157 437>
LayerCount: 2
Fore
SplineSet
645 -86 m 2,0,1
 645 -117 645 -117 633.5 -144 c 128,-1,2
 622 -171 622 -171 602 -191 c 128,-1,3
 582 -211 582 -211 554.5 -222.5 c 128,-1,4
 527 -234 527 -234 497 -234 c 2,5,-1
 136 -234 l 1,6,-1
 136 -77 l 1,7,-1
 488 -77 l 1,8,-1
 488 0 l 1,9,-1
 191 0 l 2,10,11
 160 0 160 0 133 12 c 128,-1,12
 106 24 106 24 86 44.5 c 128,-1,13
 66 65 66 65 54 91.5 c 128,-1,14
 42 118 42 118 42 148 c 2,15,-1
 42 445 l 2,16,17
 42 476 42 476 54 502.5 c 128,-1,18
 66 529 66 529 86 549.5 c 128,-1,19
 106 570 106 570 133.5 582 c 128,-1,20
 161 594 161 594 191 594 c 2,21,-1
 497 594 l 2,22,23
 528 594 528 594 555 582 c 128,-1,24
 582 570 582 570 602 549.5 c 128,-1,25
 622 529 622 529 633.5 502.5 c 128,-1,26
 645 476 645 476 645 445 c 2,27,-1
 645 -86 l 2,0,1
199 157 m 1,28,-1
 488 157 l 1,29,-1
 488 437 l 1,30,-1
 199 437 l 1,31,-1
 199 157 l 1,28,-1
EndSplineSet
Substitution2: "'smcp' Lowercase to Small Capitals in Latin lookup 3 subtable" g.sc
Substitution2: "'aalt' Access All Alternates in Latin lookup 0 subtable" g.sc
EndChar

StartChar: g.sc
Encoding: 65566 -1 144
Width: 706
Flags: W
HStem: 0 157<209 498> 201 146<350 498> 438 157<209 498>
VStem: 52 157<157 438>
LayerCount: 2
Fore
SplineSet
654 412 m 1,0,-1
 498 412 l 1,1,-1
 498 438 l 1,2,-1
 209 438 l 1,3,-1
 209 157 l 1,4,-1
 498 157 l 1,5,-1
 498 201 l 1,6,-1
 350 201 l 1,7,-1
 350 347 l 1,8,-1
 654 347 l 1,9,-1
 654 148 l 2,10,11
 654 117 654 117 642.5 91 c 128,-1,12
 631 65 631 65 611 44.5 c 128,-1,13
 591 24 591 24 564 12 c 128,-1,14
 537 0 537 0 506 0 c 2,15,-1
 201 0 l 2,16,17
 170 0 170 0 143.5 12 c 128,-1,18
 117 24 117 24 96.5 44.5 c 128,-1,19
 76 65 76 65 64 91.5 c 128,-1,20
 52 118 52 118 52 148 c 2,21,-1
 52 445 l 2,22,23
 52 476 52 476 64 503 c 128,-1,24
 76 530 76 530 96.5 550.5 c 128,-1,25
 117 571 117 571 143.5 583 c 128,-1,26
 170 595 170 595 201 595 c 2,27,-1
 506 595 l 2,28,29
 537 595 537 595 564 583 c 128,-1,30
 591 571 591 571 611 550.5 c 128,-1,31
 631 530 631 530 642.5 503 c 128,-1,32
 654 476 654 476 654 445 c 2,33,-1
 654 412 l 1,0,-1
EndSplineSet
EndChar

StartChar: germandbls
Encoding: 223 223 145
Width: 852
Flags: W
HStem: 0 157<280 626> 292 147<280 626> 565 158<215 626>
VStem: 58 157<0 565> 626 156<157 292 439.403 565>
LayerCount: 2
Fore
SplineSet
782 441 m 2,0,1
 782 424 782 424 777.5 405.5 c 128,-1,2
 773 387 773 387 765 371 c 1,3,4
 782 339 782 339 782 301 c 2,5,-1
 782 148 l 2,6,7
 782 117 782 117 770.5 91 c 128,-1,8
 759 65 759 65 738.5 44.5 c 128,-1,9
 718 24 718 24 691 12 c 128,-1,10
 664 0 664 0 633 0 c 2,11,-1
 280 0 l 1,12,-1
 280 157 l 1,13,-1
 626 157 l 1,14,-1
 626 292 l 1,15,-1
 280 292 l 1,16,-1
 280 439 l 1,17,-1
 626 439 l 1,18,-1
 626 565 l 1,19,-1
 215 565 l 1,20,-1
 215 0 l 1,21,-1
 58 0 l 1,22,-1
 58 574 l 2,23,24
 58 605 58 605 70 632 c 128,-1,25
 82 659 82 659 102.5 679 c 128,-1,26
 123 699 123 699 150 711 c 128,-1,27
 177 723 177 723 208 723 c 2,28,-1
 633 723 l 2,29,30
 661 723 661 723 686 714 c 128,-1,31
 711 705 711 705 731 688.5 c 128,-1,32
 751 672 751 672 764 649.5 c 128,-1,33
 777 627 777 627 782 601 c 1,34,-1
 782 441 l 2,0,1
EndSplineSet
EndChar

StartChar: grave
Encoding: 96 96 146
Width: 278
Flags: W
HStem: 765 208<85 194>
VStem: 33 213
LayerCount: 2
Fore
SplineSet
246 765 m 1,0,-1
 85 765 l 1,1,-1
 33 973 l 1,2,-1
 194 973 l 1,3,-1
 246 765 l 1,0,-1
EndSplineSet
EndChar

StartChar: greater
Encoding: 62 62 147
Width: 486
Flags: W
LayerCount: 2
Fore
SplineSet
60 163 m 1,0,-1
 299 301 l 1,1,-1
 168 375 l 2,2,3
 141 389 141 389 113 407 c 128,-1,4
 85 425 85 425 60 438 c 1,5,-1
 60 620 l 1,6,-1
 499 367 l 1,7,-1
 499 234 l 1,8,-1
 60 -19 l 1,9,-1
 60 163 l 1,0,-1
EndSplineSet
EndChar

StartChar: h
Encoding: 104 104 148
Width: 684
Flags: W
HStem: 0 21G<55 212 501 657> 437 157<212 501>
VStem: 55 157<0 437 594 788> 501 156<0 437>
LayerCount: 2
Fore
SplineSet
509 594 m 2,0,1
 540 594 540 594 566.5 582 c 128,-1,2
 593 570 593 570 613.5 549.5 c 128,-1,3
 634 529 634 529 645.5 502.5 c 128,-1,4
 657 476 657 476 657 445 c 2,5,-1
 657 0 l 1,6,-1
 501 0 l 1,7,-1
 501 437 l 1,8,-1
 212 437 l 1,9,-1
 212 0 l 1,10,-1
 55 0 l 1,11,-1
 55 788 l 1,12,-1
 212 788 l 1,13,-1
 212 594 l 1,14,-1
 509 594 l 2,0,1
EndSplineSet
Substitution2: "'smcp' Lowercase to Small Capitals in Latin lookup 3 subtable" h.sc
Substitution2: "'aalt' Access All Alternates in Latin lookup 0 subtable" h.sc
EndChar

StartChar: h.sc
Encoding: 65567 -1 149
Width: 732
Flags: W
HStem: 0 21G<55 212 517 675> 218 158<212 517> 574 20G<55 212 517 675>
VStem: 55 157<0 218 376 594> 517 158<0 218 376 594>
LayerCount: 2
Fore
SplineSet
675 594 m 1,0,-1
 675 0 l 1,1,-1
 517 0 l 1,2,-1
 517 218 l 1,3,-1
 212 218 l 1,4,-1
 212 0 l 1,5,-1
 55 0 l 1,6,-1
 55 594 l 1,7,-1
 212 594 l 1,8,-1
 212 376 l 1,9,-1
 517 376 l 1,10,-1
 517 594 l 1,11,-1
 675 594 l 1,0,-1
EndSplineSet
EndChar

StartChar: hyphen
Encoding: 45 45 150
Width: 529
Flags: W
HStem: 224 157<60 487>
LayerCount: 2
Fore
SplineSet
487 224 m 1,0,-1
 60 224 l 1,1,-1
 60 381 l 1,2,-1
 487 381 l 1,3,-1
 487 224 l 1,0,-1
EndSplineSet
EndChar

StartChar: i
Encoding: 105 105 151
Width: 234
Flags: W
HStem: 0 21G<53 210> 574 20G<53 210> 631 157<53 210>
VStem: 53 157<0 594 631 788>
LayerCount: 2
Fore
SplineSet
53 594 m 1,0,-1
 210 594 l 1,1,-1
 210 0 l 1,2,-1
 53 0 l 1,3,-1
 53 594 l 1,0,-1
210 788 m 1,4,-1
 210 631 l 1,5,-1
 53 631 l 1,6,-1
 53 788 l 1,7,-1
 210 788 l 1,4,-1
EndSplineSet
Substitution2: "'smcp' Lowercase to Small Capitals in Latin lookup 3 subtable" i.sc
Substitution2: "'aalt' Access All Alternates in Latin lookup 0 subtable" i.sc
EndChar

StartChar: i.sc
Encoding: 65568 -1 152
Width: 219
Flags: W
HStem: 0 21G<55 212> 574 20G<55 212>
VStem: 55 157<0 594>
LayerCount: 2
Fore
SplineSet
55 594 m 1,0,-1
 212 594 l 1,1,-1
 212 0 l 1,2,-1
 55 0 l 1,3,-1
 55 594 l 1,0,-1
EndSplineSet
EndChar

StartChar: j
Encoding: 106 106 157
Width: 244
Flags: W
HStem: -213 158<-191 59> 574 20G<59 216> 631 157<59 216>
VStem: 59 157<-55 594 631 788>
LayerCount: 2
Fore
SplineSet
216 788 m 1,0,-1
 216 631 l 1,1,-1
 59 631 l 1,2,-1
 59 788 l 1,3,-1
 216 788 l 1,0,-1
216 -65 m 2,4,5
 216 -96 216 -96 204.5 -123 c 128,-1,6
 193 -150 193 -150 172.5 -169.5 c 128,-1,7
 152 -189 152 -189 124.5 -201 c 128,-1,8
 97 -213 97 -213 67 -213 c 2,9,-1
 -191 -213 l 1,10,-1
 -191 -55 l 1,11,-1
 59 -55 l 1,12,-1
 59 594 l 1,13,-1
 216 594 l 1,14,-1
 216 -65 l 2,4,5
EndSplineSet
Substitution2: "'smcp' Lowercase to Small Capitals in Latin lookup 3 subtable" j.sc
Substitution2: "'aalt' Access All Alternates in Latin lookup 0 subtable" j.sc
EndChar

StartChar: j.sc
Encoding: 65569 -1 158
Width: 672
Flags: W
HStem: 0 157<162 461> 574 20G<461 617>
VStem: 461 156<157 594>
LayerCount: 2
Fore
SplineSet
162 157 m 1,0,-1
 461 157 l 1,1,-1
 461 594 l 1,2,-1
 617 594 l 1,3,-1
 617 148 l 2,4,5
 617 117 617 117 605.5 91 c 128,-1,6
 594 65 594 65 574 44.5 c 128,-1,7
 554 24 554 24 527 12 c 128,-1,8
 500 0 500 0 469 0 c 2,9,-1
 155 0 l 2,10,11
 124 0 124 0 97 12 c 128,-1,12
 70 24 70 24 49.5 44.5 c 128,-1,13
 29 65 29 65 17 91.5 c 128,-1,14
 5 118 5 118 5 148 c 2,15,-1
 5 232 l 1,16,-1
 162 232 l 1,17,-1
 162 157 l 1,0,-1
EndSplineSet
EndChar

StartChar: k
Encoding: 107 107 159
Width: 661
Flags: W
HStem: 0 21G<55 212 475.468 651> 218 158<212 292> 574 20G<475.468 651>
VStem: 55 157<0 218 376 788>
LayerCount: 2
Fore
SplineSet
651 594 m 1,0,-1
 651 541 l 1,1,-1
 430 297 l 1,2,-1
 651 53 l 1,3,-1
 651 0 l 1,4,-1
 494 0 l 1,5,-1
 292 218 l 1,6,-1
 212 218 l 1,7,-1
 212 0 l 1,8,-1
 55 0 l 1,9,-1
 55 788 l 1,10,-1
 212 788 l 1,11,-1
 212 376 l 1,12,-1
 292 376 l 1,13,-1
 494 594 l 1,14,-1
 651 594 l 1,0,-1
EndSplineSet
Substitution2: "'smcp' Lowercase to Small Capitals in Latin lookup 3 subtable" k.sc
Substitution2: "'salt' Stylistic Alternatives in Latin lookup 2 subtable" k.alt
AlternateSubs2: "'aalt' Access All Alternates in Latin lookup 1 subtable" k.sc k.alt
EndChar

StartChar: k.alt
Encoding: 65570 -1 160
Width: 685
Flags: W
HStem: 0 21G<55 212 501 657> 218 158<212 501> 574 20G<501 657>
VStem: 55 157<0 218 376 770> 501 156<0 218 376 594>
LayerCount: 2
Fore
SplineSet
657 367 m 2,0,1
 657 350 657 350 647.5 331.5 c 128,-1,2
 638 313 638 313 630 297 c 1,3,4
 638 281 638 281 647.5 263 c 128,-1,5
 657 245 657 245 657 227 c 2,6,-1
 657 0 l 1,7,-1
 501 0 l 1,8,-1
 501 218 l 1,9,-1
 212 218 l 1,10,-1
 212 0 l 1,11,-1
 55 0 l 1,12,-1
 55 770 l 1,13,-1
 212 770 l 1,14,-1
 212 376 l 1,15,-1
 501 376 l 1,16,-1
 501 594 l 1,17,-1
 657 594 l 1,18,-1
 657 367 l 2,0,1
EndSplineSet
EndChar

StartChar: k.sc
Encoding: 65571 -1 161
Width: 698
Flags: W
HStem: 0 21G<55 212 475.468 651> 218 158<212 292> 574 20G<55 212 475.468 651>
VStem: 55 157<0 218 376 594>
LayerCount: 2
Fore
SplineSet
651 594 m 1,0,-1
 651 541 l 1,1,-1
 430 297 l 1,2,-1
 651 53 l 1,3,-1
 651 0 l 1,4,-1
 494 0 l 1,5,-1
 292 218 l 1,6,-1
 212 218 l 1,7,-1
 212 0 l 1,8,-1
 55 0 l 1,9,-1
 55 594 l 1,10,-1
 212 594 l 1,11,-1
 212 376 l 1,12,-1
 292 376 l 1,13,-1
 494 594 l 1,14,-1
 651 594 l 1,0,-1
EndSplineSet
EndChar

StartChar: l
Encoding: 108 108 162
Width: 345
Flags: W
HStem: 0 157<211 331> 770 20G<53 211>
VStem: 53 158<157 790>
LayerCount: 2
Fore
SplineSet
211 790 m 1,0,-1
 211 157 l 1,1,-1
 331 157 l 1,2,-1
 331 0 l 1,3,-1
 202 0 l 2,4,5
 171 0 171 0 144.5 12 c 128,-1,6
 118 24 118 24 97.5 44.5 c 128,-1,7
 77 65 77 65 65 91.5 c 128,-1,8
 53 118 53 118 53 148 c 2,9,-1
 53 790 l 1,10,-1
 211 790 l 1,0,-1
EndSplineSet
Substitution2: "'smcp' Lowercase to Small Capitals in Latin lookup 3 subtable" l.sc
Substitution2: "'aalt' Access All Alternates in Latin lookup 0 subtable" l.sc
EndChar

StartChar: l.sc
Encoding: 65572 -1 163
Width: 674
Flags: W
HStem: 0 157<212 668> 574 20G<55 212>
VStem: 55 157<157 594>
LayerCount: 2
Fore
SplineSet
55 594 m 1,0,-1
 212 594 l 1,1,-1
 212 157 l 1,2,-1
 668 157 l 1,3,-1
 668 0 l 1,4,-1
 55 0 l 1,5,-1
 55 594 l 1,0,-1
EndSplineSet
EndChar

StartChar: less
Encoding: 60 60 164
Width: 484
Flags: W
LayerCount: 2
Fore
SplineSet
442 164 m 1,0,-1
 442 -17 l 1,1,-1
 5 237 l 1,2,-1
 5 368 l 1,3,-1
 442 622 l 1,4,-1
 442 441 l 1,5,-1
 203 303 l 1,6,-1
 442 164 l 1,0,-1
EndSplineSet
EndChar

StartChar: m
Encoding: 109 109 165
Width: 1001
Flags: W
HStem: 0 21G<55 212 409 566 763 919> 437 157<212 409 566 763>
VStem: 55 157<0 437> 409 157<0 437> 763 156<0 437>
LayerCount: 2
Fore
SplineSet
770 594 m 2,0,1
 801 594 801 594 828 582 c 128,-1,2
 855 570 855 570 875 549.5 c 128,-1,3
 895 529 895 529 907 502.5 c 128,-1,4
 919 476 919 476 919 445 c 2,5,-1
 919 0 l 1,6,-1
 763 0 l 1,7,-1
 763 437 l 1,8,-1
 566 437 l 1,9,-1
 566 0 l 1,10,-1
 409 0 l 1,11,-1
 409 437 l 1,12,-1
 212 437 l 1,13,-1
 212 0 l 1,14,-1
 55 0 l 1,15,-1
 55 594 l 1,16,-1
 770 594 l 2,0,1
EndSplineSet
Substitution2: "'smcp' Lowercase to Small Capitals in Latin lookup 3 subtable" m.sc
Substitution2: "'aalt' Access All Alternates in Latin lookup 0 subtable" m.sc
EndChar

StartChar: m.sc
Encoding: 65573 -1 166
Width: 843
Flags: W
HStem: 0 21G<55 212 618 776> 575 20G<55 231.944 598.197 776>
VStem: 55 157<0 349> 618 158<0 349>
LayerCount: 2
Fore
SplineSet
612 595 m 1,0,-1
 776 595 l 1,1,-1
 776 0 l 1,2,-1
 618 0 l 1,3,-1
 618 349 l 1,4,-1
 416 61 l 1,5,-1
 212 349 l 1,6,-1
 212 0 l 1,7,-1
 55 0 l 1,8,-1
 55 595 l 1,9,-1
 218 595 l 1,10,-1
 416 311 l 1,11,-1
 612 595 l 1,0,-1
EndSplineSet
EndChar

StartChar: minus
Encoding: 8722 8722 167
Width: 529
Flags: W
HStem: 224 157<60 487>
LayerCount: 2
Fore
SplineSet
487 224 m 1,0,-1
 60 224 l 1,1,-1
 60 381 l 1,2,-1
 487 381 l 1,3,-1
 487 224 l 1,0,-1
EndSplineSet
EndChar

StartChar: multiply
Encoding: 215 215 168
Width: 559
Flags: W
LayerCount: 2
Fore
SplineSet
519 477 m 1,0,-1
 386 307 l 1,1,-1
 519 135 l 1,2,-1
 519 84 l 1,3,-1
 356 84 l 1,4,-1
 286 179 l 1,5,6
 271 155 271 155 250.5 131.5 c 128,-1,7
 230 108 230 108 215 84 c 1,8,-1
 54 84 l 1,9,-1
 54 135 l 1,10,-1
 186 307 l 1,11,-1
 54 477 l 1,12,-1
 54 528 l 1,13,-1
 216 528 l 1,14,-1
 286 432 l 1,15,-1
 356 528 l 1,16,-1
 519 528 l 1,17,-1
 519 477 l 1,0,-1
EndSplineSet
EndChar

StartChar: n
Encoding: 110 110 169
Width: 712
Flags: W
HStem: 0 21G<55 212 501 657> 437 157<212 501>
VStem: 55 157<0 437> 501 156<0 437>
LayerCount: 2
Fore
SplineSet
509 594 m 2,0,1
 540 594 540 594 567 582 c 128,-1,2
 594 570 594 570 614 549.5 c 128,-1,3
 634 529 634 529 645.5 502.5 c 128,-1,4
 657 476 657 476 657 445 c 2,5,-1
 657 0 l 1,6,-1
 501 0 l 1,7,-1
 501 437 l 1,8,-1
 212 437 l 1,9,-1
 212 0 l 1,10,-1
 55 0 l 1,11,-1
 55 594 l 1,12,-1
 509 594 l 2,0,1
EndSplineSet
Substitution2: "'smcp' Lowercase to Small Capitals in Latin lookup 3 subtable" n.sc
Substitution2: "'aalt' Access All Alternates in Latin lookup 0 subtable" n.sc
EndChar

StartChar: n.sc
Encoding: 65574 -1 170
Width: 724
Flags: W
HStem: 0 21G<55 212 488.352 668> 574 20G<55 233.8 511 668>
VStem: 55 157<0 352> 511 157<244 594>
LayerCount: 2
Fore
SplineSet
511 594 m 1,0,-1
 668 594 l 1,1,-1
 668 0 l 1,2,-1
 505 0 l 1,3,-1
 212 352 l 1,4,-1
 212 0 l 1,5,-1
 55 0 l 1,6,-1
 55 594 l 1,7,-1
 217 594 l 1,8,-1
 511 244 l 1,9,-1
 511 594 l 1,0,-1
EndSplineSet
EndChar

StartChar: nine
Encoding: 57 57 171
Width: 847
Flags: W
HStem: 0 157<135.344 623> 288 157<213 623> 581 156<213 623>
VStem: 55 158<445 581> 623 156<157 288 445 581>
LayerCount: 2
Fore
SplineSet
205 0 m 2,0,1
 177 0 177 0 152 12.5 c 128,-1,2
 127 25 127 25 106.5 46 c 128,-1,3
 86 67 86 67 72 95.5 c 128,-1,4
 58 124 58 124 52 157 c 1,5,-1
 623 157 l 1,6,-1
 623 288 l 1,7,-1
 205 288 l 2,8,9
 174 288 174 288 147 299.5 c 128,-1,10
 120 311 120 311 99.5 331.5 c 128,-1,11
 79 352 79 352 67 379.5 c 128,-1,12
 55 407 55 407 55 437 c 2,13,-1
 55 589 l 2,14,15
 55 620 55 620 67 647 c 128,-1,16
 79 674 79 674 99.5 694 c 128,-1,17
 120 714 120 714 147 725.5 c 128,-1,18
 174 737 174 737 205 737 c 2,19,-1
 631 737 l 2,20,21
 662 737 662 737 689 725.5 c 128,-1,22
 716 714 716 714 736 694 c 128,-1,23
 756 674 756 674 767.5 647 c 128,-1,24
 779 620 779 620 779 589 c 2,25,-1
 779 148 l 2,26,27
 779 117 779 117 767.5 91 c 128,-1,28
 756 65 756 65 736 44.5 c 128,-1,29
 716 24 716 24 689 12 c 128,-1,30
 662 0 662 0 631 0 c 2,31,-1
 205 0 l 2,0,1
623 445 m 1,32,-1
 623 581 l 1,33,-1
 213 581 l 1,34,-1
 213 445 l 1,35,-1
 623 445 l 1,32,-1
EndSplineSet
Substitution2: "'ss03' Style Set 3 in Latin lookup 6 subtable" nine.alt
Substitution2: "'aalt' Access All Alternates in Latin lookup 0 subtable" nine.alt
EndChar

StartChar: nine.alt
Encoding: 57347 57347 172
Width: 802
Flags: W
HStem: 0 21G<580 736> 287 156<170 580> 579 157<170 580>
VStem: 12 158<443 579> 580 156<0 287 443 579>
LayerCount: 2
Fore
SplineSet
588 736 m 2,0,1
 619 736 619 736 646 724.5 c 128,-1,2
 673 713 673 713 693 692.5 c 128,-1,3
 713 672 713 672 724.5 644.5 c 128,-1,4
 736 617 736 617 736 587 c 2,5,-1
 736 0 l 1,6,-1
 580 0 l 1,7,-1
 580 287 l 1,8,-1
 162 287 l 2,9,10
 131 287 131 287 104 298.5 c 128,-1,11
 77 310 77 310 56.5 330 c 128,-1,12
 36 350 36 350 24 377 c 128,-1,13
 12 404 12 404 12 435 c 2,14,-1
 12 587 l 2,15,16
 12 618 12 618 24 645 c 128,-1,17
 36 672 36 672 56.5 692.5 c 128,-1,18
 77 713 77 713 104 724.5 c 128,-1,19
 131 736 131 736 162 736 c 2,20,-1
 588 736 l 2,0,1
580 579 m 1,21,-1
 170 579 l 1,22,-1
 170 443 l 1,23,-1
 580 443 l 1,24,-1
 580 579 l 1,21,-1
EndSplineSet
EndChar

StartChar: numbersign
Encoding: 35 35 174
Width: 816
Flags: W
HStem: 0 21G<61 225.5 359 523.5> 162 156<33 110 316 409 615 739> 427 157<61 191 400 490 699 768> 717 20G<285.5 453 584.595 752>
LayerCount: 2
Fore
SplineSet
768 427 m 1,0,-1
 650 427 l 1,1,-1
 615 318 l 1,2,-1
 739 318 l 1,3,-1
 739 162 l 1,4,-1
 564 162 l 1,5,6
 553 125 553 125 541 81 c 128,-1,7
 529 37 529 37 518 0 c 1,8,-1
 359 0 l 1,9,-1
 409 162 l 1,10,-1
 265 162 l 1,11,12
 254 125 254 125 242.5 81 c 128,-1,13
 231 37 231 37 220 0 c 1,14,-1
 61 0 l 1,15,-1
 110 162 l 1,16,-1
 33 162 l 1,17,-1
 33 318 l 1,18,-1
 157 318 l 1,19,-1
 191 427 l 1,20,-1
 61 427 l 1,21,-1
 61 584 l 1,22,-1
 242 584 l 1,23,24
 254 620 254 620 267 661 c 128,-1,25
 280 702 280 702 291 737 c 1,26,-1
 453 737 l 1,27,-1
 400 584 l 1,28,-1
 542 584 l 1,29,-1
 591 737 l 1,30,-1
 752 737 l 1,31,-1
 699 584 l 1,32,-1
 768 584 l 1,33,-1
 768 427 l 1,0,-1
456 318 m 1,34,-1
 490 427 l 1,35,-1
 351 427 l 1,36,-1
 316 318 l 1,37,-1
 456 318 l 1,34,-1
EndSplineSet
EndChar

StartChar: o
Encoding: 111 111 175
Width: 708
Flags: W
HStem: 0 157<209 498> 437 157<209 498>
VStem: 52 157<157 437> 498 156<157 437>
LayerCount: 2
Fore
SplineSet
506 594 m 2,0,1
 537 594 537 594 564 582 c 128,-1,2
 591 570 591 570 611 549.5 c 128,-1,3
 631 529 631 529 642.5 502.5 c 128,-1,4
 654 476 654 476 654 445 c 2,5,-1
 654 148 l 2,6,7
 654 117 654 117 642.5 91 c 128,-1,8
 631 65 631 65 611 44.5 c 128,-1,9
 591 24 591 24 564 12 c 128,-1,10
 537 0 537 0 506 0 c 2,11,-1
 201 0 l 2,12,13
 170 0 170 0 143.5 12 c 128,-1,14
 117 24 117 24 96.5 44.5 c 128,-1,15
 76 65 76 65 64 91.5 c 128,-1,16
 52 118 52 118 52 148 c 2,17,-1
 52 445 l 2,18,19
 52 476 52 476 64 502.5 c 128,-1,20
 76 529 76 529 96.5 549.5 c 128,-1,21
 117 570 117 570 143.5 582 c 128,-1,22
 170 594 170 594 201 594 c 2,23,-1
 506 594 l 2,0,1
209 157 m 1,24,-1
 498 157 l 1,25,-1
 498 437 l 1,26,-1
 209 437 l 1,27,-1
 209 157 l 1,24,-1
EndSplineSet
Substitution2: "'smcp' Lowercase to Small Capitals in Latin lookup 3 subtable" o.sc
Substitution2: "'aalt' Access All Alternates in Latin lookup 0 subtable" o.sc
EndChar

StartChar: o.sc
Encoding: 65575 -1 176
Width: 708
Flags: W
HStem: 0 157<209 498> 437 157<209 498>
VStem: 52 157<157 437> 498 156<157 437>
LayerCount: 2
Fore
SplineSet
506 594 m 2,0,1
 537 594 537 594 564 582 c 128,-1,2
 591 570 591 570 611 549.5 c 128,-1,3
 631 529 631 529 642.5 502.5 c 128,-1,4
 654 476 654 476 654 445 c 2,5,-1
 654 148 l 2,6,7
 654 117 654 117 642.5 91 c 128,-1,8
 631 65 631 65 611 44.5 c 128,-1,9
 591 24 591 24 564 12 c 128,-1,10
 537 0 537 0 506 0 c 2,11,-1
 201 0 l 2,12,13
 170 0 170 0 143.5 12 c 128,-1,14
 117 24 117 24 96.5 44.5 c 128,-1,15
 76 65 76 65 64 91.5 c 128,-1,16
 52 118 52 118 52 148 c 2,17,-1
 52 445 l 2,18,19
 52 476 52 476 64 502.5 c 128,-1,20
 76 529 76 529 96.5 549.5 c 128,-1,21
 117 570 117 570 143.5 582 c 128,-1,22
 170 594 170 594 201 594 c 2,23,-1
 506 594 l 2,0,1
209 157 m 1,24,-1
 498 157 l 1,25,-1
 498 437 l 1,26,-1
 209 437 l 1,27,-1
 209 157 l 1,24,-1
EndSplineSet
EndChar

StartChar: oe
Encoding: 339 339 180
Width: 1205
Flags: W
HStem: 0 157<210 500 656 1102> 218 137<656 945> 437 157<210 500 656 945>
VStem: 53 157<157 437> 500 156<157 218 355 437> 945 157<355 437>
LayerCount: 2
Fore
SplineSet
656 218 m 1,0,-1
 656 157 l 1,1,-1
 1102 157 l 1,2,-1
 1102 0 l 1,3,-1
 203 0 l 2,4,5
 172 0 172 0 144.5 12 c 128,-1,6
 117 24 117 24 97 44.5 c 128,-1,7
 77 65 77 65 65 91.5 c 128,-1,8
 53 118 53 118 53 148 c 2,9,-1
 53 445 l 2,10,11
 53 476 53 476 65 502.5 c 128,-1,12
 77 529 77 529 97 549.5 c 128,-1,13
 117 570 117 570 144.5 582 c 128,-1,14
 172 594 172 594 203 594 c 2,15,-1
 954 594 l 2,16,17
 985 594 985 594 1011.5 582 c 128,-1,18
 1038 570 1038 570 1058 549.5 c 128,-1,19
 1078 529 1078 529 1090 502.5 c 128,-1,20
 1102 476 1102 476 1102 445 c 2,21,-1
 1102 218 l 1,22,-1
 656 218 l 1,0,-1
945 355 m 1,23,-1
 945 437 l 1,24,-1
 656 437 l 1,25,-1
 656 355 l 1,26,-1
 945 355 l 1,23,-1
210 157 m 1,27,-1
 500 157 l 1,28,-1
 500 437 l 1,29,-1
 210 437 l 1,30,-1
 210 157 l 1,27,-1
EndSplineSet
EndChar

StartChar: one
Encoding: 49 49 182
Width: 400
Flags: W
HStem: 0 21G<243 399> 717 20G<220.143 399>
VStem: 243 156<0 499>
LayerCount: 2
Fore
SplineSet
237 737 m 1,0,-1
 399 737 l 1,1,-1
 399 0 l 1,2,-1
 243 0 l 1,3,-1
 243 499 l 1,4,-1
 241 497 l 1,5,-1
 242 497 l 1,6,-1
 209 457 l 1,7,-1
 1 457 l 1,8,-1
 237 737 l 1,0,-1
EndSplineSet
EndChar

StartChar: p
Encoding: 112 112 184
Width: 679
Flags: W
HStem: -236 21G<55 212> 0 157<212 501> 437 157<212 501>
VStem: 55 157<-236 0 157 437> 501 156<157 437>
LayerCount: 2
Fore
SplineSet
509 594 m 2,0,1
 540 594 540 594 567 582 c 128,-1,2
 594 570 594 570 614 549.5 c 128,-1,3
 634 529 634 529 645.5 502.5 c 128,-1,4
 657 476 657 476 657 445 c 2,5,-1
 657 148 l 2,6,7
 657 117 657 117 645.5 91 c 128,-1,8
 634 65 634 65 614 44.5 c 128,-1,9
 594 24 594 24 567 12 c 128,-1,10
 540 0 540 0 509 0 c 2,11,-1
 212 0 l 1,12,-1
 212 -236 l 1,13,-1
 55 -236 l 1,14,-1
 55 594 l 1,15,-1
 509 594 l 2,0,1
212 157 m 1,16,-1
 501 157 l 1,17,-1
 501 437 l 1,18,-1
 212 437 l 1,19,-1
 212 157 l 1,16,-1
EndSplineSet
Substitution2: "'smcp' Lowercase to Small Capitals in Latin lookup 3 subtable" p.sc
Substitution2: "'aalt' Access All Alternates in Latin lookup 0 subtable" p.sc
EndChar

StartChar: p.sc
Encoding: 65576 -1 185
Width: 675
Flags: W
HStem: 0 21G<55 212> 175 6<212 215> 181 159<212 501> 437 157<212 501>
VStem: 55 157<0 180.999 340 437> 212 3<175 175.901> 501 156<340 437>
LayerCount: 2
Fore
SplineSet
509 594 m 2,0,1
 540 594 540 594 567 582 c 128,-1,2
 594 570 594 570 614 549.5 c 128,-1,3
 634 529 634 529 645.5 502 c 128,-1,4
 657 475 657 475 657 445 c 2,5,-1
 657 331 l 2,6,7
 657 300 657 300 645.5 273.5 c 128,-1,8
 634 247 634 247 614 226.5 c 128,-1,9
 594 206 594 206 567 194 c 128,-1,10
 540 182 540 182 509 182 c 2,11,-1
 212 181 l 2,12,13
 215 181 215 181 215 175 c 1,14,-1
 214 175 l 2,15,16
 212 175 212 175 212 176 c 2,17,-1
 212 0 l 1,18,-1
 55 0 l 1,19,-1
 55 594 l 1,20,-1
 509 594 l 2,0,1
212 340 m 1,21,-1
 501 340 l 1,22,-1
 501 437 l 1,23,-1
 212 437 l 1,24,-1
 212 340 l 1,21,-1
EndSplineSet
EndChar

StartChar: paragraph
Encoding: 182 182 186
Width: 852
Flags: W
HStem: 0 21G<420 578 645 802> 238 157<214 420 578 645> 565 158<214 420 578 645>
VStem: 57 157<395 565> 420 158<0 238 395 565> 645 157<0 238 395 565>
LayerCount: 2
Fore
SplineSet
57 573 m 2,0,1
 57 604 57 604 69 631 c 128,-1,2
 81 658 81 658 101.5 678.5 c 128,-1,3
 122 699 122 699 149 711 c 128,-1,4
 176 723 176 723 207 723 c 2,5,-1
 802 723 l 1,6,-1
 802 0 l 1,7,-1
 645 0 l 1,8,-1
 645 238 l 1,9,-1
 578 238 l 1,10,-1
 578 0 l 1,11,-1
 420 0 l 1,12,-1
 420 238 l 1,13,-1
 207 238 l 2,14,15
 176 238 176 238 149 249.5 c 128,-1,16
 122 261 122 261 101.5 281.5 c 128,-1,17
 81 302 81 302 69 329 c 128,-1,18
 57 356 57 356 57 386 c 2,19,-1
 57 573 l 2,0,1
214 565 m 1,20,-1
 214 395 l 1,21,-1
 420 395 l 1,22,-1
 420 565 l 1,23,-1
 214 565 l 1,20,-1
578 395 m 1,24,-1
 645 395 l 1,25,-1
 645 565 l 1,26,-1
 578 565 l 1,27,-1
 578 395 l 1,24,-1
EndSplineSet
EndChar

StartChar: parenleft
Encoding: 40 40 187
Width: 301
Flags: W
HStem: 0 21G<186.5 269> 717 20G<186.5 269>
VStem: 53 216<72.4688 157 581 666.266>
LayerCount: 2
Fore
SplineSet
210 581 m 1,0,-1
 210 157 l 1,1,-1
 269 157 l 1,2,-1
 269 0 l 1,3,-1
 202 0 l 2,4,5
 171 0 171 0 144 12 c 128,-1,6
 117 24 117 24 97 44.5 c 128,-1,7
 77 65 77 65 65 91.5 c 128,-1,8
 53 118 53 118 53 148 c 2,9,-1
 53 589 l 2,10,11
 53 620 53 620 65 647 c 128,-1,12
 77 674 77 674 97 694 c 128,-1,13
 117 714 117 714 144 725.5 c 128,-1,14
 171 737 171 737 202 737 c 2,15,-1
 269 737 l 1,16,-1
 269 581 l 1,17,-1
 210 581 l 1,0,-1
EndSplineSet
EndChar

StartChar: parenright
Encoding: 41 41 188
Width: 304
Flags: W
HStem: 0 21G<57 141.5> 717 20G<57 141.5>
VStem: 57 217<70.7827 157 581 667.782>
LayerCount: 2
Fore
SplineSet
57 157 m 1,0,-1
 117 157 l 1,1,-1
 117 581 l 1,2,-1
 57 581 l 1,3,-1
 57 737 l 1,4,-1
 126 737 l 2,5,6
 157 737 157 737 183.5 725.5 c 128,-1,7
 210 714 210 714 230.5 694 c 128,-1,8
 251 674 251 674 262.5 647 c 128,-1,9
 274 620 274 620 274 589 c 2,10,-1
 274 148 l 2,11,12
 274 117 274 117 262.5 91 c 128,-1,13
 251 65 251 65 230.5 44.5 c 128,-1,14
 210 24 210 24 183.5 12 c 128,-1,15
 157 0 157 0 126 0 c 2,16,-1
 57 0 l 1,17,-1
 57 157 l 1,0,-1
EndSplineSet
EndChar

StartChar: percent
Encoding: 37 37 189
Width: 989
Flags: W
HStem: 0 21G<137 212.293> 9 128<698.521 802.18> 232 128<698.521 801.397> 378 129<177.506 281.494> 601 128<178.603 280.4>
VStem: 49 128<507.447 600.394> 282 129<507.447 600.394> 570 128<137.82 231.553> 803 128<137.521 231.541>
LayerCount: 2
Fore
SplineSet
861 736 m 1,0,-1
 861 577 l 1,1,-1
 189 0 l 1,2,-1
 137 0 l 1,3,-1
 137 161 l 1,4,-1
 809 736 l 1,5,-1
 861 736 l 1,0,-1
271 729 m 2,6,7
 332 729 332 729 371.5 690.5 c 128,-1,8
 411 652 411 652 411 591 c 2,9,-1
 411 517 l 2,10,11
 411 486 411 486 400.5 460.5 c 128,-1,12
 390 435 390 435 371.5 416.5 c 128,-1,13
 353 398 353 398 327.5 388 c 128,-1,14
 302 378 302 378 271 378 c 2,15,-1
 188 378 l 2,16,17
 157 378 157 378 131.5 388 c 128,-1,18
 106 398 106 398 88 416.5 c 128,-1,19
 70 435 70 435 59.5 460.5 c 128,-1,20
 49 486 49 486 49 517 c 2,21,-1
 49 591 l 2,22,23
 49 652 49 652 88 690.5 c 128,-1,24
 127 729 127 729 188 729 c 2,25,-1
 271 729 l 2,6,7
792 360 m 2,26,27
 853 360 853 360 892 322 c 128,-1,28
 931 284 931 284 931 222 c 2,29,-1
 931 148 l 2,30,31
 931 117 931 117 920.5 92 c 128,-1,32
 910 67 910 67 891.5 48.5 c 128,-1,33
 873 30 873 30 847.5 19.5 c 128,-1,34
 822 9 822 9 792 9 c 2,35,-1
 709 9 l 2,36,37
 678 9 678 9 653 19.5 c 128,-1,38
 628 30 628 30 609.5 48.5 c 128,-1,39
 591 67 591 67 580.5 92.5 c 128,-1,40
 570 118 570 118 570 148 c 2,41,-1
 570 222 l 2,42,43
 570 253 570 253 580.5 278.5 c 128,-1,44
 591 304 591 304 609.5 322 c 128,-1,45
 628 340 628 340 653 350 c 128,-1,46
 678 360 678 360 709 360 c 2,47,-1
 792 360 l 2,26,27
698 137 m 1,48,-1
 803 137 l 1,49,-1
 803 232 l 1,50,-1
 698 232 l 1,51,-1
 698 137 l 1,48,-1
177 507 m 1,52,-1
 282 507 l 1,53,-1
 282 601 l 1,54,-1
 177 601 l 1,55,-1
 177 507 l 1,52,-1
EndSplineSet
EndChar

StartChar: period
Encoding: 46 46 190
Width: 238
Flags: W
HStem: 0 157<55 212>
VStem: 55 157<0 157>
LayerCount: 2
Fore
SplineSet
212 0 m 1,0,-1
 55 0 l 1,1,-1
 55 157 l 1,2,-1
 212 157 l 1,3,-1
 212 0 l 1,0,-1
EndSplineSet
EndChar

StartChar: plus
Encoding: 43 43 191
Width: 465
Flags: W
HStem: 224 157<17 151 307 444>
VStem: 151 156<88 224 381 515>
LayerCount: 2
Fore
SplineSet
307 515 m 1,0,-1
 307 381 l 1,1,-1
 444 381 l 1,2,-1
 444 224 l 1,3,-1
 307 224 l 1,4,-1
 307 88 l 1,5,-1
 151 88 l 1,6,-1
 151 224 l 1,7,-1
 17 224 l 1,8,-1
 17 381 l 1,9,-1
 151 381 l 1,10,-1
 151 515 l 1,11,-1
 307 515 l 1,0,-1
EndSplineSet
EndChar

StartChar: q
Encoding: 113 113 192
Width: 679
Flags: W
HStem: -236 21G<467 624> 0 157<178 467> 437 157<178 467>
VStem: 20 158<157 437> 467 157<-236 0 157 437>
LayerCount: 2
Fore
SplineSet
20 445 m 2,0,1
 20 476 20 476 32 502.5 c 128,-1,2
 44 529 44 529 64 549.5 c 128,-1,3
 84 570 84 570 111 582 c 128,-1,4
 138 594 138 594 169 594 c 2,5,-1
 624 594 l 1,6,-1
 624 -236 l 1,7,-1
 467 -236 l 1,8,-1
 467 0 l 1,9,-1
 169 0 l 2,10,11
 138 0 138 0 111 12 c 128,-1,12
 84 24 84 24 64 44.5 c 128,-1,13
 44 65 44 65 32 91.5 c 128,-1,14
 20 118 20 118 20 148 c 2,15,-1
 20 445 l 2,0,1
178 157 m 1,16,-1
 467 157 l 1,17,-1
 467 437 l 1,18,-1
 178 437 l 1,19,-1
 178 157 l 1,16,-1
EndSplineSet
Substitution2: "'smcp' Lowercase to Small Capitals in Latin lookup 3 subtable" q.sc
Substitution2: "'aalt' Access All Alternates in Latin lookup 0 subtable" q.sc
EndChar

StartChar: q.sc
Encoding: 65577 -1 193
Width: 788
Flags: W
HStem: 0 157<210 499 655 739> 437 157<210 499>
VStem: 53 157<157 437> 499 156<157 437>
LayerCount: 2
Fore
SplineSet
655 157 m 1,0,-1
 739 157 l 1,1,-1
 739 0 l 1,2,-1
 202 0 l 2,3,4
 171 0 171 0 144.5 12 c 128,-1,5
 118 24 118 24 97.5 44.5 c 128,-1,6
 77 65 77 65 65 91.5 c 128,-1,7
 53 118 53 118 53 148 c 2,8,-1
 53 445 l 2,9,10
 53 476 53 476 65 502.5 c 128,-1,11
 77 529 77 529 97.5 549.5 c 128,-1,12
 118 570 118 570 144.5 582 c 128,-1,13
 171 594 171 594 202 594 c 2,14,-1
 507 594 l 2,15,16
 538 594 538 594 565 582 c 128,-1,17
 592 570 592 570 612 549.5 c 128,-1,18
 632 529 632 529 643.5 502.5 c 128,-1,19
 655 476 655 476 655 445 c 2,20,-1
 655 157 l 1,0,-1
210 157 m 1,21,-1
 499 157 l 1,22,-1
 499 437 l 1,23,-1
 210 437 l 1,24,-1
 210 157 l 1,21,-1
EndSplineSet
EndChar

StartChar: question
Encoding: 63 63 194
Width: 694
Flags: W
HStem: 0 157<131 289> 269 158<289 512> 581 156<32 512>
VStem: 131 158<0 157 199 269> 512 157<427 581>
LayerCount: 2
Fore
SplineSet
519 737 m 2,0,1
 550 737 550 737 577.5 725.5 c 128,-1,2
 605 714 605 714 625 694 c 128,-1,3
 645 674 645 674 657 647 c 128,-1,4
 669 620 669 620 669 589 c 2,5,-1
 669 419 l 2,6,7
 669 388 669 388 657 361 c 128,-1,8
 645 334 645 334 625 313.5 c 128,-1,9
 605 293 605 293 577.5 281 c 128,-1,10
 550 269 550 269 519 269 c 2,11,-1
 289 269 l 1,12,-1
 289 199 l 1,13,-1
 131 199 l 1,14,-1
 131 279 l 2,15,16
 131 310 131 310 143 337 c 128,-1,17
 155 364 155 364 175 383.5 c 128,-1,18
 195 403 195 403 222 415 c 128,-1,19
 249 427 249 427 280 427 c 2,20,-1
 512 427 l 1,21,-1
 512 581 l 1,22,-1
 32 581 l 1,23,-1
 32 737 l 1,24,-1
 519 737 l 2,0,1
131 0 m 1,25,-1
 131 157 l 1,26,-1
 289 157 l 1,27,-1
 289 0 l 1,28,-1
 131 0 l 1,25,-1
EndSplineSet
Substitution2: "'salt' Stylistic Alternatives in Latin lookup 2 subtable" question.alt
Substitution2: "'aalt' Access All Alternates in Latin lookup 0 subtable" question.alt
EndChar

StartChar: question.alt
Encoding: 57350 57350 195
Width: 683
Flags: W
HStem: 0 157<182 340> 269 158<340 500> 581 156<184 500>
VStem: 28 156<480 581> 182 158<0 157 195 269> 500 156<427 581>
LayerCount: 2
Fore
SplineSet
508 737 m 2,0,1
 539 737 539 737 565.5 725.5 c 128,-1,2
 592 714 592 714 612.5 694 c 128,-1,3
 633 674 633 674 644.5 647 c 128,-1,4
 656 620 656 620 656 589 c 2,5,-1
 656 419 l 2,6,7
 656 388 656 388 644.5 361 c 128,-1,8
 633 334 633 334 612.5 313.5 c 128,-1,9
 592 293 592 293 565.5 281 c 128,-1,10
 539 269 539 269 508 269 c 2,11,-1
 340 269 l 1,12,-1
 340 195 l 1,13,-1
 182 195 l 1,14,-1
 182 279 l 2,15,16
 182 310 182 310 194 337 c 128,-1,17
 206 364 206 364 226.5 383.5 c 128,-1,18
 247 403 247 403 273.5 415 c 128,-1,19
 300 427 300 427 331 427 c 2,20,-1
 500 427 l 1,21,-1
 500 581 l 1,22,-1
 184 581 l 1,23,-1
 184 480 l 1,24,-1
 28 480 l 1,25,-1
 28 613 l 1,26,27
 32 639 32 639 44.5 662 c 128,-1,28
 57 685 57 685 76.5 701.5 c 128,-1,29
 96 718 96 718 121 727.5 c 128,-1,30
 146 737 146 737 174 737 c 2,31,-1
 508 737 l 2,0,1
182 0 m 1,32,-1
 182 157 l 1,33,-1
 340 157 l 1,34,-1
 340 0 l 1,35,-1
 182 0 l 1,32,-1
EndSplineSet
EndChar

StartChar: questiondown
Encoding: 191 191 196
Width: 691
Flags: W
HStem: 0 157<176 657> 310 158<176 400> 566 157<400 557>
VStem: 19 157<157 310> 400 157<468 545 566 723>
LayerCount: 2
Fore
SplineSet
169 0 m 2,0,1
 138 0 138 0 111 12 c 128,-1,2
 84 24 84 24 63.5 44.5 c 128,-1,3
 43 65 43 65 31 91.5 c 128,-1,4
 19 118 19 118 19 148 c 2,5,-1
 19 319 l 2,6,7
 19 350 19 350 31 377 c 128,-1,8
 43 404 43 404 63.5 424 c 128,-1,9
 84 444 84 444 111 456 c 128,-1,10
 138 468 138 468 169 468 c 2,11,-1
 400 468 l 1,12,-1
 400 545 l 1,13,-1
 557 545 l 1,14,-1
 557 460 l 2,15,16
 557 429 557 429 545.5 402 c 128,-1,17
 534 375 534 375 513.5 354.5 c 128,-1,18
 493 334 493 334 465.5 322 c 128,-1,19
 438 310 438 310 408 310 c 2,20,-1
 176 310 l 1,21,-1
 176 157 l 1,22,-1
 657 157 l 1,23,-1
 657 0 l 1,24,-1
 169 0 l 2,0,1
557 566 m 1,25,-1
 400 566 l 1,26,-1
 400 723 l 1,27,-1
 557 723 l 1,28,-1
 557 566 l 1,25,-1
EndSplineSet
EndChar

StartChar: quotedbl
Encoding: 34 34 197
Width: 405
Flags: W
HStem: 517 206<37 193 222 378>
VStem: 37 156<517 723> 222 156<517 723>
LayerCount: 2
Fore
SplineSet
193 517 m 1,0,-1
 37 517 l 1,1,-1
 37 723 l 1,2,-1
 193 723 l 1,3,-1
 193 517 l 1,0,-1
378 517 m 1,4,-1
 222 517 l 1,5,-1
 222 723 l 1,6,-1
 378 723 l 1,7,-1
 378 517 l 1,4,-1
EndSplineSet
EndChar

StartChar: quotedblleft
Encoding: 8220 8220 198
Width: 477
Flags: W
HStem: 447 282
VStem: 46 157<447 646.871> 266 157<449 649.312>
LayerCount: 2
Fore
SplineSet
46 447 m 1,0,-1
 46 577 l 2,1,2
 46 606 46 606 58.5 630.5 c 128,-1,3
 71 655 71 655 92 675.5 c 128,-1,4
 113 696 113 696 141.5 710 c 128,-1,5
 170 724 170 724 203 729 c 1,6,-1
 203 447 l 1,7,-1
 46 447 l 1,0,-1
266 449 m 1,8,-1
 266 578 l 2,9,10
 266 607 266 607 278 631.5 c 128,-1,11
 290 656 290 656 311 676.5 c 128,-1,12
 332 697 332 697 360.5 711 c 128,-1,13
 389 725 389 725 423 730 c 1,14,-1
 423 449 l 1,15,-1
 266 449 l 1,8,-1
EndSplineSet
EndChar

StartChar: quotedblright
Encoding: 8221 8221 199
Width: 477
Flags: W
HStem: 442 281<55 121.033 274 340.594>
VStem: 55 157<523.148 723> 274 158<523.148 723>
LayerCount: 2
Fore
SplineSet
432 723 m 1,0,-1
 432 595 l 2,1,2
 432 567 432 567 420 541.5 c 128,-1,3
 408 516 408 516 387 496 c 128,-1,4
 366 476 366 476 337 462.5 c 128,-1,5
 308 449 308 449 274 442 c 1,6,-1
 274 723 l 1,7,-1
 432 723 l 1,0,-1
212 723 m 1,8,-1
 212 595 l 2,9,10
 212 567 212 567 200 541.5 c 128,-1,11
 188 516 188 516 167 496 c 128,-1,12
 146 476 146 476 117.5 462.5 c 128,-1,13
 89 449 89 449 55 442 c 1,14,-1
 55 723 l 1,15,-1
 212 723 l 1,8,-1
EndSplineSet
EndChar

StartChar: quoteleft
Encoding: 8216 8216 200
Width: 245
Flags: W
HStem: 447 282<122.752 191>
VStem: 35 156<447 649.746>
LayerCount: 2
Fore
SplineSet
35 447 m 1,0,-1
 35 577 l 2,1,2
 35 606 35 606 46.5 630.5 c 128,-1,3
 58 655 58 655 79 675.5 c 128,-1,4
 100 696 100 696 129 710 c 128,-1,5
 158 724 158 724 191 729 c 1,6,-1
 191 447 l 1,7,-1
 35 447 l 1,0,-1
EndSplineSet
EndChar

StartChar: quoteright
Encoding: 8217 8217 201
Width: 243
Flags: W
HStem: 442 281<55 121.033>
VStem: 55 157<523.148 723>
LayerCount: 2
Fore
SplineSet
212 723 m 1,0,-1
 212 595 l 2,1,2
 212 567 212 567 200 541.5 c 128,-1,3
 188 516 188 516 167 496 c 128,-1,4
 146 476 146 476 117.5 462.5 c 128,-1,5
 89 449 89 449 55 442 c 1,6,-1
 55 723 l 1,7,-1
 212 723 l 1,0,-1
EndSplineSet
EndChar

StartChar: quotesingle
Encoding: 39 39 202
Width: 257
Flags: W
HStem: 516 207<60 217>
VStem: 60 157<516 723>
LayerCount: 2
Fore
SplineSet
217 516 m 1,0,-1
 60 516 l 1,1,-1
 60 723 l 1,2,-1
 217 723 l 1,3,-1
 217 516 l 1,0,-1
EndSplineSet
EndChar

StartChar: r
Encoding: 114 114 203
Width: 538
Flags: W
HStem: 0 21G<53 210> 437 157<210 530>
VStem: 53 157<0 437>
LayerCount: 2
Fore
SplineSet
530 594 m 1,0,-1
 530 437 l 1,1,-1
 210 437 l 1,2,-1
 210 0 l 1,3,-1
 53 0 l 1,4,-1
 53 445 l 2,5,6
 53 476 53 476 65 502.5 c 128,-1,7
 77 529 77 529 97.5 549.5 c 128,-1,8
 118 570 118 570 145 582 c 128,-1,9
 172 594 172 594 203 594 c 2,10,-1
 530 594 l 1,0,-1
EndSplineSet
Substitution2: "'smcp' Lowercase to Small Capitals in Latin lookup 3 subtable" r.sc
Substitution2: "'aalt' Access All Alternates in Latin lookup 0 subtable" r.sc
EndChar

StartChar: r.sc
Encoding: 65578 -1 204
Width: 716
Flags: W
HStem: 0 21G<55 212 487.022 668> 182 158<212 309> 437 157<212 501>
VStem: 55 157<0 182 340 437> 501 157<340 437>
LayerCount: 2
Fore
SplineSet
658 331 m 2,0,1
 658 302 658 302 648 276.5 c 128,-1,2
 638 251 638 251 619.5 231 c 128,-1,3
 601 211 601 211 576.5 198 c 128,-1,4
 552 185 552 185 523 182 c 1,5,-1
 668 55 l 1,6,-1
 668 0 l 1,7,-1
 509 0 l 1,8,-1
 309 182 l 1,9,-1
 212 182 l 1,10,-1
 212 0 l 1,11,-1
 55 0 l 1,12,-1
 55 594 l 1,13,-1
 509 594 l 2,14,15
 540 594 540 594 567 582 c 128,-1,16
 594 570 594 570 614.5 549.5 c 128,-1,17
 635 529 635 529 646.5 502 c 128,-1,18
 658 475 658 475 658 445 c 2,19,-1
 658 331 l 2,0,1
212 340 m 1,20,-1
 501 340 l 1,21,-1
 501 437 l 1,22,-1
 212 437 l 1,23,-1
 212 340 l 1,20,-1
EndSplineSet
EndChar

StartChar: ring
Encoding: 730 730 205
Width: 238
Flags: W
HStem: 766 71<88 140> 892 80<88 140>
VStem: 9 79<837.108 892> 140 78<837.108 892>
LayerCount: 2
Fore
SplineSet
140 972 m 2,0,1
 173 972 173 972 195.5 949 c 128,-1,2
 218 926 218 926 218 894 c 2,3,-1
 218 844 l 2,4,5
 218 812 218 812 195.5 789 c 128,-1,6
 173 766 173 766 140 766 c 2,7,-1
 88 766 l 2,8,9
 55 766 55 766 32 789 c 128,-1,10
 9 812 9 812 9 844 c 2,11,-1
 9 894 l 2,12,13
 9 926 9 926 32 949 c 128,-1,14
 55 972 55 972 88 972 c 2,15,-1
 140 972 l 2,0,1
88 837 m 1,16,-1
 140 837 l 1,17,-1
 140 892 l 1,18,-1
 88 892 l 1,19,-1
 88 837 l 1,16,-1
EndSplineSet
EndChar

StartChar: s
Encoding: 115 115 206
Width: 702
Flags: W
HStem: 0 157<206 495> 218 158<206 495> 437 157<206 495>
VStem: 49 157<157 178 376 437> 495 157<157 218 416 437>
CounterMasks: 1 e0
LayerCount: 2
Fore
SplineSet
652 416 m 1,0,-1
 495 416 l 1,1,-1
 495 437 l 1,2,-1
 206 437 l 1,3,-1
 206 376 l 1,4,-1
 503 376 l 2,5,6
 534 376 534 376 561.5 364 c 128,-1,7
 589 352 589 352 609 331.5 c 128,-1,8
 629 311 629 311 640.5 284.5 c 128,-1,9
 652 258 652 258 652 227 c 2,10,-1
 652 148 l 2,11,12
 652 117 652 117 640.5 91 c 128,-1,13
 629 65 629 65 609 44.5 c 128,-1,14
 589 24 589 24 561.5 12 c 128,-1,15
 534 0 534 0 503 0 c 2,16,-1
 198 0 l 2,17,18
 167 0 167 0 140.5 12 c 128,-1,19
 114 24 114 24 93.5 44.5 c 128,-1,20
 73 65 73 65 61 91.5 c 128,-1,21
 49 118 49 118 49 148 c 2,22,-1
 49 178 l 1,23,-1
 206 178 l 1,24,-1
 206 157 l 1,25,-1
 495 157 l 1,26,-1
 495 218 l 1,27,-1
 198 218 l 2,28,29
 167 218 167 218 140.5 230 c 128,-1,30
 114 242 114 242 93.5 262.5 c 128,-1,31
 73 283 73 283 61 309.5 c 128,-1,32
 49 336 49 336 49 367 c 2,33,-1
 49 445 l 2,34,35
 49 476 49 476 61 502.5 c 128,-1,36
 73 529 73 529 93.5 549.5 c 128,-1,37
 114 570 114 570 140.5 582 c 128,-1,38
 167 594 167 594 198 594 c 2,39,-1
 503 594 l 2,40,41
 534 594 534 594 561.5 582 c 128,-1,42
 589 570 589 570 609 549.5 c 128,-1,43
 629 529 629 529 640.5 502.5 c 128,-1,44
 652 476 652 476 652 445 c 2,45,-1
 652 416 l 1,0,-1
EndSplineSet
Substitution2: "'smcp' Lowercase to Small Capitals in Latin lookup 3 subtable" s.sc
Substitution2: "'aalt' Access All Alternates in Latin lookup 0 subtable" s.sc
EndChar

StartChar: s.sc
Encoding: 65579 -1 207
Width: 703
Flags: W
HStem: 0 157<207 496> 218 158<207 496> 437 157<207 496>
VStem: 50 157<157 177 376 437> 496 157<157 218 417 437>
CounterMasks: 1 e0
LayerCount: 2
Fore
SplineSet
653 417 m 1,0,-1
 496 417 l 1,1,-1
 496 437 l 1,2,-1
 207 437 l 1,3,-1
 207 376 l 1,4,-1
 504 376 l 2,5,6
 535 376 535 376 562 364 c 128,-1,7
 589 352 589 352 609.5 331.5 c 128,-1,8
 630 311 630 311 641.5 284.5 c 128,-1,9
 653 258 653 258 653 227 c 2,10,-1
 653 148 l 2,11,12
 653 117 653 117 641.5 91 c 128,-1,13
 630 65 630 65 609.5 44.5 c 128,-1,14
 589 24 589 24 562 12 c 128,-1,15
 535 0 535 0 504 0 c 2,16,-1
 199 0 l 2,17,18
 168 0 168 0 141.5 12 c 128,-1,19
 115 24 115 24 94.5 44.5 c 128,-1,20
 74 65 74 65 62 91.5 c 128,-1,21
 50 118 50 118 50 148 c 2,22,-1
 50 177 l 1,23,-1
 207 177 l 1,24,-1
 207 157 l 1,25,-1
 496 157 l 1,26,-1
 496 218 l 1,27,-1
 199 218 l 2,28,29
 168 218 168 218 141.5 230 c 128,-1,30
 115 242 115 242 94.5 262.5 c 128,-1,31
 74 283 74 283 62 309.5 c 128,-1,32
 50 336 50 336 50 367 c 2,33,-1
 50 445 l 2,34,35
 50 476 50 476 62 502.5 c 128,-1,36
 74 529 74 529 94.5 549.5 c 128,-1,37
 115 570 115 570 141.5 582 c 128,-1,38
 168 594 168 594 199 594 c 2,39,-1
 504 594 l 2,40,41
 535 594 535 594 562 582 c 128,-1,42
 589 570 589 570 609.5 549.5 c 128,-1,43
 630 529 630 529 641.5 502.5 c 128,-1,44
 653 476 653 476 653 445 c 2,45,-1
 653 417 l 1,0,-1
EndSplineSet
EndChar

StartChar: semicolon
Encoding: 59 59 209
Width: 272
Flags: W
HStem: 436 158<52 210>
VStem: 53 157<-55.0469 145 436 594>
LayerCount: 2
Fore
SplineSet
210 436 m 1,0,-1
 52 436 l 1,1,-1
 52 594 l 1,2,-1
 210 594 l 1,3,-1
 210 436 l 1,0,-1
210 145 m 1,4,-1
 210 16 l 2,5,6
 210 -12 210 -12 198 -37 c 128,-1,7
 186 -62 186 -62 165 -82 c 128,-1,8
 144 -102 144 -102 115.5 -116 c 128,-1,9
 87 -130 87 -130 53 -136 c 1,10,-1
 53 145 l 1,11,-1
 210 145 l 1,4,-1
EndSplineSet
EndChar

StartChar: seven
Encoding: 55 55 210
Width: 675
Flags: W
HStem: 0 21G<459 615> 582 156<3 459>
VStem: 459 156<0 582>
LayerCount: 2
Fore
SplineSet
467 738 m 2,0,1
 498 738 498 738 525 726.5 c 128,-1,2
 552 715 552 715 572 695 c 128,-1,3
 592 675 592 675 603.5 648 c 128,-1,4
 615 621 615 621 615 590 c 2,5,-1
 615 0 l 1,6,-1
 459 0 l 1,7,-1
 459 582 l 1,8,-1
 3 582 l 1,9,-1
 3 738 l 1,10,-1
 467 738 l 2,0,1
EndSplineSet
Substitution2: "'ss03' Style Set 3 in Latin lookup 6 subtable" seven.alt
Substitution2: "'aalt' Access All Alternates in Latin lookup 0 subtable" seven.alt
EndChar

StartChar: seven.alt
Encoding: 57346 57346 211
Width: 789
Flags: W
HStem: 0 21G<47 223.443> 581 156<47 479>
LayerCount: 2
Fore
SplineSet
771 737 m 1,0,-1
 771 686 l 1,1,-1
 207 0 l 1,2,-1
 47 0 l 1,3,-1
 47 52 l 1,4,-1
 479 581 l 1,5,-1
 47 581 l 1,6,-1
 47 737 l 1,7,-1
 771 737 l 1,0,-1
EndSplineSet
EndChar

StartChar: six
Encoding: 54 54 212
Width: 839
Flags: W
HStem: 0 157<215 626> 295 158<215 626> 581 156<215 671>
VStem: 58 157<157 295 453 581> 626 156<157 295>
LayerCount: 2
Fore
SplineSet
215 581 m 1,0,-1
 215 453 l 1,1,-1
 633 453 l 2,2,3
 664 453 664 453 691 441 c 128,-1,4
 718 429 718 429 738.5 409 c 128,-1,5
 759 389 759 389 770.5 362 c 128,-1,6
 782 335 782 335 782 304 c 2,7,-1
 782 148 l 2,8,9
 782 117 782 117 770.5 91 c 128,-1,10
 759 65 759 65 738.5 44.5 c 128,-1,11
 718 24 718 24 691 12 c 128,-1,12
 664 0 664 0 633 0 c 2,13,-1
 208 0 l 2,14,15
 177 0 177 0 150 12 c 128,-1,16
 123 24 123 24 102.5 44.5 c 128,-1,17
 82 65 82 65 70 91.5 c 128,-1,18
 58 118 58 118 58 148 c 2,19,-1
 58 589 l 2,20,21
 58 620 58 620 70 647 c 128,-1,22
 82 674 82 674 102.5 694 c 128,-1,23
 123 714 123 714 150 725.5 c 128,-1,24
 177 737 177 737 208 737 c 2,25,-1
 671 737 l 1,26,-1
 671 581 l 1,27,-1
 215 581 l 1,0,-1
215 157 m 1,28,-1
 626 157 l 1,29,-1
 626 295 l 1,30,-1
 215 295 l 1,31,-1
 215 157 l 1,28,-1
EndSplineSet
EndChar

StartChar: slash
Encoding: 47 47 213
Width: 533
Flags: W
HStem: 0 21G<6 78.3103> 717 20G<461.668 535>
LayerCount: 2
Fore
SplineSet
478 737 m 1,0,-1
 535 737 l 1,1,-1
 535 580 l 1,2,-1
 62 0 l 1,3,-1
 6 0 l 1,4,-1
 6 159 l 1,5,-1
 478 737 l 1,0,-1
EndSplineSet
EndChar

StartChar: A.alt2
Encoding: 57356 57356 214
Width: 792
Flags: W
HStem: 0 21G<55 212 601.146 779> 178 157<212 337> 717 20G<55 232.414>
VStem: 55 157<0 178 335 482>
LayerCount: 2
Fore
SplineSet
216 737 m 1,0,-1
 779 51 l 1,1,-1
 779 0 l 1,2,-1
 618 0 l 1,3,-1
 468 178 l 1,4,-1
 212 178 l 1,5,-1
 212 0 l 1,6,-1
 55 0 l 1,7,-1
 55 737 l 1,8,-1
 216 737 l 1,0,-1
212 335 m 1,9,-1
 337 335 l 1,10,-1
 212 482 l 1,11,-1
 212 335 l 1,9,-1
EndSplineSet
EndChar

StartChar: sterling
Encoding: 163 163 215
Width: 751
Flags: W
HStem: 0 157<40 132 289 696> 284 156<40 132 289 598> 581 156<289 539>
VStem: 132 157<157 284 440 581>
LayerCount: 2
Fore
SplineSet
539 531 m 1,0,-1
 539 581 l 1,1,-1
 289 581 l 1,2,-1
 289 440 l 1,3,-1
 598 440 l 1,4,-1
 598 284 l 1,5,-1
 289 284 l 1,6,-1
 289 157 l 1,7,-1
 696 157 l 1,8,-1
 696 0 l 1,9,-1
 40 0 l 1,10,-1
 40 157 l 1,11,-1
 132 157 l 1,12,-1
 132 284 l 1,13,-1
 40 284 l 1,14,-1
 40 440 l 1,15,-1
 132 440 l 1,16,-1
 132 589 l 2,17,18
 132 620 132 620 144 647 c 128,-1,19
 156 674 156 674 176.5 694 c 128,-1,20
 197 714 197 714 223.5 725.5 c 128,-1,21
 250 737 250 737 281 737 c 2,22,-1
 548 737 l 2,23,24
 579 737 579 737 606 725.5 c 128,-1,25
 633 714 633 714 653 694 c 128,-1,26
 673 674 673 674 684.5 647 c 128,-1,27
 696 620 696 620 696 589 c 2,28,-1
 696 531 l 1,29,-1
 539 531 l 1,0,-1
EndSplineSet
EndChar

StartChar: t
Encoding: 116 116 216
Width: 461
Flags: W
HStem: 0 157<211 431> 437 157<211 431>
VStem: 54 377<72.4688 157 437 594> 54 157<157 437 594 770>
LayerCount: 2
Fore
SplineSet
211 437 m 1,0,-1
 211 157 l 1,1,-1
 431 157 l 1,2,-1
 431 0 l 1,3,-1
 204 0 l 2,4,5
 173 0 173 0 145.5 12 c 128,-1,6
 118 24 118 24 98 44.5 c 128,-1,7
 78 65 78 65 66 91.5 c 128,-1,8
 54 118 54 118 54 148 c 2,9,-1
 54 770 l 1,10,-1
 211 770 l 1,11,-1
 211 594 l 1,12,-1
 431 594 l 1,13,-1
 431 437 l 1,14,-1
 211 437 l 1,0,-1
EndSplineSet
Substitution2: "'smcp' Lowercase to Small Capitals in Latin lookup 3 subtable" t.sc
Substitution2: "'aalt' Access All Alternates in Latin lookup 0 subtable" t.sc
EndChar

StartChar: t.sc
Encoding: 65580 -1 217
Width: 659
Flags: W
HStem: 0 21G<249 407> 437 157<23 249 407 635>
VStem: 249 158<0 437>
LayerCount: 2
Fore
SplineSet
635 594 m 1,0,-1
 635 437 l 1,1,-1
 407 437 l 1,2,-1
 407 0 l 1,3,-1
 249 0 l 1,4,-1
 249 437 l 1,5,-1
 23 437 l 1,6,-1
 23 594 l 1,7,-1
 635 594 l 1,0,-1
EndSplineSet
EndChar

StartChar: three
Encoding: 51 51 218
Width: 845
Flags: W
HStem: 0 157<211 622> 293 157<175 594> 581 156<211 594>
VStem: 54 157<157 206 523 581> 594 157<450 581> 622 156<157 293>
LayerCount: 2
Fore
SplineSet
751 441 m 2,0,1
 751 415 751 415 744 394 c 1,2,3
 759 376 759 376 768.5 352 c 128,-1,4
 778 328 778 328 778 301 c 2,5,-1
 778 148 l 2,6,7
 778 117 778 117 766.5 91 c 128,-1,8
 755 65 755 65 735 44.5 c 128,-1,9
 715 24 715 24 687.5 12 c 128,-1,10
 660 0 660 0 630 0 c 2,11,-1
 204 0 l 2,12,13
 173 0 173 0 146 12 c 128,-1,14
 119 24 119 24 98.5 44.5 c 128,-1,15
 78 65 78 65 66 91.5 c 128,-1,16
 54 118 54 118 54 148 c 2,17,-1
 54 206 l 1,18,-1
 211 206 l 1,19,-1
 211 157 l 1,20,-1
 622 157 l 1,21,-1
 622 293 l 1,22,-1
 175 293 l 1,23,-1
 175 450 l 1,24,-1
 594 450 l 1,25,-1
 594 581 l 1,26,-1
 211 581 l 1,27,-1
 211 523 l 1,28,-1
 54 523 l 1,29,-1
 54 589 l 2,30,31
 54 620 54 620 66 647 c 128,-1,32
 78 674 78 674 98.5 694 c 128,-1,33
 119 714 119 714 146 725.5 c 128,-1,34
 173 737 173 737 204 737 c 2,35,-1
 602 737 l 2,36,37
 633 737 633 737 660 725.5 c 128,-1,38
 687 714 687 714 707 694 c 128,-1,39
 727 674 727 674 739 647 c 128,-1,40
 751 620 751 620 751 589 c 2,41,-1
 751 441 l 2,0,1
EndSplineSet
EndChar

StartChar: tilde
Encoding: 732 732 219
Width: 412
Flags: W
HStem: 769 118<242.123 382.244> 833 117<42.1875 190.228>
LayerCount: 2
Fore
SplineSet
309 887 m 1,0,1
 326 887 326 887 349.5 894.5 c 128,-1,2
 373 902 373 902 408 925 c 1,3,-1
 408 796 l 1,4,5
 384 786 384 786 358.5 777.5 c 128,-1,6
 333 769 333 769 306 769 c 0,7,8
 278 769 278 769 254.5 778.5 c 128,-1,9
 231 788 231 788 209 800.5 c 128,-1,10
 187 813 187 813 165.5 823 c 128,-1,11
 144 833 144 833 121 833 c 2,12,-1
 110 833 l 2,13,14
 104 833 104 833 96 833 c 128,-1,15
 88 833 88 833 78 829.5 c 128,-1,16
 68 826 68 826 54.5 818.5 c 128,-1,17
 41 811 41 811 24 796 c 1,18,-1
 24 923 l 1,19,20
 48 932 48 932 72.5 941 c 128,-1,21
 97 950 97 950 121 950 c 0,22,23
 148 950 148 950 171 941.5 c 128,-1,24
 194 933 194 933 216 922 c 128,-1,25
 238 911 238 911 260 900.5 c 128,-1,26
 282 890 282 890 309 887 c 1,0,1
EndSplineSet
EndChar

StartChar: two
Encoding: 50 50 220
Width: 849
Flags: W
HStem: 0 157<215 782> 276 158<215 626> 581 156<215 626>
VStem: 58 157<157 276 521 581> 626 156<434 581>
LayerCount: 2
Fore
SplineSet
633 737 m 2,0,1
 664 737 664 737 691 725.5 c 128,-1,2
 718 714 718 714 738.5 694 c 128,-1,3
 759 674 759 674 770.5 647 c 128,-1,4
 782 620 782 620 782 589 c 2,5,-1
 782 426 l 2,6,7
 782 395 782 395 770.5 368 c 128,-1,8
 759 341 759 341 738.5 320.5 c 128,-1,9
 718 300 718 300 691 288 c 128,-1,10
 664 276 664 276 633 276 c 2,11,-1
 215 276 l 1,12,-1
 215 157 l 1,13,-1
 782 157 l 1,14,-1
 782 0 l 1,15,-1
 58 0 l 1,16,-1
 58 286 l 2,17,18
 58 317 58 317 70 344 c 128,-1,19
 82 371 82 371 102.5 391 c 128,-1,20
 123 411 123 411 150 422.5 c 128,-1,21
 177 434 177 434 208 434 c 2,22,-1
 626 434 l 1,23,-1
 626 581 l 1,24,-1
 215 581 l 1,25,-1
 215 521 l 1,26,-1
 58 521 l 1,27,-1
 58 589 l 2,28,29
 58 620 58 620 70 647 c 128,-1,30
 82 674 82 674 102.5 694 c 128,-1,31
 123 714 123 714 150 725.5 c 128,-1,32
 177 737 177 737 208 737 c 2,33,-1
 633 737 l 2,0,1
EndSplineSet
Substitution2: "'ss03' Style Set 3 in Latin lookup 6 subtable" two.alt
Substitution2: "'aalt' Access All Alternates in Latin lookup 0 subtable" two.alt
EndChar

StartChar: two.alt
Encoding: 57349 57349 221
Width: 834
Flags: W
HStem: 0 157<208 773> 580 156<208 615>
LayerCount: 2
Fore
SplineSet
657 404 m 1,0,-1
 208 157 l 1,1,-1
 773 157 l 1,2,-1
 773 0 l 1,3,-1
 198 0 l 2,4,5
 171 0 171 0 147 8.5 c 128,-1,6
 123 17 123 17 104 33 c 128,-1,7
 85 49 85 49 71 70 c 128,-1,8
 57 91 57 91 51 116 c 1,9,-1
 50 253 l 1,10,-1
 615 559 l 1,11,-1
 615 580 l 1,12,-1
 208 580 l 1,13,-1
 208 509 l 1,14,-1
 50 509 l 1,15,-1
 50 588 l 2,16,17
 50 619 50 619 62 646 c 128,-1,18
 74 673 74 673 94.5 693 c 128,-1,19
 115 713 115 713 142 724.5 c 128,-1,20
 169 736 169 736 200 736 c 2,21,-1
 626 736 l 2,22,23
 654 736 654 736 678 727 c 128,-1,24
 702 718 702 718 722 701.5 c 128,-1,25
 742 685 742 685 755 662.5 c 128,-1,26
 768 640 768 640 773 614 c 1,27,-1
 773 464 l 1,28,-1
 657 404 l 1,0,-1
EndSplineSet
EndChar

StartChar: u
Encoding: 117 117 222
Width: 711
Flags: W
HStem: 0 157<211 500> 574 20G<54 211 500 656>
VStem: 54 157<157 594> 500 156<157 594>
LayerCount: 2
Fore
SplineSet
656 594 m 1,0,-1
 656 148 l 2,1,2
 656 117 656 117 644.5 91 c 128,-1,3
 633 65 633 65 613 44.5 c 128,-1,4
 593 24 593 24 566 12 c 128,-1,5
 539 0 539 0 508 0 c 2,6,-1
 203 0 l 2,7,8
 172 0 172 0 145 12 c 128,-1,9
 118 24 118 24 98 44.5 c 128,-1,10
 78 65 78 65 66 91.5 c 128,-1,11
 54 118 54 118 54 148 c 2,12,-1
 54 594 l 1,13,-1
 211 594 l 1,14,-1
 211 157 l 1,15,-1
 500 157 l 1,16,-1
 500 594 l 1,17,-1
 656 594 l 1,0,-1
EndSplineSet
Substitution2: "'smcp' Lowercase to Small Capitals in Latin lookup 3 subtable" u.sc
Substitution2: "'aalt' Access All Alternates in Latin lookup 0 subtable" u.sc
EndChar

StartChar: u.sc
Encoding: 65581 -1 223
Width: 711
Flags: W
HStem: 0 157<211 500> 574 20G<54 211 500 656>
VStem: 54 157<157 594> 500 156<157 594>
LayerCount: 2
Fore
SplineSet
211 157 m 1,0,-1
 500 157 l 1,1,-1
 500 594 l 1,2,-1
 656 594 l 1,3,-1
 656 148 l 2,4,5
 656 117 656 117 644.5 91 c 128,-1,6
 633 65 633 65 613 44.5 c 128,-1,7
 593 24 593 24 566 12 c 128,-1,8
 539 0 539 0 508 0 c 2,9,-1
 203 0 l 2,10,11
 172 0 172 0 145 12 c 128,-1,12
 118 24 118 24 98 44.5 c 128,-1,13
 78 65 78 65 66 91.5 c 128,-1,14
 54 118 54 118 54 148 c 2,15,-1
 54 594 l 1,16,-1
 211 594 l 1,17,-1
 211 157 l 1,0,-1
EndSplineSet
EndChar

StartChar: underscore
Encoding: 95 95 228
Width: 847
Flags: W
HStem: -159 157<55 779>
LayerCount: 2
Fore
SplineSet
779 -159 m 1,0,-1
 55 -159 l 1,1,-1
 55 -2 l 1,2,-1
 779 -2 l 1,3,-1
 779 -159 l 1,0,-1
EndSplineSet
EndChar

StartChar: v
Encoding: 118 118 230
Width: 808
Flags: W
HStem: 0 21G<337.024 493.044> 574 20G<22 212.863 619.137 810>
LayerCount: 2
Fore
SplineSet
810 594 m 1,0,-1
 482 0 l 1,1,-1
 348 0 l 1,2,-1
 22 594 l 1,3,-1
 202 594 l 1,4,-1
 416 200 l 1,5,-1
 630 594 l 1,6,-1
 810 594 l 1,0,-1
EndSplineSet
Substitution2: "'smcp' Lowercase to Small Capitals in Latin lookup 3 subtable" v.sc
Substitution2: "'salt' Stylistic Alternatives in Latin lookup 2 subtable" v.alt
AlternateSubs2: "'aalt' Access All Alternates in Latin lookup 1 subtable" v.sc v.alt
EndChar

StartChar: v.alt
Encoding: 65582 -1 231
Width: 713
Flags: W
HStem: 0 157<211 500> 574 20G<54 211 500 656>
VStem: 54 157<157 594> 500 156<157 594>
LayerCount: 2
Fore
SplineSet
656 594 m 1,0,-1
 656 0 l 1,1,-1
 203 0 l 2,2,3
 172 0 172 0 145 12 c 128,-1,4
 118 24 118 24 98 44.5 c 128,-1,5
 78 65 78 65 66 91.5 c 128,-1,6
 54 118 54 118 54 148 c 2,7,-1
 54 594 l 1,8,-1
 211 594 l 1,9,-1
 211 157 l 1,10,-1
 500 157 l 1,11,-1
 500 594 l 1,12,-1
 656 594 l 1,0,-1
EndSplineSet
EndChar

StartChar: v.sc
Encoding: 65583 -1 232
Width: 820
Flags: W
HStem: 0 21G<341.855 498.145> 574 20G<22 212.089 627.911 818>
LayerCount: 2
Fore
SplineSet
639 594 m 1,0,-1
 818 594 l 1,1,-1
 487 0 l 1,2,-1
 353 0 l 1,3,-1
 22 594 l 1,4,-1
 201 594 l 1,5,-1
 420 199 l 1,6,-1
 639 594 l 1,0,-1
EndSplineSet
EndChar

StartChar: w
Encoding: 119 119 233
Width: 1078
Flags: W
HStem: 0 21G<261.155 395.701 691.96 827.508> 574 20G<36 210.312 453.5 624.231 864 1043>
LayerCount: 2
Fore
SplineSet
1043 594 m 1,0,-1
 820 0 l 1,1,-1
 701 0 l 1,2,-1
 541 354 l 1,3,-1
 387 0 l 1,4,-1
 269 0 l 1,5,-1
 36 594 l 1,6,-1
 202 594 l 1,7,-1
 330 286 l 1,8,-1
 374 388 l 2,9,10
 396 438 396 438 419.5 491.5 c 128,-1,11
 443 545 443 545 464 594 c 1,12,-1
 615 594 l 1,13,-1
 759 282 l 1,14,15
 789 359 789 359 819.5 439 c 128,-1,16
 850 519 850 519 878 594 c 1,17,-1
 1043 594 l 1,0,-1
EndSplineSet
Substitution2: "'smcp' Lowercase to Small Capitals in Latin lookup 3 subtable" w.sc
Substitution2: "'salt' Stylistic Alternatives in Latin lookup 2 subtable" w.alt
AlternateSubs2: "'aalt' Access All Alternates in Latin lookup 1 subtable" w.sc w.alt
EndChar

StartChar: w.alt
Encoding: 65584 -1 234
Width: 1001
Flags: W
HStem: 0 157<210 407 564 761> 574 20G<54 210 407 564 761 918>
VStem: 54 156<157 594> 407 157<157 594> 761 157<157 594>
LayerCount: 2
Fore
SplineSet
204 0 m 2,0,1
 173 0 173 0 146 12 c 128,-1,2
 119 24 119 24 98.5 44.5 c 128,-1,3
 78 65 78 65 66 91.5 c 128,-1,4
 54 118 54 118 54 148 c 2,5,-1
 54 594 l 1,6,-1
 210 594 l 1,7,-1
 210 157 l 1,8,-1
 407 157 l 1,9,-1
 407 594 l 1,10,-1
 564 594 l 1,11,-1
 564 157 l 1,12,-1
 761 157 l 1,13,-1
 761 594 l 1,14,-1
 918 594 l 1,15,-1
 918 0 l 1,16,-1
 204 0 l 2,0,1
EndSplineSet
EndChar

StartChar: w.sc
Encoding: 65585 -1 235
Width: 1103
Flags: W
HStem: 0 21G<264.02 400.5 695.72 830.71> 574 20G<35 209.489 462.125 623.487 870 1052>
LayerCount: 2
Fore
SplineSet
1052 594 m 1,0,-1
 823 0 l 1,1,-1
 705 0 l 1,2,-1
 544 347 l 1,3,-1
 475 193 l 2,4,5
 455 147 455 147 433 95.5 c 128,-1,6
 411 44 411 44 390 0 c 1,7,-1
 272 0 l 1,8,-1
 35 594 l 1,9,-1
 201 594 l 1,10,-1
 333 283 l 1,11,-1
 471 594 l 1,12,-1
 614 594 l 1,13,-1
 762 282 l 1,14,15
 793 359 793 359 824 438 c 128,-1,16
 855 517 855 517 885 594 c 1,17,-1
 1052 594 l 1,0,-1
EndSplineSet
EndChar

StartChar: x
Encoding: 120 120 236
Width: 708
Flags: W
HStem: 0 21G<47 224.292 482.596 659> 574 20G<47 224.86 481 659>
LayerCount: 2
Fore
SplineSet
659 594 m 1,0,-1
 659 543 l 1,1,-1
 455 302 l 1,2,3
 483 267 483 267 511.5 233 c 128,-1,4
 540 199 540 199 567 165 c 2,5,-1
 659 51 l 1,6,-1
 659 0 l 1,7,-1
 499 0 l 1,8,-1
 353 178 l 1,9,-1
 208 0 l 1,10,-1
 47 0 l 1,11,-1
 47 51 l 1,12,-1
 252 302 l 1,13,-1
 47 543 l 1,14,-1
 47 594 l 1,15,-1
 208 594 l 1,16,-1
 353 422 l 1,17,18
 389 464 389 464 426.5 508.5 c 128,-1,19
 464 553 464 553 498 594 c 1,20,-1
 659 594 l 1,0,-1
EndSplineSet
Substitution2: "'smcp' Lowercase to Small Capitals in Latin lookup 3 subtable" x.sc
Substitution2: "'salt' Stylistic Alternatives in Latin lookup 2 subtable" x.alt
AlternateSubs2: "'aalt' Access All Alternates in Latin lookup 1 subtable" x.sc x.alt
EndChar

StartChar: x.alt
Encoding: 65586 -1 237
Width: 714
Flags: W
HStem: 0 21G<55 212 501 657> 218 158<212 501> 574 20G<55 212 501 657>
VStem: 55 157<0 218 376 594> 501 156<0 218 376 594>
LayerCount: 2
Fore
SplineSet
657 367 m 2,0,1
 657 350 657 350 647.5 331.5 c 128,-1,2
 638 313 638 313 630 297 c 1,3,4
 638 281 638 281 647.5 263 c 128,-1,5
 657 245 657 245 657 227 c 2,6,-1
 657 0 l 1,7,-1
 501 0 l 1,8,-1
 501 218 l 1,9,-1
 212 218 l 1,10,-1
 212 0 l 1,11,-1
 55 0 l 1,12,-1
 55 227 l 2,13,14
 55 244 55 244 65 262.5 c 128,-1,15
 75 281 75 281 83 297 c 1,16,17
 75 313 75 313 65 331 c 128,-1,18
 55 349 55 349 55 367 c 2,19,-1
 55 594 l 1,20,-1
 212 594 l 1,21,-1
 212 376 l 1,22,-1
 501 376 l 1,23,-1
 501 594 l 1,24,-1
 657 594 l 1,25,-1
 657 367 l 2,0,1
EndSplineSet
EndChar

StartChar: x.sc
Encoding: 65587 -1 238
Width: 708
Flags: W
HStem: 0 21G<47 224.201 482.687 659> 574 20G<47 224.86 482.023 659>
LayerCount: 2
Fore
SplineSet
659 594 m 1,0,-1
 659 543 l 1,1,-1
 455 303 l 1,2,-1
 659 51 l 1,3,-1
 659 0 l 1,4,-1
 499 0 l 1,5,-1
 353 179 l 1,6,-1
 208 0 l 1,7,-1
 47 0 l 1,8,-1
 47 51 l 1,9,-1
 250 303 l 1,10,-1
 104 473 l 1,11,-1
 47 543 l 1,12,-1
 47 594 l 1,13,-1
 208 594 l 1,14,-1
 353 422 l 1,15,-1
 499 594 l 1,16,-1
 659 594 l 1,0,-1
EndSplineSet
EndChar

StartChar: y
Encoding: 121 121 239
Width: 701
Flags: W
HStem: -213 158<137 489> 0 157<200 489> 572 20G<43 200 489 646>
VStem: 43 157<157 592> 489 157<-55 0 157 592>
LayerCount: 2
Fore
SplineSet
646 -65 m 2,0,1
 646 -96 646 -96 634.5 -123 c 128,-1,2
 623 -150 623 -150 603 -169.5 c 128,-1,3
 583 -189 583 -189 555.5 -201 c 128,-1,4
 528 -213 528 -213 498 -213 c 2,5,-1
 137 -213 l 1,6,-1
 137 -55 l 1,7,-1
 489 -55 l 1,8,-1
 489 0 l 1,9,-1
 193 0 l 2,10,11
 162 0 162 0 135 12 c 128,-1,12
 108 24 108 24 87.5 44.5 c 128,-1,13
 67 65 67 65 55 91.5 c 128,-1,14
 43 118 43 118 43 148 c 2,15,-1
 43 592 l 1,16,-1
 200 592 l 1,17,-1
 200 157 l 1,18,-1
 489 157 l 1,19,-1
 489 592 l 1,20,-1
 646 592 l 1,21,-1
 646 -65 l 2,0,1
EndSplineSet
Substitution2: "'smcp' Lowercase to Small Capitals in Latin lookup 3 subtable" y.sc
Substitution2: "'aalt' Access All Alternates in Latin lookup 0 subtable" y.sc
EndChar

StartChar: y.sc
Encoding: 65588 -1 240
Width: 704
Flags: W
HStem: 0 21G<297 454> 574 20G<18 219.566 529.706 732>
VStem: 297 157<0 205>
LayerCount: 2
Fore
SplineSet
732 594 m 1,0,-1
 454 205 l 1,1,-1
 454 0 l 1,2,-1
 297 0 l 1,3,-1
 297 205 l 1,4,-1
 18 594 l 1,5,-1
 204 594 l 1,6,-1
 376 373 l 1,7,-1
 545 594 l 1,8,-1
 732 594 l 1,0,-1
EndSplineSet
EndChar

StartChar: z
Encoding: 122 122 243
Width: 714
Flags: W
HStem: 0 157<300 657> 437 157<55 413>
LayerCount: 2
Fore
SplineSet
55 594 m 1,0,-1
 657 594 l 1,1,-1
 657 433 l 1,2,-1
 300 157 l 1,3,-1
 657 157 l 1,4,-1
 657 0 l 1,5,-1
 55 0 l 1,6,-1
 55 161 l 1,7,-1
 413 437 l 1,8,-1
 55 437 l 1,9,-1
 55 594 l 1,0,-1
EndSplineSet
Substitution2: "'smcp' Lowercase to Small Capitals in Latin lookup 3 subtable" z.sc
Substitution2: "'salt' Stylistic Alternatives in Latin lookup 2 subtable" z.alt
AlternateSubs2: "'aalt' Access All Alternates in Latin lookup 1 subtable" z.sc z.alt
EndChar

StartChar: z.alt
Encoding: 65589 -1 244
Width: 708
Flags: W
HStem: 0 157<209 654> 218 158<209 498> 437 157<52 498>
CounterMasks: 1 e0
LayerCount: 2
Fore
SplineSet
209 218 m 1,0,-1
 209 157 l 1,1,-1
 654 157 l 1,2,-1
 654 0 l 1,3,-1
 201 0 l 2,4,5
 170 0 170 0 143.5 12 c 128,-1,6
 117 24 117 24 96.5 44.5 c 128,-1,7
 76 65 76 65 64 91.5 c 128,-1,8
 52 118 52 118 52 148 c 2,9,-1
 52 227 l 2,10,11
 52 258 52 258 64 284.5 c 128,-1,12
 76 311 76 311 96.5 331.5 c 128,-1,13
 117 352 117 352 143.5 364 c 128,-1,14
 170 376 170 376 201 376 c 2,15,-1
 498 376 l 1,16,-1
 498 437 l 1,17,-1
 52 437 l 1,18,-1
 52 594 l 1,19,-1
 506 594 l 2,20,21
 537 594 537 594 564 582 c 128,-1,22
 591 570 591 570 611 549.5 c 128,-1,23
 631 529 631 529 642.5 502.5 c 128,-1,24
 654 476 654 476 654 445 c 2,25,-1
 654 367 l 2,26,27
 654 336 654 336 642.5 309.5 c 128,-1,28
 631 283 631 283 611 262.5 c 128,-1,29
 591 242 591 242 564 230 c 128,-1,30
 537 218 537 218 506 218 c 2,31,-1
 209 218 l 1,0,-1
EndSplineSet
EndChar

StartChar: z.sc
Encoding: 65590 -1 245
Width: 714
Flags: W
HStem: 0 157<300 657> 437 157<55 413>
LayerCount: 2
Fore
SplineSet
55 594 m 1,0,-1
 657 594 l 1,1,-1
 657 433 l 1,2,-1
 300 157 l 1,3,-1
 657 157 l 1,4,-1
 657 0 l 1,5,-1
 55 0 l 1,6,-1
 55 161 l 1,7,-1
 413 437 l 1,8,-1
 55 437 l 1,9,-1
 55 594 l 1,0,-1
EndSplineSet
EndChar

StartChar: zero
Encoding: 48 48 247
Width: 854
Flags: W
HStem: 0 167<299 626> 577 160<215 542>
VStem: 58 157<302 577> 626 156<167 441>
LayerCount: 2
Fore
SplineSet
633 737 m 2,0,1
 664 737 664 737 691 725 c 128,-1,2
 718 713 718 713 738.5 692 c 128,-1,3
 759 671 759 671 770.5 643 c 128,-1,4
 782 615 782 615 782 585 c 2,5,-1
 782 159 l 2,6,7
 782 128 782 128 770.5 100 c 128,-1,8
 759 72 759 72 738.5 49.5 c 128,-1,9
 718 27 718 27 691 13.5 c 128,-1,10
 664 0 664 0 633 0 c 2,11,-1
 208 0 l 2,12,13
 177 0 177 0 150 13.5 c 128,-1,14
 123 27 123 27 102.5 49.5 c 128,-1,15
 82 72 82 72 70 100 c 128,-1,16
 58 128 58 128 58 159 c 2,17,-1
 58 585 l 2,18,19
 58 616 58 616 70 643.5 c 128,-1,20
 82 671 82 671 102.5 692 c 128,-1,21
 123 713 123 713 150 725 c 128,-1,22
 177 737 177 737 208 737 c 2,23,-1
 633 737 l 2,0,1
626 167 m 1,24,-1
 626 441 l 1,25,-1
 299 167 l 1,26,-1
 626 167 l 1,24,-1
215 577 m 1,27,-1
 215 302 l 1,28,-1
 542 577 l 1,29,-1
 215 577 l 1,27,-1
EndSplineSet
EndChar

StartChar: A
Encoding: 65 65 248
Width: 856
Flags: W
HStem: 0 21G<59 218 636 797> 238 159<218 636> 578 159<218 636>
VStem: 59 159<0 238 397 578> 636 161<0 238 397 578>
LayerCount: 2
Fore
SplineSet
644 737 m 2,0,1
 676 737 676 737 703.5 725.5 c 128,-1,2
 731 714 731 714 751.5 693.5 c 128,-1,3
 772 673 772 673 784.5 645 c 128,-1,4
 797 617 797 617 797 586 c 2,5,-1
 797 0 l 1,6,-1
 636 0 l 1,7,-1
 636 238 l 1,8,-1
 218 238 l 1,9,-1
 218 0 l 1,10,-1
 59 0 l 1,11,-1
 59 586 l 2,12,13
 59 618 59 618 71 645.5 c 128,-1,14
 83 673 83 673 103.5 693.5 c 128,-1,15
 124 714 124 714 151.5 725.5 c 128,-1,16
 179 737 179 737 211 737 c 2,17,-1
 644 737 l 2,0,1
636 397 m 1,18,-1
 636 578 l 1,19,-1
 218 578 l 1,20,-1
 218 397 l 1,21,-1
 636 397 l 1,18,-1
EndSplineSet
Substitution2: "'ss02' Style Set 2 in Latin lookup 5 subtable" A.alt2
Substitution2: "'ss01' Style Set 1 in Latin lookup 4 subtable" A.alt
AlternateSubs2: "'aalt' Access All Alternates in Latin lookup 1 subtable" A.alt A.alt2
EndChar
